<?xml version="1.0" standalone="no"?>
<!DOCTYPE svg PUBLIC "-//W3C//DTD SVG 1.1//EN" "http://www.w3.org/Graphics/SVG/1.1/DTD/svg11.dtd" >
<svg>
<metadata>
Created by FontForge 20120731 at Wed Nov 12 20:26:59 2014
 By Orthosie Webhosting
Copyright (c) Cadson Demak Co.,Ltd. All rights reserved.
This font is an exclusive license to Kelvin Wong
43/21 Citytownhome
Lardprao 80 Yaek 26
Lardprao Wangthonglang
Bangkok 10310 Thailand
</metadata>
<defs>
<font id="SukhumvitBold" horiz-adv-x="487" >
  <font-face 
    font-family="SukhumvitBold"
    font-weight="700"
    font-stretch="normal"
    units-per-em="1000"
    panose-1="2 0 8 3 0 0 0 2 0 4"
    ascent="800"
    descent="-200"
    x-height="448"
    cap-height="607"
    bbox="-554 -487 871 942"
    underline-thickness="20"
    underline-position="-113"
    unicode-range="U+0020-FB02"
  />
<missing-glyph horiz-adv-x="606" 
 />
    <glyph glyph-name="uni0E5A" unicode="&#xe2f;&#xe2f;" horiz-adv-x="724" 
d="M683 0h-120v347q-35 -56 -106 -56v-291h-120v347q-40 -63 -122 -63q-81 0 -131 50q-47 48 -47 123v54h118v-47q0 -40 23 -63q23 -24 61 -24q43 0 72 32q29 31 29 76v26h117v-132q41 0 75 34q34 33 34 72v26h117v-511z" />
    <glyph glyph-name="uni0E4F.liga" unicode="&#xe4f;&#x22;" horiz-adv-x="524" 
d="M459 200q0 -81 -57 -138t-137 -57t-137 57t-57 138q0 80 57 137t137 57t137 -57t57 -137zM381 83q48 49 48 117t-48 116t-116 48t-116 -48t-48 -116t48 -117q48 -48 116 -48t116 48zM377 200q0 -47 -33 -80t-79 -33q-47 0 -80 33t-33 79q0 47 33 80t79 33q47 0 80 -33
t33 -79zM227 436h-62v173h62v-173zM372 436h-61v173h61v-173zM320 144q23 23 23 56q0 32 -23 55t-56 23q-32 0 -55 -23t-23 -56q0 -32 23 -55t56 -23q32 0 55 23z" />
    <glyph glyph-name="uni0E24.liga" unicode="&#xe24;&#xe32;" horiz-adv-x="896" 
d="M857 -200h-119v527q0 98 -87 98q-94 0 -154 -70q2 -14 2 -22v-533h-120v527q0 102 -102 102q-81 0 -118 -56l56 -72q-42 -28 -42 -77v-116q0 -15 14 -15h38v-93h-74q-40 0 -69 29t-29 70v116q0 53 42 89q1 0 -59 66q20 63 86 106q69 46 155 46q122 0 185 -81
q78 81 197 81q93 0 146 -54q52 -53 52 -148v-520z" />
    <glyph glyph-name="uni0E26.liga" unicode="&#xe26;&#xe32;" horiz-adv-x="910" 
d="M871 -200h-119v527q0 98 -87 98q-90 0 -155 -71q2 -14 2 -23v-531h-119v527q0 48 -29 75t-77 27q-77 0 -114 -56l56 -72q-41 -27 -41 -77v-129q0 -37 -26 -66q-27 -29 -62 -29h-78v93h37q10 0 10 11v111q0 55 40 89q1 0 -59 66q20 64 84 106q67 46 153 46q123 0 188 -83
q69 83 198 83q93 0 146 -54q52 -53 52 -148v-520z" />
    <glyph glyph-name="fi" unicode="fi" horiz-adv-x="580" 
d="M221 0h-116v362h-86v86h86v62q0 69 36 109q37 42 106 43q49 -2 85 -13l-9 -88q-20 11 -51 11q-51 0 -51 -69v-55h102v-86h-102v-362zM517 0h-116v448h116v-448zM517 529h-116v111h116v-111z" />
    <glyph glyph-name="fl" unicode="fl" horiz-adv-x="580" 
d="M221 0h-116v362h-86v86h86v62q0 69 36 109q37 42 106 43q49 -2 85 -13l-9 -88q-20 11 -51 11q-51 0 -51 -69v-55h102v-86h-102v-362zM517 0h-116v652h116v-652z" />
    <glyph glyph-name=".notdef" horiz-adv-x="606" 
 />
    <glyph glyph-name=".null" horiz-adv-x="0" 
 />
    <glyph glyph-name="nonmarkingreturn" horiz-adv-x="195" 
 />
    <glyph glyph-name="space" unicode=" " horiz-adv-x="288" 
 />
    <glyph glyph-name="exclam" unicode="!" horiz-adv-x="342" 
d="M220 178h-99l-16 429h133zM232 0h-121v122h121v-122z" />
    <glyph glyph-name="quotedbl" unicode="&#x22;" horiz-adv-x="422" 
d="M344 389h-107v218h107v-218zM184 389h-106v218h106v-218z" />
    <glyph glyph-name="numbersign" unicode="#" 
d="M326 0h-76l25 178h-89l-26 -178h-76l25 178h-78v70h87l15 111h-76v69h87l24 179h77l-24 -179h89l24 179h76l-24 -179h70v-69h-80l-15 -111h70v-70h-80zM284 248l15 111h-88l-15 -111h88z" />
    <glyph glyph-name="dollar" unicode="$" 
d="M227 513q-48 -21 -48 -76q0 -38 48 -60v136zM268 97q50 23 50 66t-50 67v-133zM268 -78h-41v68h-9q-62 0 -156 23l11 110q63 -36 138 -38q4 0 16 2v162l-60 26q-115 49 -115 157q0 84 53 132q46 43 122 51v65h41v-63q77 0 142 -22l-12 -100q-60 26 -123 26h-7v-161
q87 -33 120 -60q57 -47 57 -127q0 -159 -177 -180v-71z" />
    <glyph glyph-name="percent" unicode="%" horiz-adv-x="873" 
d="M580 155q0 -94 56 -96q53 2 53 90q0 89 -53 91q-56 -3 -56 -85zM286 -19h-71l375 645h72zM384 457q0 -158 -144 -160q-146 2 -146 160q0 160 146 160q144 0 144 -160zM184 457q0 -87 56 -90q54 2 54 90q0 90 -54 90q-56 0 -56 -90zM780 149q0 -157 -144 -159
q-146 2 -146 159q0 160 146 160q144 0 144 -160z" />
    <glyph glyph-name="ampersand" unicode="&#x26;" horiz-adv-x="631" 
d="M244 267q-73 -36 -73 -98q0 -38 30 -64q30 -25 72 -25q70 0 106 36zM271 381q79 41 79 88q0 63 -66 63q-30 0 -49 -16q-21 -18 -21 -48q0 -24 21 -47zM626 0h-150l-40 54q-67 -64 -165 -64q-94 0 -154 46q-63 48 -63 130q0 112 128 167q-84 74 -84 146q0 65 59 104
q53 34 125 34q73 0 119 -31q55 -36 55 -106q0 -95 -117 -161l111 -122q35 42 39 132h106q-4 -118 -78 -207z" />
    <glyph glyph-name="quotesingle" unicode="'" horiz-adv-x="246" 
d="M176 389h-106v218h106v-218z" />
    <glyph glyph-name="parenleft" unicode="(" horiz-adv-x="293" 
d="M175 -122q-139 178 -139 390q0 206 139 389h110q-126 -197 -126 -389q0 -211 126 -390h-110z" />
    <glyph glyph-name="parenright" unicode=")" horiz-adv-x="293" 
d="M8 -122q126 181 126 390q0 194 -126 389h110q139 -183 139 -389q0 -214 -139 -390h-110z" />
    <glyph glyph-name="asterisk" unicode="*" 
d="M385 320l-80 -58l-61 108l-66 -108l-80 58l86 93l-119 27l28 90l116 -49l-14 126h99l-15 -126l116 49l28 -90l-121 -27z" />
    <glyph glyph-name="plus" unicode="+" horiz-adv-x="525" 
d="M483 175h-175v-175h-90v175h-176v90h176v175h90v-175h175v-90z" />
    <glyph glyph-name="comma" unicode="," horiz-adv-x="246" 
d="M125 -96h-103l56 218h126z" />
    <glyph glyph-name="hyphen" unicode="-" horiz-adv-x="293" 
d="M261 186h-229v96h229v-96z" />
    <glyph glyph-name="period" unicode="." horiz-adv-x="246" 
d="M184 0h-122v122h122v-122z" />
    <glyph glyph-name="slash" unicode="/" horiz-adv-x="342" 
d="M111 -10h-91l212 627h91z" />
    <glyph glyph-name="zero" unicode="0" 
d="M243 527q-58 -3 -77 -84q-12 -46 -12 -141q0 -222 90 -222q89 0 89 222q0 105 -13 151q-19 71 -77 74zM455 302q0 -312 -212 -312q-211 0 -211 312q0 130 43 212q54 103 168 103q212 0 212 -315z" />
    <glyph glyph-name="one" unicode="1" 
d="M356 0h-122v468l-103 -83l-60 79l177 143h108v-607z" />
    <glyph glyph-name="two" unicode="2" 
d="M441 0h-403v102l66 61q192 178 196 277q-3 81 -99 81q-64 0 -140 -48l-9 101q91 43 179 43q187 0 191 -177q-4 -137 -229 -344h248v-96z" />
    <glyph glyph-name="three" unicode="3" 
d="M317 315q115 -18 115 -145q0 -101 -81 -147q-59 -33 -151 -33q-84 0 -159 20l7 103q69 -28 135 -28q47 0 84 21q43 24 43 65q0 95 -133 95h-59v96h55q135 0 135 79q0 80 -104 80q-71 0 -137 -32l-7 98q83 30 170 30q195 0 200 -156q-3 -105 -113 -145v-1z" />
    <glyph glyph-name="four" unicode="4" 
d="M277 216v264h-1l-151 -264h152zM394 0h-117v126h-261v98l227 383h151v-391h77v-90h-77v-126z" />
    <glyph glyph-name="five" unicode="5" 
d="M67 116q64 -31 124 -31q55 0 90 25q39 29 40 82q-3 105 -139 105q-58 0 -109 -16l6 326h349v-91h-234l-3 -129q42 6 56 6q86 0 137 -44q59 -52 59 -153q0 -89 -59 -145q-64 -61 -178 -61q-73 0 -141 17z" />
    <glyph glyph-name="six" unicode="6" 
d="M402 497q-55 24 -106 24q-71 0 -110 -59q-33 -51 -35 -128l2 -2q42 61 118 61q177 0 177 -185q0 -102 -49 -158q-52 -60 -153 -60q-206 0 -206 282q0 144 50 233q64 112 200 112q67 0 127 -22zM162 188q0 -105 84 -108q80 3 80 109q0 113 -82 113t-82 -114z" />
    <glyph glyph-name="seven" unicode="7" 
d="M221 0h-132l225 511h-269v96h392v-101z" />
    <glyph glyph-name="eight" unicode="8" 
d="M338 325q117 -55 117 -157q0 -90 -59 -136q-54 -42 -150 -42q-94 0 -151 41q-63 46 -63 133q0 99 112 151v1q-101 45 -101 141q0 79 55 121q51 39 138 39t142 -34q61 -39 61 -112q0 -101 -101 -145v-1zM159 454q0 -59 96 -92q65 25 68 88q0 77 -75 77q-35 0 -61 -19
q-28 -21 -28 -54zM307 101q25 22 26 60q-3 80 -102 105q-77 -35 -77 -100q0 -36 28 -61q27 -25 64 -25t61 21z" />
    <glyph glyph-name="nine" unicode="9" 
d="M335 275q-41 -61 -114 -61q-181 0 -181 185q0 102 49 158q51 60 151 60q208 0 208 -274q0 -150 -50 -240q-63 -113 -200 -113q-65 0 -127 21l15 98q50 -24 106 -24q74 0 112 59q31 49 33 129zM182 340q22 -35 62 -36q82 3 82 115q0 105 -84 108q-80 -3 -80 -109
q0 -47 20 -78z" />
    <glyph glyph-name="colon" unicode=":" horiz-adv-x="246" 
d="M184 326h-122v122h122v-122zM184 0h-122v122h122v-122z" />
    <glyph glyph-name="semicolon" unicode=";" horiz-adv-x="246" 
d="M125 -96h-103l56 218h126zM184 326h-122v122h122v-122z" />
    <glyph glyph-name="less" unicode="&#x3c;" horiz-adv-x="525" 
d="M483 -7l-441 189v75l441 190v-89l-324 -138l324 -138v-89z" />
    <glyph glyph-name="equal" unicode="=" horiz-adv-x="525" 
d="M483 269h-441v91h441v-91zM483 80h-441v90h441v-90z" />
    <glyph glyph-name="greater" unicode="&#x3e;" horiz-adv-x="525" 
d="M483 182l-441 -189v89l324 138l-324 138v89l441 -190v-75z" />
    <glyph glyph-name="question" unicode="?" horiz-adv-x="439" 
d="M268 177h-107q0 58 21 100q19 38 69 93q36 40 38 78q-3 79 -100 79q-69 0 -134 -35l-10 96q92 29 173 29q84 0 137 -36q61 -41 61 -118q0 -60 -74 -141t-74 -136v-9zM276 0h-122v122h122v-122z" />
    <glyph glyph-name="at" unicode="@" horiz-adv-x="699" 
d="M330 205q41 0 70 37q27 34 27 76q0 70 -64 70q-42 0 -71 -37q-27 -34 -27 -75q0 -30 18 -50q18 -21 47 -21zM624 124q-98 -134 -270 -134q-127 0 -218 78q-102 87 -102 235q0 132 93 222q96 92 243 92q122 0 203 -61q92 -69 92 -194q0 -110 -80 -182q-68 -60 -139 -60
q-44 0 -47 45h-2q-34 -45 -87 -45q-56 0 -95 41q-40 41 -40 102q0 86 51 147q51 63 128 63q63 0 101 -56l10 42h73l-48 -211q-6 -18 -6 -32q0 -11 13 -11q38 0 66 37q33 43 33 117q0 178 -226 178q-107 0 -178 -70q-67 -68 -67 -164q0 -105 66 -169q65 -64 170 -64
q122 0 189 54h74z" />
    <glyph glyph-name="A" unicode="A" horiz-adv-x="631" 
d="M401 235l-88 250h-2l-87 -250h177zM622 0h-135l-52 139h-246l-53 -139h-126l236 607h137z" />
    <glyph glyph-name="B" unicode="B" horiz-adv-x="535" 
d="M251 96q126 0 126 84q0 91 -126 91h-57v-175h57zM244 362q114 0 114 73q0 49 -36 66q-22 10 -73 10h-55v-149h50zM72 0v607h212q191 0 196 -156q-3 -113 -121 -136v-1q63 -6 101 -43q38 -38 38 -95q0 -99 -76 -143q-55 -33 -138 -33h-212z" />
    <glyph glyph-name="C" unicode="C" horiz-adv-x="535" 
d="M514 9q-66 -19 -138 -19q-153 0 -240 74q-93 79 -93 227q0 326 333 326q66 0 137 -25l-9 -103q-56 32 -131 32q-94 0 -149 -63q-54 -61 -54 -156q0 -96 55 -155q57 -62 151 -62q81 0 133 25z" />
    <glyph glyph-name="D" unicode="D" horiz-adv-x="631" 
d="M72 0v607h166q351 0 351 -304q0 -303 -351 -303h-166zM262 96q83 0 139 54q61 58 61 153q0 96 -61 154q-56 54 -139 54h-68v-415h68z" />
    <glyph glyph-name="E" unicode="E" 
d="M432 0h-360v607h358v-96h-236v-149h216v-96h-216v-170h238v-96z" />
    <glyph glyph-name="F" unicode="F" horiz-adv-x="439" 
d="M194 0h-122v607h338v-96h-216v-149h205v-96h-205v-266z" />
    <glyph glyph-name="G" unicode="G" horiz-adv-x="631" 
d="M572 21q-106 -31 -196 -31q-153 0 -240 74q-93 79 -93 227q0 326 330 326q100 0 181 -25l-8 -103q-78 32 -156 32q-104 0 -163 -63q-57 -59 -57 -156q0 -96 55 -155q57 -62 151 -62q49 0 80 9v158h-129v96h245v-327z" />
    <glyph glyph-name="H" unicode="H" horiz-adv-x="631" 
d="M559 0h-122v266h-243v-266h-122v607h122v-245h243v245h122v-607z" />
    <glyph glyph-name="I" unicode="I" horiz-adv-x="246" 
d="M184 0h-122v607h122v-607z" />
    <glyph glyph-name="J" unicode="J" horiz-adv-x="342" 
d="M280 144q0 -56 -34 -98q-45 -56 -132 -56q-44 0 -93 11v105q23 -10 58 -10q52 0 69 37q10 21 10 69v405h122v-463z" />
    <glyph glyph-name="K" unicode="K" horiz-adv-x="584" 
d="M573 0h-159l-218 282h-2v-282h-122v607h122v-261l219 261h150l-250 -286z" />
    <glyph glyph-name="L" unicode="L" horiz-adv-x="439" 
d="M430 0h-358v607h122v-511h236v-96z" />
    <glyph glyph-name="M" unicode="M" horiz-adv-x="824" 
d="M752 0h-116v501h-2l-164 -501h-116l-163 501l-2 -2v-499h-117v607h195l144 -460h2l144 460h195v-607z" />
    <glyph glyph-name="N" unicode="N" horiz-adv-x="631" 
d="M565 0h-148l-233 454h-1v-454h-117v607h150l231 -454h2v454h116v-607z" />
    <glyph glyph-name="O" unicode="O" horiz-adv-x="680" 
d="M560 77q-79 -86 -220 -87q-143 1 -221 88q-76 83 -76 227t76 227q79 85 221 85t221 -86q76 -83 76 -226q0 -144 -77 -228zM471 454q-45 66 -131 67q-84 -1 -130 -68q-40 -59 -40 -148q0 -92 39 -151q46 -69 131 -69q86 0 131 68q39 59 39 152q0 91 -39 149z" />
    <glyph glyph-name="P" unicode="P" 
d="M226 326q116 0 116 90q0 95 -116 95h-42v-185h42zM184 0h-122v607h154q253 0 253 -184q0 -193 -234 -193h-51v-230z" />
    <glyph glyph-name="Q" unicode="Q" horiz-adv-x="680" 
d="M622 -115h-147l-106 106q-9 -1 -29 -1q-143 1 -221 88q-76 83 -76 227t76 227q79 85 221 85t221 -86q76 -83 76 -226q0 -203 -153 -283zM471 454q-45 66 -131 67q-84 -1 -130 -68q-40 -59 -40 -148q0 -92 39 -151q46 -69 131 -69q86 0 131 68q39 59 39 152q0 91 -39 149z
" />
    <glyph glyph-name="R" unicode="R" horiz-adv-x="535" 
d="M224 348q128 0 128 84q0 52 -43 69q-25 10 -85 10h-40v-163h40zM516 0h-136l-73 189q-20 63 -84 63h-39v-252h-122v607h155q131 0 182 -22q80 -35 80 -143q0 -55 -33 -93q-34 -40 -92 -47v-2q40 -5 64 -63z" />
    <glyph glyph-name="S" unicode="S" 
d="M313 342q132 -56 132 -169q0 -93 -67 -141q-60 -42 -160 -42q-62 0 -156 23l11 110q68 -38 138 -38q40 0 71 18q36 22 36 60q0 43 -41 64q-17 9 -72 32q-48 20 -73 36q-80 50 -80 137q0 94 65 142q56 43 147 43q80 0 146 -22l-12 -100q-60 26 -123 26q-96 0 -96 -84
q0 -39 86 -75z" />
    <glyph glyph-name="T" unicode="T" 
d="M304 0h-121v511h-174v96h469v-96h-174v-511z" />
    <glyph glyph-name="U" unicode="U" horiz-adv-x="631" 
d="M563 219q0 -229 -238 -229q-257 0 -257 229v388h122v-351q0 -171 126 -171t126 171v351h121v-388z" />
    <glyph glyph-name="V" unicode="V" horiz-adv-x="584" 
d="M369 0h-150l-208 607h130l156 -477h1l154 477h121z" />
    <glyph glyph-name="W" unicode="W" horiz-adv-x="873" 
d="M704 0h-156l-110 485h-1l-108 -485h-158l-160 607h127l113 -485h2l104 485h165l107 -485h1l114 485h118z" />
    <glyph glyph-name="X" unicode="X" horiz-adv-x="584" 
d="M573 0h-143l-140 236l-142 -236h-137l199 315l-181 292h141l127 -217l129 217h130l-182 -292z" />
    <glyph glyph-name="Y" unicode="Y" horiz-adv-x="584" 
d="M355 0h-122v240l-221 367h142l143 -255l146 255h129l-217 -367v-240z" />
    <glyph glyph-name="Z" unicode="Z" 
d="M454 0h-421v99l285 412h-273v96h403v-100l-288 -411h294v-96z" />
    <glyph glyph-name="bracketleft" unicode="[" horiz-adv-x="293" 
d="M259 -122h-194v779h194v-85h-83v-608h83v-86z" />
    <glyph glyph-name="backslash" unicode="\" horiz-adv-x="342" 
d="M322 -10h-91l-212 627h91z" />
    <glyph glyph-name="bracketright" unicode="]" horiz-adv-x="293" 
d="M229 -122h-195v86h84v608h-84v85h195v-779z" />
    <glyph glyph-name="asciicircum" unicode="^" horiz-adv-x="525" 
d="M466 272h-90l-113 243l-113 -243h-91l163 335h82z" />
    <glyph glyph-name="underscore" unicode="_" horiz-adv-x="439" 
d="M437 -109h-435v44h435v-44z" />
    <glyph glyph-name="grave" unicode="`" horiz-adv-x="246" 
d="M218 508h-72l-119 127h119z" />
    <glyph glyph-name="a" unicode="a" 
d="M335 0q-5 45 -5 67h-2q-44 -77 -138 -77q-64 0 -109 35q-48 37 -48 98q0 153 227 153h64q0 53 -23 76q-23 21 -77 21q-76 0 -139 -49l-3 100q81 34 155 34q193 0 193 -189v-57q0 -95 7 -212h-102zM254 207q-109 0 -109 -78q0 -54 73 -54q53 0 81 39q25 36 25 93h-70z" />
    <glyph glyph-name="b" unicode="b" horiz-adv-x="535" 
d="M282 80q50 0 76 48q22 39 22 97q0 143 -96 143q-52 0 -81 -48q-24 -40 -24 -95q0 -52 23 -93q28 -52 80 -52zM175 0h-113v652h116v-262h2q45 67 134 67q96 -1 145 -68q43 -59 43 -158q0 -105 -41 -168q-48 -73 -147 -73q-86 0 -137 65h-2v-55z" />
    <glyph glyph-name="c" unicode="c" horiz-adv-x="390" 
d="M370 4q-43 -14 -116 -14q-105 0 -165 67q-56 64 -56 169q0 101 56 165q60 67 161 67q67 0 113 -15l-11 -92q-36 17 -79 17q-53 0 -86 -40q-32 -39 -32 -102q0 -64 30 -103q33 -43 91 -43q45 0 89 21z" />
    <glyph glyph-name="d" unicode="d" horiz-adv-x="535" 
d="M253 80q54 0 82 52q21 39 21 93q0 55 -25 96q-29 47 -80 47q-50 0 -75 -46q-21 -38 -21 -97q0 -54 19 -93q26 -52 79 -52zM473 0h-113v50h-2q-52 -60 -133 -60q-96 0 -147 68q-45 61 -45 161q0 105 41 166q48 73 147 73q85 0 134 -63h2v257h116v-652z" />
    <glyph glyph-name="e" unicode="e" 
d="M343 268q-4 102 -95 105q-96 -3 -103 -105h198zM421 25q-62 -35 -154 -35q-234 0 -234 232q0 103 52 167q56 69 156 69q118 0 169 -76q44 -64 44 -194h-309q4 -53 40 -83q34 -30 87 -30q75 0 149 45v-95z" />
    <glyph glyph-name="f" unicode="f" horiz-adv-x="342" 
d="M221 0h-116v362h-86v86h86v62q0 69 36 109q37 42 106 43q49 -2 85 -13l-9 -88q-20 11 -51 11q-51 0 -51 -69v-55h102v-86h-102v-362z" />
    <glyph glyph-name="g" unicode="g" horiz-adv-x="535" 
d="M357 229q0 136 -98 139q-53 -1 -80 -43q-24 -36 -24 -93q0 -54 25 -95q28 -47 74 -47q52 0 79 41q24 37 24 98zM473 43q0 -236 -236 -236q-75 0 -155 30l10 100q68 -37 130 -40q88 3 117 62q18 34 18 112h-2q-42 -71 -139 -71q-91 0 -139 67q-44 59 -44 153q0 96 43 161
q51 77 147 77q88 0 137 -71h2v61h111v-405z" />
    <glyph glyph-name="h" unicode="h" horiz-adv-x="535" 
d="M473 0h-116v239q0 61 -9 86q-17 43 -67 43q-53 0 -81 -52q-22 -41 -22 -97v-219h-116v652h116v-265h2q48 71 141 71q152 0 152 -176v-282z" />
    <glyph glyph-name="i" unicode="i" horiz-adv-x="246" 
d="M181 0h-116v448h116v-448zM181 529h-116v111h116v-111z" />
    <glyph glyph-name="j" unicode="j" horiz-adv-x="246" 
d="M181 -33q0 -155 -135 -160q-33 0 -57 7l4 83q46 1 59 18q13 15 13 68v465h116v-481zM181 529h-116v111h116v-111z" />
    <glyph glyph-name="k" unicode="k" 
d="M480 0h-148l-149 217h-2v-217h-116v652h116v-383h2l139 179h137l-167 -200z" />
    <glyph glyph-name="l" unicode="l" horiz-adv-x="246" 
d="M181 0h-116v652h116v-652z" />
    <glyph glyph-name="m" unicode="m" horiz-adv-x="777" 
d="M717 0h-116v276q0 92 -67 92q-87 0 -87 -151v-217h-117v276q0 42 -9 62q-15 30 -57 30q-87 0 -87 -151v-217h-117v448h109v-63h2q51 73 133 73q93 0 132 -79q40 79 140 79q141 0 141 -176v-282z" />
    <glyph glyph-name="n" unicode="n" horiz-adv-x="535" 
d="M473 0h-116v239q0 61 -9 86q-17 43 -67 43q-53 0 -81 -52q-22 -41 -22 -97v-219h-116v448h110v-61h2q54 71 143 71q156 0 156 -176v-282z" />
    <glyph glyph-name="o" unicode="o" horiz-adv-x="535" 
d="M441 58q-64 -67 -174 -68q-109 1 -173 68q-61 63 -61 163q0 109 67 174q65 63 167 63q104 0 169 -63q66 -64 66 -174q0 -101 -61 -163zM352 328q-30 39 -85 40q-53 -1 -84 -42q-28 -37 -28 -91q0 -68 26 -109q29 -46 86 -46q113 0 113 155q0 57 -28 93z" />
    <glyph glyph-name="p" unicode="p" horiz-adv-x="535" 
d="M178 -182h-116v630h111v-64h2q39 74 139 74q95 0 145 -68q43 -60 43 -159q0 -241 -191 -241q-75 0 -131 61h-2v-233zM282 80q50 0 76 48q22 39 22 97q0 143 -96 143q-52 0 -81 -48q-24 -40 -24 -95q0 -52 23 -93q28 -52 80 -52z" />
    <glyph glyph-name="q" unicode="q" horiz-adv-x="535" 
d="M473 -182h-116v233h-2q-53 -61 -131 -61q-95 0 -146 70q-45 61 -45 159q0 105 42 166q48 73 149 73q96 0 136 -74h2v64h111v-630zM253 80q54 0 82 52q21 39 21 93q0 55 -25 96q-29 47 -80 47q-50 0 -75 -46q-21 -38 -21 -97q0 -54 21 -94q26 -51 77 -51z" />
    <glyph glyph-name="r" unicode="r" horiz-adv-x="342" 
d="M181 0h-116v448h103v-102h2q4 37 37 71q37 40 85 41q20 0 36 -4v-117q-17 10 -52 10q-95 0 -95 -183v-164z" />
    <glyph glyph-name="s" unicode="s" horiz-adv-x="390" 
d="M328 354q-55 19 -104 19q-66 0 -69 -50q1 -27 65 -47q77 -23 107 -54t30 -86q0 -75 -58 -113q-49 -33 -129 -33q-69 0 -132 19l7 95q55 -29 114 -29q28 0 49 11q28 15 28 43q0 33 -32 46l-44 12q-35 10 -57 21q-70 35 -70 111q0 68 53 105q48 34 123 34q66 0 127 -17z
" />
    <glyph glyph-name="t" unicode="t" horiz-adv-x="342" 
d="M328 0q-33 -10 -86 -10q-142 0 -142 145v227h-86v86h86v89l117 37v-126h103v-86h-103v-214q0 -68 54 -68q34 0 53 12z" />
    <glyph glyph-name="u" unicode="u" horiz-adv-x="535" 
d="M473 0h-110v61h-2q-57 -71 -147 -71q-76 0 -116 51q-36 46 -36 124v283h116v-239q0 -129 76 -129q57 0 84 54q19 38 19 95v219h116v-448z" />
    <glyph glyph-name="v" unicode="v" 
d="M310 0h-132l-166 448h126l111 -326h2l107 326h117z" />
    <glyph glyph-name="w" unicode="w" horiz-adv-x="777" 
d="M628 0h-138l-97 342h-2l-95 -342h-133l-151 448h123l99 -332h2l90 332h136l97 -332h2l93 332h111z" />
    <glyph glyph-name="x" unicode="x" 
d="M477 0h-139l-100 167l-100 -167h-128l154 235l-139 213h138l88 -146l86 146h123l-134 -213z" />
    <glyph glyph-name="y" unicode="y" 
d="M281 -68q-49 -125 -159 -125q-42 0 -83 12l8 86q21 -8 60 -8q36 0 56 23q20 22 20 57l-171 471h128l108 -327h2l107 327h119z" />
    <glyph glyph-name="z" unicode="z" horiz-adv-x="439" 
d="M405 0h-372v95l227 262h-217v91h354v-96l-222 -262h230v-90z" />
    <glyph glyph-name="braceleft" unicode="{" horiz-adv-x="293" 
d="M283 -122h-65q-54 0 -90 30q-39 32 -39 88v147q0 87 -71 87v75q30 0 49 20q22 22 22 61v154q0 56 40 89q36 28 89 28h65v-70h-39q-27 0 -37 -18q-7 -13 -7 -45v-150q0 -54 -34 -82q-26 -21 -63 -23v-2q97 -10 97 -111v-145q0 -32 7 -45q10 -18 37 -18h39v-70z" />
    <glyph glyph-name="bar" unicode="|" horiz-adv-x="197" 
d="M144 -217h-91v869h91v-869z" />
    <glyph glyph-name="braceright" unicode="}" horiz-adv-x="293" 
d="M204 -4q0 -57 -39 -89q-35 -29 -89 -29h-65v70h39q27 0 36 17q7 13 7 46v145q0 56 34 87q27 24 64 24v2q-98 10 -98 105v150q0 34 -6 46q-9 17 -37 17h-39v70h65q55 0 90 -28q38 -32 38 -89v-154q0 -42 24 -63q20 -18 48 -18v-75q-72 0 -72 -87v-147z" />
    <glyph glyph-name="asciitilde" unicode="~" horiz-adv-x="525" 
d="M463 221q-41 -77 -99 -77q-45 0 -103 31q-59 30 -93 30q-47 0 -75 -62l-31 76q37 76 105 76q40 0 101 -30q62 -30 92 -30q35 0 72 62z" />
    <glyph glyph-name="uni007F" horiz-adv-x="500" 
 />
    <glyph glyph-name="nonbreakingspace" unicode="&#xa0;" horiz-adv-x="250" 
 />
    <glyph glyph-name="exclamdown" unicode="&#xa1;" horiz-adv-x="342" 
d="M237 -159h-133l18 428h96zM231 326h-122v122h122v-122z" />
    <glyph glyph-name="cent" unicode="&#xa2;" 
d="M300 368q-47 -6 -75 -44q-27 -39 -27 -98q0 -60 28 -100zM414 4q-45 -14 -117 -14q-33 0 -60 7l-24 -75h-50l28 90q-114 62 -114 214q0 102 56 166q59 66 160 66q13 0 35 -2l22 72h51l-24 -79q16 -2 29 -6l-10 -92q-17 9 -46 14l-84 -274q24 -11 53 -11q50 0 90 21z" />
    <glyph glyph-name="sterling" unicode="&#xa3;" 
d="M441 0h-392v90h76v191h-66v69h66v73q0 85 60 140q59 54 149 54q70 0 113 -15l-6 -95q-44 14 -84 14q-55 0 -85 -35q-25 -30 -25 -78v-58h128v-69h-128v-191h194v-90z" />
    <glyph glyph-name="currency" unicode="&#xa4;" 
d="M470 130l-52 -51l-50 50q-58 -39 -124 -39t-125 39l-50 -50l-51 51l50 51q-40 58 -40 124q0 68 40 124l-50 51l51 51l50 -50q58 40 125 40q66 0 124 -40l50 50l52 -51l-51 -51q40 -55 40 -123q0 -67 -40 -125zM159 217q34 -36 85 -37q51 1 85 37q33 35 35 88
q-1 54 -35 89q-34 34 -85 36q-51 -2 -85 -36q-34 -35 -35 -89q2 -53 35 -88z" />
    <glyph glyph-name="yen" unicode="&#xa5;" 
d="M430 128h-128v-128h-117v128h-127v69h127v43l-7 11h-120v70h87l-152 286h123l131 -268l134 268h114l-151 -286h86v-70h-122l-6 -11v-43h128v-69z" />
    <glyph glyph-name="brokenbar" unicode="&#xa6;" horiz-adv-x="197" 
d="M144 282h-91v305h91v-305zM144 -152h-91v304h91v-304z" />
    <glyph glyph-name="section" unicode="&#xa7;" 
d="M265 187q26 -10 42 -21q31 26 31 65q0 46 -92 78l-65 24q-31 -20 -31 -64q0 -38 62 -62zM78 6q80 -34 146 -34q88 0 88 60q0 23 -40 46q-8 5 -86 41q-127 59 -127 129q0 78 67 117q-61 40 -61 103q0 71 61 112q54 37 129 37q68 0 139 -17l-10 -95q-57 22 -124 22
q-83 0 -83 -59q0 -33 39 -50q16 -7 69 -26q45 -16 69 -29q75 -40 75 -114q0 -73 -65 -111q59 -35 59 -99q0 -74 -61 -118q-55 -39 -131 -39q-73 0 -160 25z" />
    <glyph glyph-name="dieresis" unicode="&#xa8;" horiz-adv-x="246" 
d="M263 529h-101v101h101v-101zM84 529h-101v101h101v-101z" />
    <glyph glyph-name="copyright" unicode="&#xa9;" horiz-adv-x="699" 
d="M507 126q65 68 66 177q-1 110 -65 178q-62 66 -158 66q-98 0 -161 -68t-63 -176q0 -107 65 -176q63 -68 159 -68q94 0 157 67zM514 253q-10 -63 -54 -99q-41 -33 -98 -33q-80 0 -130 54q-48 52 -48 131q0 82 47 133q48 52 129 52q130 0 151 -130h-69q-11 60 -82 60
q-43 0 -67 -32q-23 -31 -23 -82q0 -49 26 -83t66 -34q74 0 80 63h72zM572 82q-91 -90 -222 -92q-130 2 -222 92q-92 92 -92 221q0 131 91 223q92 91 223 91q132 0 223 -91q90 -91 90 -223q0 -130 -91 -221z" />
    <glyph glyph-name="ordfeminine" unicode="&#xaa;" horiz-adv-x="318" 
d="M216 341v36h-2q-20 -43 -82 -43q-41 0 -70 17q-36 21 -36 59q0 97 154 97h32q0 34 -16 47q-14 11 -47 11q-47 0 -91 -27v57q45 22 104 22q125 0 125 -115q0 -94 4 -161h-75zM160 461q-59 -7 -59 -46q0 -29 45 -29q67 0 67 75h-53z" />
    <glyph glyph-name="guillemotleft" unicode="&#xab;" 
d="M450 56h-109l-103 178l103 178h109l-95 -178zM257 56h-110l-102 178l102 178h110l-96 -178z" />
    <glyph glyph-name="logicalnot" unicode="&#xac;" horiz-adv-x="525" 
d="M483 94h-90v175h-351v91h441v-266z" />
    <glyph glyph-name="uni00AD" unicode="&#xad;" horiz-adv-x="293" 
d="M261 186h-229v96h229v-96z" />
    <glyph glyph-name="registered" unicode="&#xae;" horiz-adv-x="699" 
d="M572 82q-91 -90 -222 -92q-130 2 -222 92q-92 92 -92 221q0 131 91 223q92 91 223 91q132 0 223 -91q90 -91 90 -223q0 -130 -91 -221zM507 126q65 68 66 177q-1 110 -65 178q-62 66 -158 66q-98 0 -161 -68t-63 -176q0 -107 65 -176q63 -68 159 -68q94 0 157 67z
M494 130h-77l-83 148h-36v-148h-74v349h131q139 0 139 -104q0 -86 -92 -93zM359 335q60 0 60 46q0 40 -68 40h-53v-86h61z" />
    <glyph glyph-name="macron" unicode="&#xaf;" horiz-adv-x="246" 
d="M248 537h-250v70h250v-70z" />
    <glyph glyph-name="degree" unicode="&#xb0;" horiz-adv-x="352" 
d="M176 401q73 0 76 76q-3 74 -76 77q-77 -3 -77 -77q0 -34 21 -55q22 -21 56 -21zM175 338q-58 0 -98 41q-41 40 -41 98t41 99q40 41 98 41t99 -41t41 -99t-41 -98q-41 -41 -99 -41z" />
    <glyph glyph-name="plusminus" unicode="&#xb1;" horiz-adv-x="525" 
d="M483 235h-175v-116h-90v116h-176v90h176v115h90v-115h175v-90zM483 0h-441v90h441v-90z" />
    <glyph glyph-name="twosuperior" unicode="&#xb2;" horiz-adv-x="318" 
d="M291 245h-263v71q43 19 100 82q60 66 60 99q0 45 -53 45q-50 0 -91 -29l-6 75q55 29 117 29q134 0 134 -112q0 -53 -57 -114q-47 -49 -90 -69v-2h149v-75z" />
    <glyph glyph-name="threesuperior" unicode="&#xb3;" horiz-adv-x="318" 
d="M216 435q77 -9 77 -84q0 -57 -54 -87q-43 -24 -105 -24q-50 0 -109 15l4 72q50 -18 94 -18q66 0 69 45q-2 42 -63 42q-25 0 -49 -2v73q13 -1 51 -1q58 0 61 41q-2 40 -55 40q-58 0 -95 -22l-4 71q59 21 112 21t91 -19q47 -24 47 -71q0 -71 -72 -91v-1z" />
    <glyph glyph-name="acute" unicode="&#xb4;" horiz-adv-x="246" 
d="M99 508h-72l72 127h119z" />
    <glyph glyph-name="mu" unicode="&#xb5;" horiz-adv-x="535" 
d="M473 0h-110v61h-2q-30 -71 -97 -71q-56 0 -84 29h-2v-201h-116v630h116v-239q0 -129 76 -129q57 0 84 54q19 38 19 95v219h116v-448z" />
    <glyph glyph-name="paragraph" unicode="&#xb6;" horiz-adv-x="543" 
d="M467 -108h-90v645h-93v-645h-90v404q-190 5 -190 152q0 159 208 159h255v-715z" />
    <glyph glyph-name="periodcentered" unicode="&#xb7;" horiz-adv-x="246" 
d="M56 247q0 64 67 67q67 -3 67 -67q0 -29 -19 -48t-48 -19q-31 0 -50 20q-17 19 -17 47z" />
    <glyph glyph-name="cedilla" unicode="&#xb8;" horiz-adv-x="246" 
d="M112 -136q18 -5 33 -5q46 0 46 31t-34 31q-22 0 -40 -8l-13 23l51 64h55l-40 -46l1 -2q18 5 36 5q67 0 70 -60q-1 -45 -35 -69q-30 -21 -74 -21q-60 0 -101 18l18 47z" />
    <glyph glyph-name="onesuperior" unicode="&#xb9;" horiz-adv-x="318" 
d="M215 245h-90v278l-67 -51l-46 53l121 87h82v-367z" />
    <glyph glyph-name="ordmasculine" unicode="&#xba;" horiz-adv-x="349" 
d="M284 580q44 -39 45 -104q-1 -65 -45 -104q-43 -38 -109 -38q-67 0 -110 38q-45 39 -45 104q0 64 46 104q43 37 110 37q65 0 108 -37zM244 476q0 86 -66 89q-73 -3 -73 -89q0 -90 71 -90q68 0 68 90z" />
    <glyph glyph-name="guillemotright" unicode="&#xbb;" 
d="M146 56h-109l95 178l-95 178h109l103 -178zM340 56h-109l95 178l-95 178h109l103 -178z" />
    <glyph glyph-name="onequarter" unicode="&#xbc;" horiz-adv-x="729" 
d="M216 -19h-71l362 645h71zM222 245h-91v278l-66 -51l-46 53l121 87h82v-367zM572 138v149h-2l-99 -149h101zM662 0h-90v69h-175v74l157 224h108v-229h42v-69h-42v-69z" />
    <glyph glyph-name="onehalf" unicode="&#xbd;" horiz-adv-x="729" 
d="M190 -19h-72l363 645h71zM213 245h-90v278l-67 -52l-45 53l120 88h82v-367zM698 0h-262v71q39 17 98 80q62 67 62 101q0 45 -53 45q-51 0 -92 -29l-6 75q56 29 118 29q133 0 133 -112q0 -52 -56 -113q-47 -51 -91 -72h149v-75z" />
    <glyph glyph-name="threequarters" unicode="&#xbe;" horiz-adv-x="729" 
d="M226 -19h-71l362 645h72zM205 435q78 -9 78 -84q0 -58 -55 -87q-44 -24 -104 -24q-51 0 -110 15l5 72q48 -18 99 -18q25 0 45 11q23 13 24 34q-3 42 -69 42q-24 0 -48 -2v73q13 -1 50 -1q64 0 67 41q-2 40 -61 40q-57 0 -94 -22l-5 71q59 21 112 21q52 0 90 -18
q48 -24 48 -72q0 -71 -72 -91v-1zM582 138v149l-99 -149h99zM673 0h-91v69h-174v74l156 224h109v-229h42v-69h-42v-69z" />
    <glyph glyph-name="questiondown" unicode="&#xbf;" horiz-adv-x="439" 
d="M393 -141q-65 -28 -172 -28q-80 0 -134 36q-64 42 -64 119q0 44 25 80q17 24 43 55l40 46q40 52 40 103h106q0 -85 -63 -157q-64 -71 -64 -113q0 -41 35 -62q27 -17 65 -17q72 0 133 35zM284 326h-122v122h122v-122z" />
    <glyph glyph-name="Agrave" unicode="&#xc0;" horiz-adv-x="631" 
d="M401 235l-88 250h-2l-87 -250h177zM622 0h-135l-52 139h-246l-53 -139h-126l236 607h137zM411 645h-72l-119 127h119z" />
    <glyph glyph-name="Aacute" unicode="&#xc1;" horiz-adv-x="631" 
d="M401 235l-88 250h-2l-87 -250h177zM622 0h-135l-52 139h-246l-53 -139h-126l236 607h137zM292 645h-72l72 127h119z" />
    <glyph glyph-name="Acircumflex" unicode="&#xc2;" horiz-adv-x="631" 
d="M401 235l-88 250h-2l-87 -250h177zM622 0h-135l-52 139h-246l-53 -139h-126l236 607h137zM453 645h-77l-59 75l-61 -75h-78l96 127h88z" />
    <glyph glyph-name="Atilde" unicode="&#xc3;" horiz-adv-x="631" 
d="M401 235l-88 250h-2l-87 -250h177zM622 0h-135l-52 139h-246l-53 -139h-126l236 607h137zM469 771q0 -46 -21 -75q-23 -30 -64 -30q-34 0 -70.5 16t-63.5 16q-41 0 -42 -38h-47q2 41 25 72q26 33 64 33q26 0 70 -18t63 -18q39 0 39 42h47z" />
    <glyph glyph-name="Adieresis" unicode="&#xc4;" horiz-adv-x="631" 
d="M401 235l-88 250h-2l-87 -250h177zM622 0h-135l-52 139h-246l-53 -139h-126l236 607h137zM455 666h-101v101h101v-101zM276 666h-101v101h101v-101z" />
    <glyph glyph-name="Aring" unicode="&#xc5;" horiz-adv-x="631" 
d="M401 235l-88 250h-2l-87 -250h177zM622 0h-135l-52 139h-246l-53 -139h-126l236 607h137zM315 821q38 0 66 -27q27 -28 27 -66t-27 -65q-28 -27 -66 -27t-65 27t-27 65t27 66q27 27 65 27zM347 696q14 13 14 32t-14 32q-13 14 -32 14t-32 -14q-13 -13 -13 -32t13 -32
t32 -13t32 13z" />
    <glyph glyph-name="AE" unicode="&#xc6;" horiz-adv-x="825" 
d="M439 235l-20 281h-2l-150 -281h172zM779 0h-321l-10 139h-233l-75 -139h-130l332 607h433v-96h-235l12 -149h204v-96h-193l13 -170h203v-96z" />
    <glyph glyph-name="Ccedilla" unicode="&#xc7;" horiz-adv-x="535" 
d="M514 9q-66 -19 -138 -19h-12l-32 -36l2 -2q18 5 36 5q66 0 69 -60q-1 -45 -35 -69q-30 -21 -74 -21q-62 0 -100 18l17 47q38 -11 61 -13q46 0 46 31t-34 31q-22 0 -41 -8l-13 23l47 59q-270 26 -270 298q0 324 333 324q66 0 137 -25l-9 -103q-56 32 -131 32
q-94 0 -149 -63q-54 -61 -54 -156q0 -96 55 -155q57 -62 151 -62q81 0 133 25z" />
    <glyph glyph-name="Egrave" unicode="&#xc8;" 
d="M432 0h-360v607h358v-96h-236v-149h216v-96h-216v-170h238v-96zM339 645h-72l-119 127h119z" />
    <glyph glyph-name="Eacute" unicode="&#xc9;" 
d="M432 0h-360v607h358v-96h-236v-149h216v-96h-216v-170h238v-96zM220 645h-72l72 127h119z" />
    <glyph glyph-name="Ecircumflex" unicode="&#xca;" 
d="M432 0h-360v607h358v-96h-236v-149h216v-96h-216v-170h238v-96zM381 645h-77l-59 75l-61 -75h-78l96 127h88z" />
    <glyph glyph-name="Edieresis" unicode="&#xcb;" 
d="M432 0h-360v607h358v-96h-236v-149h216v-96h-216v-170h238v-96zM383 666h-101v101h101v-101zM204 666h-101v101h101v-101z" />
    <glyph glyph-name="Igrave" unicode="&#xcc;" horiz-adv-x="246" 
d="M184 0h-122v607h122v-607zM218 645h-72l-119 127h119z" />
    <glyph glyph-name="Iacute" unicode="&#xcd;" horiz-adv-x="246" 
d="M184 0h-122v607h122v-607zM99 645h-72l72 127h119z" />
    <glyph glyph-name="Icircumflex" unicode="&#xce;" horiz-adv-x="246" 
d="M184 0h-122v607h122v-607zM260 645h-77l-59 75l-61 -75h-78l96 127h88z" />
    <glyph glyph-name="Idieresis" unicode="&#xcf;" horiz-adv-x="246" 
d="M184 0h-122v607h122v-607zM263 666h-101v101h101v-101zM84 666h-101v101h101v-101z" />
    <glyph glyph-name="Eth" unicode="&#xd0;" horiz-adv-x="631" 
d="M72 0v292h-55v75h55v240h166q351 0 351 -304q0 -303 -351 -303h-166zM262 96q83 0 139 54q61 58 61 153q0 96 -61 154q-56 54 -139 54h-68v-144h127v-75h-127v-196h68z" />
    <glyph glyph-name="Ntilde" unicode="&#xd1;" horiz-adv-x="631" 
d="M565 0h-148l-233 454h-1v-454h-117v607h150l231 -454h2v454h116v-607zM469 771q0 -46 -21 -75q-23 -30 -64 -30q-34 0 -70.5 16t-63.5 16q-41 0 -42 -38h-47q2 41 25 72q26 33 64 33q26 0 70 -18t63 -18q39 0 39 42h47z" />
    <glyph glyph-name="Ograve" unicode="&#xd2;" horiz-adv-x="680" 
d="M560 77q-79 -86 -220 -87q-143 1 -221 88q-76 83 -76 227t76 227q79 85 221 85t221 -86q76 -83 76 -226q0 -144 -77 -228zM471 454q-45 66 -131 67q-84 -1 -130 -68q-40 -59 -40 -148q0 -92 39 -151q46 -69 131 -69q86 0 131 68q39 59 39 152q0 91 -39 149zM435 645h-72
l-119 127h119z" />
    <glyph glyph-name="Oacute" unicode="&#xd3;" horiz-adv-x="680" 
d="M560 77q-79 -86 -220 -87q-143 1 -221 88q-76 83 -76 227t76 227q79 85 221 85t221 -86q76 -83 76 -226q0 -144 -77 -228zM471 454q-45 66 -131 67q-84 -1 -130 -68q-40 -59 -40 -148q0 -92 39 -151q46 -69 131 -69q86 0 131 68q39 59 39 152q0 91 -39 149zM316 645h-72
l72 127h119z" />
    <glyph glyph-name="Ocircumflex" unicode="&#xd4;" horiz-adv-x="680" 
d="M560 77q-79 -86 -220 -87q-143 1 -221 88q-76 83 -76 227t76 227q79 85 221 85t221 -86q76 -83 76 -226q0 -144 -77 -228zM471 454q-45 66 -131 67q-84 -1 -130 -68q-40 -59 -40 -148q0 -92 39 -151q46 -69 131 -69q86 0 131 68q39 59 39 152q0 91 -39 149zM477 645h-77
l-59 75l-61 -75h-78l96 127h88z" />
    <glyph glyph-name="Otilde" unicode="&#xd5;" horiz-adv-x="680" 
d="M560 77q-79 -86 -220 -87q-143 1 -221 88q-76 83 -76 227t76 227q79 85 221 85t221 -86q76 -83 76 -226q0 -144 -77 -228zM471 454q-45 66 -131 67q-84 -1 -130 -68q-40 -59 -40 -148q0 -92 39 -151q46 -69 131 -69q86 0 131 68q39 59 39 152q0 91 -39 149zM494 771
q0 -46 -21 -75q-23 -30 -64 -30q-34 0 -70.5 16t-63.5 16q-41 0 -42 -38h-47q2 41 25 72q26 33 64 33q26 0 70 -18t63 -18q39 0 39 42h47z" />
    <glyph glyph-name="Odieresis" unicode="&#xd6;" horiz-adv-x="680" 
d="M560 77q-79 -86 -220 -87q-143 1 -221 88q-76 83 -76 227t76 227q79 85 221 85t221 -86q76 -83 76 -226q0 -144 -77 -228zM471 454q-45 66 -131 67q-84 -1 -130 -68q-40 -59 -40 -148q0 -92 39 -151q46 -69 131 -69q86 0 131 68q39 59 39 152q0 91 -39 149zM480 666h-101
v101h101v-101zM301 666h-101v101h101v-101z" />
    <glyph glyph-name="multiply" unicode="&#xd7;" horiz-adv-x="525" 
d="M466 79l-63 -62l-140 141l-141 -141l-63 62l141 141l-141 141l63 62l141 -141l140 141l63 -62l-142 -141z" />
    <glyph glyph-name="Oslash" unicode="&#xd8;" horiz-adv-x="680" 
d="M444 483q-40 38 -104 38q-83 0 -130 -68q-40 -59 -40 -148q0 -76 30 -136zM231 127q44 -42 109 -42q86 0 131 68q39 59 39 152q0 78 -34 137zM113 -25l-39 31l51 66q-82 83 -82 233q0 144 76 227q79 85 221 85q101 0 172 -46l47 61l39 -32l-47 -61q86 -86 86 -234
q0 -144 -76 -228q-79 -87 -221 -87q-109 0 -177 49z" />
    <glyph glyph-name="Ugrave" unicode="&#xd9;" horiz-adv-x="631" 
d="M563 219q0 -229 -238 -229q-257 0 -257 229v388h122v-351q0 -171 126 -171t126 171v351h121v-388zM411 645h-72l-119 127h119z" />
    <glyph glyph-name="Uacute" unicode="&#xda;" horiz-adv-x="631" 
d="M563 219q0 -229 -238 -229q-257 0 -257 229v388h122v-351q0 -171 126 -171t126 171v351h121v-388zM292 645h-72l72 127h119z" />
    <glyph glyph-name="Ucircumflex" unicode="&#xdb;" horiz-adv-x="631" 
d="M563 219q0 -229 -238 -229q-257 0 -257 229v388h122v-351q0 -171 126 -171t126 171v351h121v-388zM453 645h-77l-59 75l-61 -75h-78l96 127h88z" />
    <glyph glyph-name="Udieresis" unicode="&#xdc;" horiz-adv-x="631" 
d="M563 219q0 -229 -238 -229q-257 0 -257 229v388h122v-351q0 -171 126 -171t126 171v351h121v-388zM455 666h-101v101h101v-101zM276 666h-101v101h101v-101z" />
    <glyph glyph-name="Yacute" unicode="&#xdd;" horiz-adv-x="584" 
d="M355 0h-122v240l-221 367h142l143 -255l146 255h129l-217 -367v-240zM268 645h-72l72 127h119z" />
    <glyph glyph-name="Thorn" unicode="&#xde;" 
d="M184 0h-122v607h122v-101h32q253 0 253 -184q0 -193 -234 -193h-51v-129zM226 225q116 0 116 90q0 95 -116 95h-42v-185h42z" />
    <glyph glyph-name="germandbls" unicode="&#xdf;" horiz-adv-x="535" 
d="M181 0h-116v439q0 102 53 161q56 62 160 62q80 0 136 -40q62 -45 62 -120q0 -121 -116 -154v-1q67 -9 107 -54q40 -44 40 -106q0 -89 -57 -141q-54 -51 -144 -51q-43 0 -78 9l3 91q21 -10 61 -10q93 0 93 114q0 98 -136 98v91q105 0 105 94q0 87 -77 90q-48 -1 -74 -40
q-22 -34 -22 -84v-448z" />
    <glyph glyph-name="agrave" unicode="&#xe0;" 
d="M335 0q-5 45 -5 67h-2q-44 -77 -138 -77q-64 0 -109 35q-48 37 -48 98q0 153 227 153h64q0 53 -23 76q-23 21 -77 21q-76 0 -139 -49l-3 100q81 34 155 34q193 0 193 -189v-57q0 -95 7 -212h-102zM254 207q-109 0 -109 -78q0 -54 73 -54q53 0 81 39q25 36 25 93h-70z
M339 508h-72l-119 127h119z" />
    <glyph glyph-name="aacute" unicode="&#xe1;" 
d="M335 0q-5 45 -5 67h-2q-44 -77 -138 -77q-64 0 -109 35q-48 37 -48 98q0 153 227 153h64q0 53 -23 76q-23 21 -77 21q-76 0 -139 -49l-3 100q81 34 155 34q193 0 193 -189v-57q0 -95 7 -212h-102zM254 207q-109 0 -109 -78q0 -54 73 -54q53 0 81 39q25 36 25 93h-70z
M220 508h-72l72 127h119z" />
    <glyph glyph-name="acircumflex" unicode="&#xe2;" 
d="M335 0q-5 45 -5 67h-2q-44 -77 -138 -77q-64 0 -109 35q-48 37 -48 98q0 153 227 153h64q0 53 -23 76q-23 21 -77 21q-76 0 -139 -49l-3 100q81 34 155 34q193 0 193 -189v-57q0 -95 7 -212h-102zM254 207q-109 0 -109 -78q0 -54 73 -54q53 0 81 39q25 36 25 93h-70z
M381 508h-77l-59 75l-61 -75h-78l96 127h88z" />
    <glyph glyph-name="atilde" unicode="&#xe3;" 
d="M335 0q-5 45 -5 67h-2q-44 -77 -138 -77q-64 0 -109 35q-48 37 -48 98q0 153 227 153h64q0 53 -23 76q-23 21 -77 21q-76 0 -139 -49l-3 100q81 34 155 34q193 0 193 -189v-57q0 -95 7 -212h-102zM254 207q-109 0 -109 -78q0 -54 73 -54q53 0 81 39q25 36 25 93h-70z
M397 635q0 -46 -21 -75q-23 -30 -64 -30q-34 0 -70.5 16t-63.5 16q-41 0 -42 -38h-47q2 41 25 72q26 33 64 33q26 0 70 -18t63 -18q39 0 39 42h47z" />
    <glyph glyph-name="adieresis" unicode="&#xe4;" 
d="M335 0q-5 45 -5 67h-2q-44 -77 -138 -77q-64 0 -109 35q-48 37 -48 98q0 153 227 153h64q0 53 -23 76q-23 21 -77 21q-76 0 -139 -49l-3 100q81 34 155 34q193 0 193 -189v-57q0 -95 7 -212h-102zM254 207q-109 0 -109 -78q0 -54 73 -54q53 0 81 39q25 36 25 93h-70z
M383 529h-101v101h101v-101zM204 529h-101v101h101v-101z" />
    <glyph glyph-name="aring" unicode="&#xe5;" 
d="M335 0q-5 45 -5 67h-2q-44 -77 -138 -77q-64 0 -109 35q-48 37 -48 98q0 153 227 153h64q0 53 -23 76q-23 21 -77 21q-76 0 -139 -49l-3 100q81 34 155 34q193 0 193 -189v-57q0 -95 7 -212h-102zM254 207q-109 0 -109 -78q0 -54 73 -54q53 0 81 39q25 36 25 93h-70z
M243 688q38 0 66 -27q27 -28 27 -66t-27 -65q-28 -27 -66 -27t-65 27t-27 65t27 66q27 27 65 27zM275 563q14 13 14 32t-14 32q-13 14 -32 14t-32 -14q-13 -13 -13 -32t13 -32t32 -13t32 13z" />
    <glyph glyph-name="ae" unicode="&#xe6;" horiz-adv-x="777" 
d="M632 268q0 102 -91 105q-49 -1 -78 -31q-27 -28 -27 -74h196zM713 25q-62 -35 -154 -35q-130 0 -188 80q-49 -80 -161 -80q-177 0 -177 133q0 153 224 153h67q0 53 -23 75q-24 23 -80 23q-73 0 -138 -50l-4 100q79 34 159 34q107 0 152 -57q51 57 153 57q200 -1 200 -270
h-307q1 -53 37 -83q34 -30 91 -30q75 0 149 45v-95zM274 207q-129 0 -129 -84q0 -20 18 -34t48 -14q113 0 113 132h-50z" />
    <glyph glyph-name="ccedilla" unicode="&#xe7;" horiz-adv-x="390" 
d="M370 4q-37 -12 -96 -14l-32 -36l2 -2q17 5 35 5q67 0 70 -60q-1 -45 -35 -69q-30 -21 -74 -21q-60 0 -101 18l18 47q29 -13 61 -13q46 0 46 31t-35 31q-22 0 -40 -8l-13 23l45 56q-91 12 -140 75q-48 61 -48 159q0 101 56 165q60 67 161 67q67 0 113 -15l-11 -92
q-36 17 -79 17q-53 0 -86 -40q-32 -39 -32 -102q0 -64 30 -103q33 -43 91 -43q45 0 89 21z" />
    <glyph glyph-name="egrave" unicode="&#xe8;" 
d="M343 268q-4 102 -95 105q-96 -3 -103 -105h198zM421 25q-62 -35 -154 -35q-234 0 -234 232q0 103 52 167q56 69 156 69q118 0 169 -76q44 -64 44 -194h-309q4 -53 40 -83q34 -30 87 -30q75 0 149 45v-95zM339 508h-72l-119 127h119z" />
    <glyph glyph-name="eacute" unicode="&#xe9;" 
d="M343 268q-4 102 -95 105q-96 -3 -103 -105h198zM421 25q-62 -35 -154 -35q-234 0 -234 232q0 103 52 167q56 69 156 69q118 0 169 -76q44 -64 44 -194h-309q4 -53 40 -83q34 -30 87 -30q75 0 149 45v-95zM220 508h-72l72 127h119z" />
    <glyph glyph-name="ecircumflex" unicode="&#xea;" 
d="M343 268q-4 102 -95 105q-96 -3 -103 -105h198zM421 25q-62 -35 -154 -35q-234 0 -234 232q0 103 52 167q56 69 156 69q118 0 169 -76q44 -64 44 -194h-309q4 -53 40 -83q34 -30 87 -30q75 0 149 45v-95zM381 508h-77l-59 75l-61 -75h-78l96 127h88z" />
    <glyph glyph-name="edieresis" unicode="&#xeb;" 
d="M343 268q-4 102 -95 105q-96 -3 -103 -105h198zM421 25q-62 -35 -154 -35q-234 0 -234 232q0 103 52 167q56 69 156 69q118 0 169 -76q44 -64 44 -194h-309q4 -53 40 -83q34 -30 87 -30q75 0 149 45v-95zM383 529h-101v101h101v-101zM204 529h-101v101h101v-101z" />
    <glyph glyph-name="igrave" unicode="&#xec;" horiz-adv-x="242" 
d="M179 0h-116v448h116v-448zM218 508h-72l-119 127h119z" />
    <glyph glyph-name="iacute" unicode="&#xed;" horiz-adv-x="242" 
d="M179 0h-116v448h116v-448zM99 508h-72l72 127h119z" />
    <glyph glyph-name="icircumflex" unicode="&#xee;" horiz-adv-x="242" 
d="M179 0h-116v448h116v-448zM260 508h-77l-59 75l-61 -75h-78l96 127h88z" />
    <glyph glyph-name="idieresis" unicode="&#xef;" horiz-adv-x="242" 
d="M179 0h-116v448h116v-448zM263 529h-101v101h101v-101zM84 529h-101v101h101v-101z" />
    <glyph glyph-name="eth" unicode="&#xf0;" horiz-adv-x="535" 
d="M268 80q109 0 109 138q0 54 -24 92q-30 47 -84 47t-86 -46q-28 -40 -28 -93t26 -91q31 -47 87 -47zM344 420q-33 63 -92 107l-80 -52l-44 41l72 47q-46 28 -86 42l53 59q56 -20 110 -51l80 51l45 -41l-72 -46q169 -124 169 -335q0 -117 -56 -182q-59 -70 -176 -70
q-109 0 -173 67q-61 64 -61 164q0 96 52 159q56 68 151 68q65 0 107 -28h1z" />
    <glyph glyph-name="ntilde" unicode="&#xf1;" horiz-adv-x="535" 
d="M473 0h-116v239q0 61 -9 86q-17 43 -67 43q-53 0 -81 -52q-22 -41 -22 -97v-219h-116v448h110v-61h2q54 71 143 71q156 0 156 -176v-282zM421 635q0 -46 -21 -75q-23 -30 -64 -30q-34 0 -70.5 16t-63.5 16q-41 0 -42 -38h-47q2 41 25 72q26 33 64 33q26 0 70 -18t63 -18
q39 0 39 42h47z" />
    <glyph glyph-name="ograve" unicode="&#xf2;" horiz-adv-x="535" 
d="M441 58q-64 -67 -174 -68q-109 1 -173 68q-61 63 -61 163q0 109 67 174q65 63 167 63q104 0 169 -63q66 -64 66 -174q0 -101 -61 -163zM352 328q-30 39 -85 40q-53 -1 -84 -42q-28 -37 -28 -91q0 -68 26 -109q29 -46 86 -46q113 0 113 155q0 57 -28 93zM363 508h-72
l-119 127h119z" />
    <glyph glyph-name="oacute" unicode="&#xf3;" horiz-adv-x="535" 
d="M441 58q-64 -67 -174 -68q-109 1 -173 68q-61 63 -61 163q0 109 67 174q65 63 167 63q104 0 169 -63q66 -64 66 -174q0 -101 -61 -163zM352 328q-30 39 -85 40q-53 -1 -84 -42q-28 -37 -28 -91q0 -68 26 -109q29 -46 86 -46q113 0 113 155q0 57 -28 93zM244 508h-72
l72 127h119z" />
    <glyph glyph-name="ocircumflex" unicode="&#xf4;" horiz-adv-x="535" 
d="M441 58q-64 -67 -174 -68q-109 1 -173 68q-61 63 -61 163q0 109 67 174q65 63 167 63q104 0 169 -63q66 -64 66 -174q0 -101 -61 -163zM352 328q-30 39 -85 40q-53 -1 -84 -42q-28 -37 -28 -91q0 -68 26 -109q29 -46 86 -46q113 0 113 155q0 57 -28 93zM405 508h-77
l-59 75l-61 -75h-78l96 127h88z" />
    <glyph glyph-name="otilde" unicode="&#xf5;" horiz-adv-x="535" 
d="M441 58q-64 -67 -174 -68q-109 1 -173 68q-61 63 -61 163q0 109 67 174q65 63 167 63q104 0 169 -63q66 -64 66 -174q0 -101 -61 -163zM352 328q-30 39 -85 40q-53 -1 -84 -42q-28 -37 -28 -91q0 -68 26 -109q29 -46 86 -46q113 0 113 155q0 57 -28 93zM421 635
q0 -46 -21 -75q-23 -30 -64 -30q-34 0 -70.5 16t-63.5 16q-41 0 -42 -38h-47q2 41 25 72q26 33 64 33q26 0 70 -18t63 -18q39 0 39 42h47z" />
    <glyph glyph-name="odieresis" unicode="&#xf6;" horiz-adv-x="535" 
d="M441 58q-64 -67 -174 -68q-109 1 -173 68q-61 63 -61 163q0 109 67 174q65 63 167 63q104 0 169 -63q66 -64 66 -174q0 -101 -61 -163zM352 328q-30 39 -85 40q-53 -1 -84 -42q-28 -37 -28 -91q0 -68 26 -109q29 -46 86 -46q113 0 113 155q0 57 -28 93zM407 529h-101v101
h101v-101zM228 529h-101v101h101v-101z" />
    <glyph glyph-name="divide" unicode="&#xf7;" horiz-adv-x="525" 
d="M483 175h-441v90h441v-90zM330 47q0 -64 -67 -67q-67 3 -67 67t67 67q67 -3 67 -67zM330 393q0 -64 -67 -67q-67 3 -67 67t67 67q67 -3 67 -67z" />
    <glyph glyph-name="oslash" unicode="&#xf8;" horiz-adv-x="535" 
d="M336 344q-25 23 -69 24q-53 -1 -84 -42q-28 -37 -28 -91q0 -50 16 -89zM197 106q26 -26 70 -26q113 0 113 155q0 41 -16 73zM83 -30l-36 28l49 58q-63 65 -63 165q0 109 67 174q65 63 167 63q75 0 134 -37l47 57l35 -29l-47 -56q66 -64 66 -172q0 -100 -61 -163
q-64 -68 -174 -68q-81 0 -136 37z" />
    <glyph glyph-name="ugrave" unicode="&#xf9;" horiz-adv-x="535" 
d="M473 0h-110v61h-2q-57 -71 -147 -71q-76 0 -116 51q-36 46 -36 124v283h116v-239q0 -129 76 -129q57 0 84 54q19 38 19 95v219h116v-448zM363 508h-72l-119 127h119z" />
    <glyph glyph-name="uacute" unicode="&#xfa;" horiz-adv-x="535" 
d="M473 0h-110v61h-2q-57 -71 -147 -71q-76 0 -116 51q-36 46 -36 124v283h116v-239q0 -129 76 -129q57 0 84 54q19 38 19 95v219h116v-448zM244 508h-72l72 127h119z" />
    <glyph glyph-name="ucircumflex" unicode="&#xfb;" horiz-adv-x="535" 
d="M473 0h-110v61h-2q-57 -71 -147 -71q-76 0 -116 51q-36 46 -36 124v283h116v-239q0 -129 76 -129q57 0 84 54q19 38 19 95v219h116v-448zM405 508h-77l-59 75l-61 -75h-78l96 127h88z" />
    <glyph glyph-name="udieresis" unicode="&#xfc;" horiz-adv-x="535" 
d="M473 0h-110v61h-2q-57 -71 -147 -71q-76 0 -116 51q-36 46 -36 124v283h116v-239q0 -129 76 -129q57 0 84 54q19 38 19 95v219h116v-448zM407 529h-101v101h101v-101zM228 529h-101v101h101v-101z" />
    <glyph glyph-name="yacute" unicode="&#xfd;" 
d="M281 -68q-49 -125 -159 -125q-42 0 -83 12l8 86q21 -8 60 -8q36 0 56 23q20 22 20 57l-171 471h128l108 -327h2l107 327h119zM220 508h-72l72 127h119z" />
    <glyph glyph-name="thorn" unicode="&#xfe;" horiz-adv-x="535" 
d="M178 -182h-116v834h116v-263h2q39 67 134 67q96 0 145 -67q43 -59 43 -158q0 -105 -41 -168q-48 -73 -147 -73q-85 0 -134 60h-2v-232zM282 80q50 0 76 48q22 39 22 97q0 143 -96 143q-52 0 -81 -48q-24 -40 -24 -95q0 -52 23 -93q28 -52 80 -52z" />
    <glyph glyph-name="ydieresis" unicode="&#xff;" 
d="M281 -68q-49 -125 -159 -125q-42 0 -83 12l8 86q21 -8 60 -8q36 0 56 23q20 22 20 57l-171 471h128l108 -327h2l107 327h119zM383 529h-101v101h101v-101zM204 529h-101v101h101v-101z" />
    <glyph glyph-name="dotlessi" unicode="&#x131;" horiz-adv-x="242" 
d="M179 0h-116v448h116v-448z" />
    <glyph glyph-name="Lslash" unicode="&#x141;" horiz-adv-x="435" 
d="M428 0h-358v211l-63 -38v80l63 38v316h122v-244l146 87v-80l-146 -87v-187h236v-96z" />
    <glyph glyph-name="lslash" unicode="&#x142;" horiz-adv-x="242" 
d="M179 0h-116v255l-63 -38v80l63 38v317h116v-248l63 37v-79l-63 -38v-324z" />
    <glyph glyph-name="OE" unicode="&#x152;" horiz-adv-x="824" 
d="M428 511q-19 3 -64 5q-94 -1 -145 -60q-49 -57 -49 -156q0 -94 50 -151q53 -59 147 -59q37 0 61 6v415zM779 0h-230q-32 0 -97 -2q-65 -3 -98 -3q-311 0 -311 305q0 312 327 312q29 0 89 -2q60 -3 90 -3h226v-96h-226v-149h207v-96h-207v-170h230v-96z" />
    <glyph glyph-name="oe" unicode="&#x153;" horiz-adv-x="824" 
d="M267 75q116 0 116 147q0 151 -116 151q-55 0 -86 -49q-26 -42 -26 -101q0 -148 112 -148zM760 24q-63 -34 -140 -34q-132 0 -182 73q-55 -73 -164 -73q-112 0 -178 66q-63 64 -63 165q0 108 67 174q65 63 167 63q107 0 167 -77q51 77 156 77q201 0 201 -270h-292
q6 -113 124 -113q74 0 133 44zM680 268q-4 102 -89 105q-44 -1 -69 -33q-23 -28 -23 -72h181z" />
    <glyph glyph-name="Scaron" unicode="&#x160;" 
d="M313 342q132 -56 132 -169q0 -93 -67 -141q-60 -42 -160 -42q-62 0 -156 23l11 110q68 -38 138 -38q40 0 71 18q36 22 36 60q0 43 -41 64q-17 9 -72 32q-48 20 -73 36q-80 50 -80 137q0 94 65 142q56 43 147 43q80 0 146 -22l-12 -100q-60 26 -123 26q-96 0 -96 -84
q0 -39 86 -75zM290 645h-88l-96 127h78l61 -74l59 74h77z" />
    <glyph glyph-name="scaron" unicode="&#x161;" horiz-adv-x="390" 
d="M328 354q-55 19 -104 19q-66 0 -69 -50q1 -27 65 -47q77 -23 107 -54t30 -86q0 -75 -58 -113q-49 -33 -129 -33q-69 0 -132 19l7 95q55 -29 114 -29q28 0 49 11q28 15 28 43q0 33 -32 46l-44 12q-35 10 -57 21q-70 35 -70 111q0 68 53 105q48 34 123 34q66 0 127 -17z
M241 508h-88l-96 127h78l61 -74l59 74h77z" />
    <glyph glyph-name="Ydieresis" unicode="&#x178;" horiz-adv-x="584" 
d="M355 0h-122v240l-221 367h142l143 -255l146 255h129l-217 -367v-240zM432 688h-101v101h101v-101zM253 688h-101v101h101v-101z" />
    <glyph glyph-name="Zcaron" unicode="&#x17d;" 
d="M454 0h-421v99l285 412h-273v96h403v-100l-288 -411h294v-96zM290 645h-88l-96 127h78l61 -74l59 74h77z" />
    <glyph glyph-name="zcaron" unicode="&#x17e;" horiz-adv-x="439" 
d="M405 0h-372v95l227 262h-217v91h354v-96l-222 -262h230v-90zM266 508h-88l-96 127h78l61 -74l59 74h77z" />
    <glyph glyph-name="florin" unicode="&#x192;" 
d="M262 -3q-15 -82 -41 -123q-42 -67 -122 -67q-57 0 -90 9l17 86q25 -5 46 -5q51 0 62 80l61 306h-98l13 70h99l27 121q17 73 53 106q39 37 115 37q36 0 73 -8l-15 -92q-37 10 -51 10q-46 0 -61 -72l-21 -102h105l-11 -70h-108z" />
    <glyph glyph-name="circumflex" unicode="&#x2c6;" horiz-adv-x="246" 
d="M260 508h-77l-59 75l-61 -75h-78l96 127h88z" />
    <glyph glyph-name="caron" unicode="&#x2c7;" horiz-adv-x="242" 
d="M167 508h-88l-96 127h78l61 -74l59 74h77z" />
    <glyph glyph-name="breve" unicode="&#x2d8;" horiz-adv-x="242" 
d="M262 634q-4 -59 -45 -96q-39 -36 -97 -36q-57 0 -96 36q-41 37 -45 96h54q17 -69 87 -69t89 69h53z" />
    <glyph glyph-name="dotaccent" unicode="&#x2d9;" horiz-adv-x="242" 
d="M171 529h-101v101h101v-101z" />
    <glyph glyph-name="ring" unicode="&#x2da;" horiz-adv-x="242" 
d="M121 688q38 0 66 -27q27 -28 27 -66t-27 -65q-28 -27 -66 -27t-65 27t-27 65t27 66q27 27 65 27zM153 563q14 13 14 32t-14 32q-13 14 -32 14t-32 -14q-13 -13 -13 -32t13 -32t32 -13t32 13z" />
    <glyph glyph-name="ogonek" unicode="&#x2db;" horiz-adv-x="242" 
d="M247 -124q-30 -69 -109 -69q-85 0 -85 78q0 65 104 115h43q-72 -57 -72 -107q0 -39 35 -39q29 2 49 29z" />
    <glyph glyph-name="tilde" unicode="&#x2dc;" horiz-adv-x="246" 
d="M277 635q0 -46 -21 -75q-23 -30 -64 -30q-34 0 -70.5 16t-63.5 16q-41 0 -42 -38h-47q2 41 25 72q26 33 64 33q26 0 70 -18t63 -18q39 0 39 42h47z" />
    <glyph glyph-name="hungarumlaut" unicode="&#x2dd;" horiz-adv-x="242" 
d="M182 508h-72l72 127h120zM11 507h-72l72 127h119z" />
    <glyph glyph-name="Omega" unicode="&#x3a9;" horiz-adv-x="658" 
d="M607 0h-237v163q67 14 104 66q35 49 35 119q0 81 -51 136q-53 57 -134 57t-134 -57q-52 -56 -52 -138q0 -148 137 -183v-163h-235v79h159v41q-159 51 -159 233q0 118 83 197q81 77 200 77q120 0 201 -75q83 -77 83 -197q0 -84 -40 -146q-43 -67 -120 -89v-41h160v-79z
" />
    <glyph glyph-name="pi" unicode="&#x3c0;" horiz-adv-x="512" 
d="M492 11q-37 -17 -72 -17q-53 0 -73 33q-14 24 -14 80v229h-184v-336h-87v336h-61v84h488v-84h-68v-220q0 -47 33 -47q17 0 38 8v-66z" />
    <glyph glyph-name="uni0E00" unicode="&#xe00;" horiz-adv-x="195" 
 />
    <glyph glyph-name="uni0E01" unicode="&#xe01;" horiz-adv-x="531" 
d="M493 0h-120v327q0 48 -29 75q-28 27 -76 27q-77 0 -114 -56l56 -72q-42 -28 -42 -77v-224h-120v215q0 53 42 89q1 0 -59 66q20 64 84 106q67 46 153 46q96 0 161 -54q64 -55 64 -137v-331z" />
    <glyph glyph-name="uni0E02" unicode="&#xe02;" horiz-adv-x="491" 
d="M453 187q0 -194 -205 -194q-102 0 -158 51q-53 48 -53 128v57q0 46 42 94q51 58 57 73v4q0 13 -14 13h-84v98h108q49 0 78 -27q26 -26 26 -67v-17q0 -34 -46 -87q-47 -53 -47 -84v-45q0 -98 91 -98q85 0 85 100v325h120v-324z" />
    <glyph glyph-name="uni0E03" unicode="&#xe03;" horiz-adv-x="498" 
d="M460 187q0 -194 -206 -194q-102 0 -159 51q-53 48 -53 128v65q0 40 45 88q51 53 56 72v15q0 10 -12 10q-15 0 -26 -26l-83 37v84l71 -36q30 35 69 35q43 0 69 -27q25 -26 25 -67v-15q0 -43 -47 -94t-47 -77v-52q0 -98 92 -98q86 0 86 100v325h120v-324z" />
    <glyph glyph-name="uni0E04" unicode="&#xe04;" horiz-adv-x="542" 
d="M504 0h-120v331q0 98 -113 98q-51 0 -82 -25q-31 -27 -31 -73v-94h2q32 38 77 38h79v-100h-92q-28 0 -47 -19q-19 -18 -19 -46v-110h-120v331q0 86 64 138q64 53 169 53q104 0 169 -53q64 -53 64 -138v-331z" />
    <glyph glyph-name="uni0E05" unicode="&#xe05;" horiz-adv-x="552" 
d="M514 0h-120v369q0 44 -36 58l-78 -53l-85 53q-37 -13 -37 -58v-132h2q32 38 77 38h79v-100h-92q-28 0 -47 -19q-19 -18 -19 -46v-110h-120v352q0 149 148 177l93 -66q87 65 87 66q70 -13 109 -60q39 -46 39 -117v-352z" />
    <glyph glyph-name="uni0E06" unicode="&#xe06;" horiz-adv-x="551" 
d="M513 198q0 -96 -52 -150q-53 -55 -146 -55q-74 0 -125 67v-60h-122v237q0 40 43 88q49 54 54 72v15q0 10 -12 10q-15 0 -26 -26l-83 37v84l71 -36q30 35 69 35q43 0 69 -27q25 -26 25 -67v-15q0 -43 -45 -94t-45 -77v-62q40 -87 109 -87q96 0 96 111v314h120v-314z" />
    <glyph glyph-name="uni0E07" unicode="&#xe07;" horiz-adv-x="522" 
d="M263 95q45 0 75 49q31 51 31 129q0 150 -93 150q-40 0 -65 -12l-3 97q42 14 81 14q88 0 144 -66q57 -68 57 -183q0 -124 -67 -200q-66 -73 -169 -73h-105l-147 519h124l120 -424h17z" />
    <glyph glyph-name="uni0E08" unicode="&#xe08;" horiz-adv-x="516" 
d="M259 94q45 2 74 46q32 48 32 123q0 163 -131 163q-86 0 -162 -78l-49 83q91 91 211 91q119 0 185 -68q65 -69 65 -191q0 -115 -65 -189q-66 -74 -170 -74h-85l-44 183q-5 20 -24 20h-38v97h70q77 0 97 -75z" />
    <glyph glyph-name="uni0E09" unicode="&#xe09;" horiz-adv-x="531" 
d="M493 0h-120v59q-41 -66 -133 -66q-83 0 -130 46q-45 44 -45 115v26q0 12 -10 12h-31v101h73q38 0 62 -25q24 -24 24 -62v-41q0 -79 74 -79q38 0 71 26q33 25 45 64v108q0 140 -121 140q-104 0 -180 -74l-49 81q93 91 224 91q117 0 182 -62q64 -60 64 -167v-293z" />
    <glyph glyph-name="uni0E0A" unicode="&#xe0a;" horiz-adv-x="493" 
d="M455 187q0 -194 -207 -194q-102 0 -158 51q-53 48 -53 128v57q0 46 42 94q51 58 57 73v4q0 13 -14 13h-84v98h108q49 0 78 -27q26 -26 26 -67v-17q0 -34 -46 -87q-47 -53 -47 -84v-45q0 -98 91 -98q87 0 87 100v76q0 45 -37 45h-23l-14 50l88 154h126l-96 -145
q76 -26 76 -118v-61z" />
    <glyph glyph-name="uni0E0B" unicode="&#xe0b;" horiz-adv-x="500" 
d="M462 187q0 -194 -207 -194q-102 0 -158 51q-53 48 -53 128v65q0 40 45 88q51 53 56 72v15q0 10 -12 10q-15 0 -26 -26l-83 37v84l71 -36q30 35 69 35q43 0 69 -27q25 -26 25 -67v-15q0 -43 -47 -94t-47 -77v-52q0 -98 91 -98q87 0 87 100v76q0 45 -37 45h-23l-14 50
l88 154h126l-96 -145q76 -26 76 -118v-61z" />
    <glyph glyph-name="uni0E0C" unicode="&#xe0c;" horiz-adv-x="824" 
d="M786 198q0 -205 -169 -205q-86 0 -128 67v-60h-120v327q0 102 -100 102q-78 0 -115 -56l56 -72q-42 -28 -42 -77v-116q0 -15 14 -15h38v-93h-74q-40 0 -69 29t-29 70v116q0 53 42 89q1 0 -59 66q20 63 84 106q68 46 154 46q96 0 158 -54q62 -53 62 -134v-160
q35 -87 96 -87q47 0 65 27q16 24 16 84v313h120v-313z" />
    <glyph glyph-name="uni0E0D" unicode="&#xe0d;" horiz-adv-x="824" 
d="M786 71q0 -99 -60 -156q-60 -58 -166 -58q-74 0 -149 32l13 94q62 -34 135 -34q47 0 76 29q31 30 31 79v23q-13 -28 -50 -47q-35 -20 -71 -20q-79 0 -127 45q-49 46 -49 126v142q0 103 -100 103q-78 0 -115 -56l56 -72q-42 -28 -42 -77v-116q0 -15 14 -15h38v-93h-74
q-40 0 -69 29t-29 70v116q0 53 42 89q1 0 -59 66q20 63 84 106q68 46 154 46q96 0 158 -54t62 -135v-137q0 -94 79 -94q33 0 61 25q27 25 37 66v318h120v-440z" />
    <glyph glyph-name="uni0E0E" unicode="&#xe0e;" horiz-adv-x="550" 
d="M512 -200h-128q-45 42 -105 42q-82 0 -140 -49l-31 91q61 60 145 60t139 -63v446q0 48 -29 75q-28 27 -76 27q-77 0 -114 -56l56 -72q-40 -26 -40 -77v-129q0 -37 -26 -66q-27 -29 -62 -29h-79v93h37q10 0 10 11v111q0 55 40 89q1 0 -59 66q20 64 84 106q67 46 153 46
q97 0 161 -54q64 -55 64 -137v-531z" />
    <glyph glyph-name="uni0E0F" unicode="&#xe0f;" horiz-adv-x="550" 
d="M512 -200h-103l-95 73q-10 -35 -46 -57q-34 -22 -72 -22q-66 0 -120 37l23 92q46 -36 97 -36q31 0 58 30q26 30 28 68l110 -76v418q0 48 -29 75q-28 27 -76 27q-77 0 -114 -56l56 -72q-40 -26 -40 -77v-129q0 -37 -26 -66q-27 -29 -62 -29h-79v93h37q10 0 10 11v111
q0 55 40 89q1 0 -59 66q20 64 84 106q67 46 153 46q97 0 161 -54q64 -55 64 -137v-531z" />
    <glyph glyph-name="uni0E10" unicode="&#xe10;" horiz-adv-x="524" 
d="M259 94q45 2 75 46q33 48 33 127q0 166 -133 166q-86 0 -162 -78l-49 83q91 91 211 91q69 0 117 -28q1 0 52 55h139l-113 -113q57 -65 57 -176q0 -119 -66 -193t-171 -74h-85l-44 183q-5 20 -24 20h-38v97h70q77 0 97 -75zM457 -200h-135q-61 0 -91 45q-36 -45 -96 -45
h-76v89h80q52 0 91 54q41 -54 88 -54h33v51h106v-140z" />
    <glyph glyph-name="uni0E11" unicode="&#xe11;" horiz-adv-x="555" 
d="M517 0h-120v350q0 74 -53 74q-66 0 -112 -74q-40 -65 -40 -134v-216h-120v212q0 41 67 175v25q0 10 -15 10t-26 -26l-83 37v84l71 -36q30 35 69 35q67 0 77 -59q38 62 116 62q169 0 169 -182v-337z" />
    <glyph glyph-name="uni0E12" unicode="&#xe12;" horiz-adv-x="880" 
d="M842 198q0 -205 -169 -205q-86 0 -128 67v-60h-120v358q0 53 -44 65l-53 -49q-58 49 -59 49q-99 -30 -99 -163q0 -80 43 -126q35 -39 79 -39q37 0 63 13v-97q-30 -14 -82 -14q-87 0 -152 68q-71 75 -71 195q0 115 62 185q60 69 166 80l50 -50l53 50q76 -7 121 -56
q43 -48 43 -120v-175q35 -87 96 -87q47 0 65 27q16 24 16 84v314h120v-314z" />
    <glyph glyph-name="uni0E13" unicode="&#xe13;" horiz-adv-x="826" 
d="M788 0h-121v59q-41 -66 -133 -66q-76 0 -121 49q-44 49 -44 127v158q0 102 -100 102q-78 0 -115 -56l56 -72q-42 -28 -42 -77v-116q0 -15 14 -15h38v-93h-74q-40 0 -69 29t-29 70v116q0 53 42 89q1 0 -59 66q20 63 84 106q68 46 154 46q96 0 158 -54t62 -135v-143
q0 -104 88 -104q28 0 54 27t37 66v332h120v-511z" />
    <glyph glyph-name="uni0E14" unicode="&#xe14;" horiz-adv-x="577" 
d="M539 0h-120v304q0 55 -35 88q-34 33 -90 33q-63 0 -101 -45q-40 -47 -40 -130t37 -124q28 -31 67 -31q36 0 84 17v-97q-40 -18 -91 -18q-90 0 -149 60q-69 69 -69 193q0 117 72 194q73 78 190 78q112 0 180 -64q65 -62 65 -155v-303z" />
    <glyph glyph-name="uni0E15" unicode="&#xe15;" horiz-adv-x="595" 
d="M557 0h-120v358q0 53 -44 65l-66 -62q-75 62 -76 62q-99 -30 -99 -163q0 -80 41 -126q35 -39 77 -39q29 0 77 17v-97q-40 -18 -92 -18q-87 0 -152 68q-71 75 -71 195q0 115 62 185q60 69 166 80l67 -63l66 63q76 -7 121 -56q43 -48 43 -120v-349z" />
    <glyph glyph-name="uni0E16" unicode="&#xe16;" horiz-adv-x="532" 
d="M494 0h-120v327q0 102 -102 102q-81 0 -118 -56l56 -72q-42 -28 -42 -77v-116q0 -15 14 -15h38v-93h-74q-40 0 -69 29t-29 70v116q0 53 42 89q1 0 -59 66q20 63 86 106q69 46 155 46q96 0 159 -54t63 -135v-333z" />
    <glyph glyph-name="uni0E17" unicode="&#xe17;" horiz-adv-x="529" 
d="M491 0h-120v328q0 97 -85 97q-89 0 -128 -84v-341h-120v511h120v-53q55 64 141 64q92 0 142 -50q50 -51 50 -146v-326z" />
    <glyph glyph-name="uni0E18" unicode="&#xe18;" horiz-adv-x="502" 
d="M474 169q0 -91 -53 -133q-53 -43 -168 -43q-221 0 -221 182v33h116v-33q0 -89 105 -89q56 0 80 19q23 19 23 64v21q0 36 -32 39l-157 14q-60 5 -97 41q-38 37 -38 93q0 64 55 104q57 41 154 41q113 0 207 -48l-17 -99q-81 51 -182 51q-102 0 -102 -48q0 -37 34 -41
l169 -16q53 -5 88 -41q36 -37 36 -90v-21z" />
    <glyph glyph-name="uni0E19" unicode="&#xe19;" horiz-adv-x="527" 
d="M489 0h-121v55q-44 -62 -129 -62q-92 0 -146 55q-55 55 -55 153v310h120v-296q0 -129 106 -129q32 0 63 26q31 27 42 67v332h120v-511z" />
    <glyph glyph-name="uni0E1A" unicode="&#xe1a;" horiz-adv-x="538" 
d="M500 195q0 -97 -63 -150q-61 -52 -168 -52t-168 52q-63 53 -63 150v316h120v-316q0 -50 31 -80q30 -29 80 -29t80 29q31 30 31 80v316h120v-316z" />
    <glyph glyph-name="uni0E1B" unicode="&#xe1b;" horiz-adv-x="538" 
d="M500 195q0 -97 -63 -150q-61 -52 -168 -52t-168 52q-63 53 -63 150v316h120v-316q0 -50 31 -80q30 -29 80 -29t80 29q31 30 31 80v492h120v-492z" />
    <glyph glyph-name="uni0E1C" unicode="&#xe1c;" horiz-adv-x="579" 
d="M541 0h-101l-150 248q-149 -248 -150 -248h-101v417q0 40 27 67q28 27 71 27h65v-100h-30q-15 0 -15 -15v-158q0 -18 -8 -62h3q15 56 27 76l84 141h54l83 -141q14 -27 26 -76h3q-6 38 -6 62v273h118v-511z" />
    <glyph glyph-name="uni0E1D" unicode="&#xe1d;" horiz-adv-x="579" 
d="M541 0h-101l-150 248q-149 -248 -150 -248h-101v417q0 40 27 67q28 27 71 27h65v-100h-30q-15 0 -15 -15v-158q0 -18 -8 -62h3q15 56 27 76l84 141h54l83 -141q14 -27 26 -76h3q-6 38 -6 62v449h118v-687z" />
    <glyph glyph-name="uni0E1E" unicode="&#xe1e;" horiz-adv-x="618" 
d="M505 0h-104l-92 267l-92 -267h-104l-103 511h124l42 -254q5 -29 5 -80h4q6 61 15 86l77 223h64l76 -223q9 -25 16 -86h4q0 51 5 80l42 254h124z" />
    <glyph glyph-name="uni0E1F" unicode="&#xe1f;" horiz-adv-x="623" 
d="M505 0h-104l-92 267l-92 -267h-104l-103 511h124l42 -254q5 -29 5 -80h4q6 61 15 86l77 223h64l76 -223q9 -25 16 -86h4q0 51 5 80l72 429h124z" />
    <glyph glyph-name="uni0E20" unicode="&#xe20;" horiz-adv-x="550" 
d="M512 0h-120v327q0 48 -29 75q-28 27 -76 27q-77 0 -114 -56l56 -72q-40 -26 -40 -77v-129q0 -37 -26 -66q-27 -29 -62 -29h-79v93h37q10 0 10 11v111q0 55 40 89q1 0 -59 66q20 64 84 106q67 46 153 46q97 0 161 -54q64 -55 64 -137v-331z" />
    <glyph glyph-name="uni0E21" unicode="&#xe21;" horiz-adv-x="528" 
d="M490 198q0 -96 -52 -150q-53 -55 -146 -55q-81 0 -132 67v-60h-122v511h120v-337q18 -34 52 -60q35 -27 64 -27q96 0 96 111v313h120v-313z" />
    <glyph glyph-name="uni0E22" unicode="&#xe22;" horiz-adv-x="520" 
d="M482 201q0 -208 -214 -208q-231 0 -231 163q0 87 84 120v3q-84 27 -84 109q0 55 37 91q37 35 95 35q50 0 92 -17l-13 -93q-23 11 -54 11q-42 0 -42 -40q0 -23 18 -36q16 -13 39 -13h101l8 -94h-98q-29 0 -48 -20q-18 -20 -18 -51q0 -75 110 -75q98 0 98 104v321h120v-310
z" />
    <glyph glyph-name="uni0E23" unicode="&#xe23;" horiz-adv-x="453" 
d="M382 372q-79 54 -157 54t-78 -50q0 -31 100 -64q87 -28 122 -51q59 -39 59 -103q0 -76 -51 -119q-54 -46 -157 -46t-185 47l15 101q88 -52 159 -52q100 0 100 62q0 26 -32 41q-11 6 -72 25q-86 28 -118 51q-57 39 -57 107q0 64 51 105q52 42 135 42q109 0 184 -51z" />
    <glyph glyph-name="uni0E24" unicode="&#xe24;" horiz-adv-x="532" 
d="M494 -200h-120v527q0 102 -102 102q-81 0 -118 -56l56 -72q-42 -28 -42 -77v-116q0 -15 14 -15h38v-93h-74q-40 0 -69 29t-29 70v116q0 53 42 89q1 0 -59 66q20 63 86 106q69 46 155 46q96 0 159 -54t63 -135v-533z" />
    <glyph glyph-name="uni0E25" unicode="&#xe25;" horiz-adv-x="513" 
d="M475 0h-120v221h-108q-106 0 -106 -70q0 -61 63 -61q38 0 79 13l4 -96q-52 -14 -91 -14q-77 0 -125 47q-47 45 -47 111q0 78 59 121q62 45 178 45h94v16q0 94 -107 94q-92 0 -172 -76l-45 81q92 90 221 90q108 0 166 -54q57 -53 57 -151v-317z" />
    <glyph glyph-name="uni0E26" unicode="&#xe26;" horiz-adv-x="550" 
d="M512 -200h-120v527q0 48 -29 75q-28 27 -76 27q-77 0 -114 -56l56 -72q-40 -26 -40 -77v-129q0 -37 -26 -66q-27 -29 -62 -29h-79v93h37q10 0 10 11v111q0 55 40 89q1 0 -59 66q20 64 84 106q67 46 153 46q97 0 161 -54q64 -55 64 -137v-531z" />
    <glyph glyph-name="uni0E27" unicode="&#xe27;" horiz-adv-x="489" 
d="M48 141q87 -53 155 -53q134 0 134 166q0 80 -39 126q-36 43 -90 43q-84 0 -163 -57l-25 95q92 61 206 61q103 0 167 -72q64 -74 64 -197q0 -124 -68 -193q-66 -68 -178 -68q-109 0 -189 56z" />
    <glyph glyph-name="uni0E28" unicode="&#xe28;" horiz-adv-x="556" 
d="M504 0h-120v331q0 98 -113 98q-51 0 -82 -25q-31 -27 -31 -73v-94h2q32 38 77 38h79v-100h-92q-28 0 -47 -19q-19 -18 -19 -46v-110h-120v331q0 86 64 138q64 53 169 53q52 0 96 -19l46 53h131l-89 -108q49 -43 49 -117v-331z" />
    <glyph glyph-name="uni0E29" unicode="&#xe29;" horiz-adv-x="568" 
d="M504 195q0 -97 -63 -150q-62 -52 -169 -52t-168 52q-64 53 -64 150v316h120v-316q0 -109 112 -109t112 109v50h-107v101h107v165h120v-165h72l-25 -101h-47v-50z" />
    <glyph glyph-name="uni0E2A" unicode="&#xe2a;" horiz-adv-x="529" 
d="M477 0h-120v221h-108q-106 0 -106 -70q0 -61 63 -61q38 0 79 13l4 -96q-52 -14 -91 -14q-77 0 -125 47q-47 45 -47 111q0 78 59 121q62 45 178 45h94v16q0 94 -107 94q-92 0 -172 -76l-45 81q92 90 221 90q59 0 107 -25l45 53h131l-98 -110q38 -44 38 -123v-317z" />
    <glyph glyph-name="uni0E2B" unicode="&#xe2b;" horiz-adv-x="506" 
d="M508 0h-129l-74 224q-16 48 -63 66l-84 -74v-216h-120v511h120v-166l189 166h162l-187 -157q74 -37 100 -111z" />
    <glyph glyph-name="uni0E2C" unicode="&#xe2c;" horiz-adv-x="579" 
d="M541 0h-101l-150 248q-149 -248 -150 -248h-101v511h118v-273q0 -18 -8 -62h3q15 56 27 76l84 141h54l83 -141q14 -27 26 -76h3q-6 38 -6 62v200q0 19 -13 32q-12 13 -28 13h-23l-14 50l88 154h126l-96 -145q78 -27 78 -118v-424z" />
    <glyph glyph-name="uni0E2D" unicode="&#xe2d;" horiz-adv-x="523" 
d="M240 213h-76q-15 -1 -15 -16v-28q0 -81 106 -81q65 0 91 36q27 39 27 138q0 87 -28 124t-94 37q-99 0 -171 -70l-52 82q87 87 223 87q242 0 242 -263q0 -266 -236 -266q-110 0 -169 51q-54 46 -54 122v44q0 44 29 72q28 26 74 26h103v-95z" />
    <glyph glyph-name="uni0E2E" unicode="&#xe2e;" horiz-adv-x="523" 
d="M240 213h-76q-15 -1 -15 -16v-28q0 -81 106 -81q65 0 91 36q28 39 28 138q0 87 -28 124t-95 37q-99 0 -171 -70l-52 82q87 87 223 87q63 0 102 -21l42 49h133l-90 -107q55 -61 55 -184q0 -266 -236 -266q-110 0 -169 51q-54 46 -54 122v44q0 44 29 72q28 26 74 26h103
v-95z" />
    <glyph glyph-name="uni0E2F" unicode="&#xe2f;" horiz-adv-x="492" 
d="M453 0h-120v347q-40 -63 -122 -63q-81 0 -131 50q-47 48 -47 123v54h118v-47q0 -40 23 -63q23 -24 61 -24q43 0 72 32q29 31 29 76v26h117v-511z" />
    <glyph glyph-name="uni0E30" unicode="&#xe30;" horiz-adv-x="267" 
d="M232 312h-117q-31 0 -55 21q-25 23 -25 59v56h101v-28q0 -12 14 -12h82v-96zM232 69h-117q-31 0 -55 21q-25 23 -25 59v56h101v-28q0 -12 14 -12h82v-96z" />
    <glyph glyph-name="uni0E31" unicode="&#xe31;" horiz-adv-x="0" 
d="M54 579h-245q-39 0 -63 23q-24 22 -24 56v47h97v-24q0 -15 17 -15h218v-87z" />
    <glyph glyph-name="uni0E32" unicode="&#xe32;" horiz-adv-x="444" 
d="M406 0h-120v327q0 98 -87 98q-82 0 -156 -72l-39 81q80 88 203 88q94 0 146 -54q53 -53 53 -148v-320z" />
    <glyph glyph-name="uni0E33" unicode="&#xe33;" horiz-adv-x="440" 
d="M404 0h-120v327q0 98 -87 98q-82 0 -156 -72l-39 81q80 88 203 88q94 0 146 -54q53 -53 53 -148v-320zM-7 654q0 -38 -27 -65t-65 -27t-65 27t-27 65t27 65t65 27t65 -27t27 -65zM-99 623q31 0 31 32q0 31 -31 31t-31 -31q0 -32 31 -32z" />
    <glyph glyph-name="uni0E34" unicode="&#xe34;" horiz-adv-x="0" 
d="M-38 579h-399v96h399v-96z" />
    <glyph glyph-name="uni0E35" unicode="&#xe35;" horiz-adv-x="0" 
d="M-38 579h-399v96h296v76h103v-172z" />
    <glyph glyph-name="uni0E36" unicode="&#xe36;" horiz-adv-x="0" 
d="M-93 652q28 0 28 28t-28 28q-29 0 -29 -28t29 -28zM-187 675q1 44 25 71q26 28 67 28q39 0 67 -27q27 -28 27 -67q0 -42 -28 -71q-29 -30 -72 -30h-336v96h250z" />
    <glyph glyph-name="uni0E37" unicode="&#xe37;" horiz-adv-x="0" 
d="M-38 579h-399v96h200v70h82v-70h31v70h86v-166z" />
    <glyph glyph-name="uni0E38" unicode="&#xe38;" horiz-adv-x="0" 
d="M-38 -278h-99v116q0 11 -10 11h-49v93h92q29 0 48 -21q18 -21 18 -51v-148z" />
    <glyph glyph-name="uni0E39" unicode="&#xe39;" horiz-adv-x="0" 
d="M-38 -166q0 -56 -34 -88q-35 -33 -97 -33q-60 0 -93 33q-33 31 -33 84v15h-45v97h138v-112q0 -27 33 -27q34 0 34 31v108h97v-108z" />
    <glyph glyph-name="uni0E3A" unicode="&#xe3a;" horiz-adv-x="0" 
d="M-50 -169q-22 -21 -51 -21t-51 21t-22 49t22 50q22 21 51 21t51 -21q21 -21 21 -50q0 -28 -21 -49z" />
    <glyph glyph-name="uni0E3F" unicode="&#xe3f;" horiz-adv-x="540" 
d="M288 -88h-41v88h-182v607h182v90h41v-90q82 0 129 -40q49 -42 49 -117q0 -96 -88 -136q102 -32 102 -144q0 -84 -56 -129q-51 -41 -136 -41v-88zM288 97q66 0 66 80q0 89 -66 89v-169zM288 362q56 0 56 79q0 31 -16 51q-16 18 -40 18v-148zM247 97v169h-60v-169h60z
M247 362v148h-60v-148h60z" />
    <glyph glyph-name="uni0E40" unicode="&#xe40;" horiz-adv-x="197" 
d="M161 0h-119v512h119v-512z" />
    <glyph glyph-name="uni0E41" unicode="&#xe41;" horiz-adv-x="404" 
d="M352 0h-109v521h109v-521zM161 0h-109v521h109v-521z" />
    <glyph glyph-name="uni0E42" unicode="&#xe42;" horiz-adv-x="261" 
d="M209 0h-120v577q0 101 -74 136l-20 48q70 101 200 101q98 0 175 -46l-13 -93q-70 41 -152 41q-50 0 -90 -25q94 -45 94 -170v-569z" />
    <glyph glyph-name="uni0E43" unicode="&#xe43;" horiz-adv-x="245" 
d="M193 0h-120v553q0 51 52 103q51 52 51 81q0 38 -55 38q-59 0 -106 -70l-56 61q62 99 171 99q73 0 114 -35q38 -32 38 -84q0 -47 -44 -99q-45 -51 -45 -102v-545z" />
    <glyph glyph-name="uni0E44" unicode="&#xe44;" horiz-adv-x="261" 
d="M210 0h-120v593q0 107 75 154h-228v87h350v-76q-77 -31 -77 -137v-621z" />
    <glyph glyph-name="uni0E45" unicode="&#xe45;" horiz-adv-x="443" 
d="M405 -200h-119v527q0 98 -87 98q-82 0 -156 -72l-39 81q80 88 203 88q93 0 146 -54q52 -53 52 -148v-520z" />
    <glyph glyph-name="uni0E46" unicode="&#xe46;" horiz-adv-x="528" 
d="M476 -189h-120v571q0 41 -34 53l-64 -56l-71 60q-46 -6 -46 -50q0 -16 13 -28q13 -14 31 -14q20 0 38 7l7 -75q-30 -10 -56 -10q-50 0 -88 32q-42 35 -42 89q0 59 44 95q40 33 103 39l67 -62l60 61q70 -4 115 -48q43 -44 43 -105v-559z" />
    <glyph glyph-name="uni0E47" unicode="&#xe47;" horiz-adv-x="0" 
d="M-80 575h-73q-45 0 -70 40q-22 -39 -88 -39q-47 0 -77 30t-30 75q0 43 31 74q37 36 101 36h88q40 0 40 33v12h88v-27q0 -39 -27 -66q-28 -29 -72 -29h-115q-39 0 -39 -30q0 -28 39 -28q41 0 62 25q20 -25 57 -25h85v-81z" />
    <glyph glyph-name="uni0E48" unicode="&#xe48;" horiz-adv-x="0" 
d="M-43 788h-92v140h92v-140z" />
    <glyph glyph-name="uni0E49" unicode="&#xe49;" horiz-adv-x="0" 
d="M46 788h-195q-21 0 -35 14q-15 14 -15 35v20q0 13 -12 13h-52v72h79q50 0 50 -46v-14q0 -18 17 -18h163v-76z" />
    <glyph glyph-name="uni0E4A" unicode="&#xe4a;" horiz-adv-x="0" 
d="M-81 788l-10 25q14 8 14 20q0 16 -13 16l-50 -42l-47 42q-13 0 -13 -14t14 -25l-13 -23h-55q-17 29 -17 55q0 30 21 53q23 24 63 28l47 -53l45 53q74 -8 74 -61q0 -14 -6 -21q25 9 25 57q0 23 -11 40h82q4 -18 4 -37q0 -47 -33 -80t-79 -33h-42z" />
    <glyph glyph-name="uni0E4B" unicode="&#xe4b;" horiz-adv-x="0" 
d="M11 828l-59 3l2 -43h-88l2 43l-59 -3v73l59 -3l-2 43h88l-2 -43l59 3v-73z" />
    <glyph glyph-name="uni0E4C" unicode="&#xe4c;" horiz-adv-x="0" 
d="M35 775h-96q-17 0 -17 -15v-37h-94v42q0 44 32 72q31 27 77 27h98v-89z" />
    <glyph glyph-name="uni0E4D" unicode="&#xe4d;" horiz-adv-x="0" 
d="M-7 654q0 -38 -27 -65t-65 -27t-65 27t-27 65t27 65t65 27t65 -27t27 -65zM-99 623q31 0 31 32q0 31 -31 31t-31 -31q0 -32 31 -32z" />
    <glyph glyph-name="uni0E4E" unicode="&#xe4e;" horiz-adv-x="0" 
 />
    <glyph glyph-name="uni0E4F" unicode="&#xe4f;" horiz-adv-x="528" 
d="M461 200q0 -81 -57 -138t-137 -57t-137 57t-57 138q0 80 57 137t137 57t137 -57t57 -137zM383 83q48 49 48 117t-48 116t-116 48t-116 -48t-48 -116t48 -117q48 -48 116 -48t116 48zM379 200q0 -47 -33 -80t-79 -33q-47 0 -80 33t-33 79q0 47 33 80t79 33q47 0 80 -33
t33 -79zM322 144q23 23 23 56q0 32 -23 55t-56 23q-32 0 -55 -23t-23 -56q0 -32 23 -55t56 -23q32 0 55 23z" />
    <glyph glyph-name="uni0E50" unicode="&#xe50;" horiz-adv-x="535" 
d="M504 199q0 -103 -68 -157q-62 -49 -168 -49t-168 49q-68 54 -68 157t68 157q62 49 168 49t168 -49q68 -54 68 -157zM352 114q36 31 36 85t-36 85q-32 28 -84 28t-85 -28q-35 -30 -35 -85t35 -85q33 -28 85 -28t84 28z" />
    <glyph glyph-name="uni0E51" unicode="&#xe51;" horiz-adv-x="527" 
d="M203 -91l11 89h28q139 0 139 172q0 136 -125 136q-47 0 -80 -30t-33 -71q0 -84 73 -84q37 0 67 17l7 -86q-35 -22 -85 -22q-74 0 -121 42q-54 47 -54 133q0 85 64 140t163 55q113 0 176 -61q63 -60 63 -169q0 -120 -67 -190q-68 -71 -185 -71h-41z" />
    <glyph glyph-name="uni0E52" unicode="&#xe52;" horiz-adv-x="593" 
d="M548 180q0 -73 -51 -126q-52 -54 -123 -54h-156q-78 0 -126 52q-47 50 -47 127v313h104v-313q0 -35 22 -55q20 -20 51 -20h152q28 0 49 22t21 54v67q0 51 -37 57l-58 -59l-59 59q-28 -6 -28 -35q0 -39 61 -50l-25 -71q-123 14 -123 123q0 50 31 86q32 36 85 44l58 -70
q35 52 50 69q65 -3 106 -46q43 -44 43 -115v-59z" />
    <glyph glyph-name="uni0E53" unicode="&#xe53;" horiz-adv-x="544" 
d="M498 0h-104v231q0 50 -46 54l-72 -82l-79 82q-58 -24 -58 -92q0 -50 31 -80q28 -27 69 -27q40 0 68 14l9 -90q-37 -17 -86 -17q-82 0 -137 54q-57 57 -57 146q0 157 165 205l75 -87q68 85 68 86q67 -5 110 -48q44 -46 44 -120v-229z" />
    <glyph glyph-name="uni0E54" unicode="&#xe54;" horiz-adv-x="539" 
d="M490 0h-56q-69 0 -106 31q-38 -38 -102 -38q-87 0 -138 54t-51 144q0 100 66 156q61 52 161 52h71q69 0 69 56v37h107v-38q0 -71 -44 -112q-43 -41 -118 -41h-84q-122 0 -122 -110q0 -103 82 -103q25 0 54 13q-16 23 -16 58q0 47 34 77q33 28 81 28h78l-20 -90h-45
q-26 0 -26 -25q0 -51 76 -51h63z" />
    <glyph glyph-name="uni0E55" unicode="&#xe55;" horiz-adv-x="539" 
d="M272 392q33 0 33 34q0 13 -10 23t-23 10q-34 0 -34 -33q0 -34 34 -34zM490 0h-56q-69 0 -106 31q-38 -38 -102 -38q-87 0 -138 54t-51 144q0 162 156 200q-10 13 -10 33q0 40 26 64q24 23 62 23t64 -23q26 -24 26 -63q0 -16 -6 -25q49 7 49 55v37h107v-38q0 -71 -44 -112
q-43 -41 -118 -41h-84q-122 0 -122 -110q0 -103 82 -103q25 0 54 13q-16 23 -16 58q0 47 34 77q33 28 81 28h78l-20 -90h-45q-26 0 -26 -25q0 -51 76 -51h63z" />
    <glyph glyph-name="uni0E56" unicode="&#xe56;" horiz-adv-x="534" 
d="M214 176q-10 -12 -10 -32q0 -23 21 -40q23 -20 57 -20q53 0 85 34q31 33 31 82q0 52 -32 83q-33 33 -91 33q-82 0 -127 -62h-70l-59 238h105l29 -140q51 58 139 58q90 0 150 -59q59 -59 59 -151q0 -89 -52 -146q-57 -61 -155 -61q-88 0 -140 40q-51 39 -51 105
q0 56 41 86z" />
    <glyph glyph-name="uni0E57" unicode="&#xe57;" horiz-adv-x="691" 
d="M643 162q0 -71 -43 -117q-43 -45 -108 -45h-102v231q0 50 -46 54l-72 -82l-75 82q-58 -24 -58 -92q0 -50 31 -80q28 -27 69 -27q40 0 68 14l9 -90q-37 -17 -86 -17q-82 0 -137 54q-57 57 -57 146q0 157 165 205l71 -87q68 85 68 86q67 -5 110 -48q44 -46 44 -120v-134
q45 0 45 56v341h104v-330z" />
    <glyph glyph-name="uni0E58" unicode="&#xe58;" horiz-adv-x="521" 
d="M358 95q31 15 31 56q0 45 -50 52l28 65q53 -4 87 -41q32 -36 32 -82q0 -66 -45 -109q-42 -40 -99 -40l-68 81q-58 -81 -59 -81q-75 0 -122 38q-51 40 -51 109v69q0 76 49 127q52 54 135 54h79q66 0 66 56v37h105v-38q0 -72 -39 -113q-41 -41 -117 -41h-89q-83 0 -83 -86
v-63q0 -45 50 -51q1 0 75 92z" />
    <glyph glyph-name="uni0E59" unicode="&#xe59;" horiz-adv-x="542" 
d="M451 0h-108l-97 266q-12 37 -49 37q-59 0 -59 -104q0 -52 18 -83q16 -29 38 -29q29 0 52 21l24 -84q-33 -31 -81 -31q-64 0 -107 55q-45 57 -45 151q0 92 45 150q43 56 111 56q66 0 101 -52q14 52 62 52q40 0 56 -42l23 129h98l-46 -228h-77q-14 47 -44 47q-14 0 -20 -19
z" />
    <glyph glyph-name="uni0E5B" unicode="&#xe5b;" horiz-adv-x="834" 
d="M682 189q0 -52 -37 -72l-203 -104v239q0 27 18 37l145 74q13 7 29 7q48 0 48 -54v-127zM416 0l-264 135v260q0 37 29 52l164 84q37 19 69 19q31 0 75 -21l115 -57q24 -12 24 -36q0 -29 -33 -45l-148 -75q-31 -16 -31 -61v-255z" />
    <glyph glyph-name="endash" unicode="&#x2013;" horiz-adv-x="439" 
d="M437 194h-435v80h435v-80z" />
    <glyph glyph-name="emdash" unicode="&#x2014;" horiz-adv-x="873" 
d="M871 194h-869v80h869v-80z" />
    <glyph glyph-name="quoteleft" unicode="&#x2018;" horiz-adv-x="246" 
d="M159 389h-127l79 218h103z" />
    <glyph glyph-name="quoteright" unicode="&#x2019;" horiz-adv-x="246" 
d="M134 389h-102l55 218h127z" />
    <glyph glyph-name="quotesinglbase" unicode="&#x201a;" horiz-adv-x="246" 
d="M134 -96h-102l55 218h127z" />
    <glyph glyph-name="quotedblleft" unicode="&#x201c;" horiz-adv-x="422" 
d="M159 389h-127l79 218h103zM336 389h-128l79 218h103z" />
    <glyph glyph-name="quotedblright" unicode="&#x201d;" horiz-adv-x="422" 
d="M134 389h-102l55 218h127zM310 389h-102l56 218h126z" />
    <glyph glyph-name="quotedblbase" unicode="&#x201e;" horiz-adv-x="422" 
d="M310 -96h-102l56 218h126zM134 -96h-102l55 218h127z" />
    <glyph glyph-name="dagger" unicode="&#x2020;" 
d="M299 0h-111v378h-135v90h135v139h111v-139h135v-90h-135v-378z" />
    <glyph glyph-name="daggerdbl" unicode="&#x2021;" 
d="M434 128h-135v-128h-111v128h-135v85h135v184h-135v85h135v125h111v-125h135v-85h-135v-184h135v-85z" />
    <glyph glyph-name="bullet" unicode="&#x2022;" horiz-adv-x="439" 
d="M327 196q-43 -43 -108 -45q-64 1 -108 46q-43 44 -43 106q0 63 43 107q44 44 108 44q65 0 108 -43q44 -44 44 -108t-44 -107z" />
    <glyph glyph-name="ellipsis" unicode="&#x2026;" horiz-adv-x="873" 
d="M208 0h-122v122h122v-122zM497 0h-121v122h121v-122zM787 0h-122v122h122v-122z" />
    <glyph glyph-name="perthousand" unicode="&#x2030;" horiz-adv-x="873" 
d="M137 -19h-72l373 645h71zM864 143q0 -153 -122 -153t-122 153q0 147 122 147t122 -147zM742 52q42 0 42 84q0 49 -6 66q-8 26 -36 26t-36 -26q-6 -17 -6 -66q0 -84 42 -84zM572 143q0 -153 -122 -153t-122 153q0 147 122 147t122 -147zM450 52q42 0 42 84q0 49 -6 66
q-8 26 -36 26t-36 -26q-6 -17 -6 -66q0 -84 42 -84zM255 470q0 -153 -122 -153t-122 153q0 147 122 147t122 -147zM133 379q42 0 42 84q0 49 -6 66q-8 26 -36 26t-36 -26q-6 -17 -6 -66q0 -84 42 -84z" />
    <glyph glyph-name="guilsinglleft" unicode="&#x2039;" horiz-adv-x="293" 
d="M257 56h-110l-102 178l102 178h110l-96 -178z" />
    <glyph glyph-name="guilsinglright" unicode="&#x203a;" horiz-adv-x="293" 
d="M146 56h-109l95 178l-95 178h109l103 -178z" />
    <glyph glyph-name="fraction" unicode="&#x2044;" horiz-adv-x="149" 
d="M-71 -19h-71l362 645h71z" />
    <glyph glyph-name="Euro" unicode="&#x20ac;" 
d="M503 7q-51 -17 -126 -17q-107 0 -186 59q-82 62 -106 167h-86l13 53h65q-3 35 0 68h-78l13 53h73q26 101 104 163q81 64 187 64q78 0 144 -23l-23 -91q-40 21 -102 21q-137 0 -177 -134h254l-13 -53h-255q-4 -34 0 -68h239l-12 -53h-213q41 -131 176 -131q61 0 103 19z
" />
    <glyph glyph-name="trademark" unicode="&#x2122;" horiz-adv-x="873" 
d="M829 245h-85v256h-2l-92 -256h-65l-92 256h-2v-256h-85v362h126l86 -226l85 226h126v-362zM236 245h-91v292h-101v70h293v-70h-101v-292z" />
    <glyph glyph-name="partialdiff" unicode="&#x2202;" horiz-adv-x="480" 
d="M346 249q-48 59 -112 59q-52 0 -82 -38q-27 -35 -27 -88q0 -51 25 -85q27 -38 77 -38q58 0 92 59q28 49 28 111zM60 570q74 57 149 57q123 0 184 -101q50 -83 50 -214q0 -322 -219 -322q-85 0 -137 57q-51 54 -51 140q0 82 50 136q52 54 134 54q70 0 128 -50
q0 97 -29 156q-35 71 -107 71q-50 0 -102 -41z" />
    <glyph glyph-name="Delta" unicode="&#x2206;" horiz-adv-x="598" 
d="M457 85l-165 426l-156 -426h321zM589 0h-579l236 619h96z" />
    <glyph glyph-name="product" unicode="&#x220f;" horiz-adv-x="644" 
d="M588 -186h-94v784h-344v-784h-93v869h531v-869z" />
    <glyph glyph-name="summation" unicode="&#x2211;" horiz-adv-x="563" 
d="M539 -186h-515v75l266 364l-255 357v73h493v-85h-369l243 -344l-258 -356h395v-84z" />
    <glyph glyph-name="minus" unicode="&#x2212;" horiz-adv-x="525" 
d="M483 175h-441v90h441v-90z" />
    <glyph glyph-name="radical" unicode="&#x221a;" horiz-adv-x="465" 
d="M291 -186h-88l-133 277l-44 -20l-34 74l124 57l115 -245l148 726h95z" />
    <glyph glyph-name="infinity" unicode="&#x221e;" horiz-adv-x="704" 
d="M185 153q59 0 119 71q-75 75 -121 75q-31 0 -50 -22q-18 -21 -18 -52q0 -72 70 -72zM589 225q0 33 -18 54q-20 21 -52 21q-49 0 -119 -77q67 -71 122 -71q31 0 50 22q17 20 17 51zM520 72q-75 0 -168 97q-95 -95 -167 -95q-66 0 -106 43q-39 42 -39 109q0 65 39 108
q39 45 104 45q82 0 169 -103q94 104 169 104q64 0 104 -44q38 -43 38 -108q0 -68 -37 -111q-40 -45 -106 -45z" />
    <glyph glyph-name="integral" unicode="&#x222b;" horiz-adv-x="525" 
d="M294 35q0 -102 -14 -144q-26 -77 -109 -77q-32 0 -58 15q-30 18 -30 48q0 42 42 42q28 0 41 -29t19 -29q17 0 17 29l-3 98v465q0 110 13 150q25 80 111 80q33 0 59 -15q32 -18 32 -48q0 -18 -13 -31q-13 -12 -31 -12q-30 0 -42 29q-12 28 -20 28q-17 0 -17 -28l2 -116z
" />
    <glyph glyph-name="approxequal" unicode="&#x2248;" horiz-adv-x="519" 
d="M491 209q-4 -61 -33 -100q-34 -45 -93 -45q-37 0 -118 30q-82 30 -105 30q-47 0 -57 -60h-59q16 146 125 146q37 0 115 -29t111 -29q46 0 56 57h58zM493 386q-15 -145 -126 -145q-38 0 -119 30t-104 30q-43 0 -57 -60h-59q16 146 124 146q37 0 115 -29q79 -30 112 -30
q46 0 55 58h59z" />
    <glyph glyph-name="notequal" unicode="&#x2260;" horiz-adv-x="519" 
d="M485 86h-248l-67 -132l-78 40l48 92h-106v89h150l53 101h-203v88h248l67 132l77 -39l-47 -93h106v-88h-151l-52 -101h203v-89z" />
    <glyph glyph-name="lessequal" unicode="&#x2264;" horiz-adv-x="519" 
d="M485 -30h-451v87h451v-87zM485 87l-451 149v90l451 155v-93l-331 -106l331 -102v-93z" />
    <glyph glyph-name="greaterequal" unicode="&#x2265;" horiz-adv-x="519" 
d="M485 -30h-451v87h451v-87zM485 236l-451 -149v93l330 102l-330 106v93l451 -155v-90z" />
    <glyph glyph-name="lozenge" unicode="&#x25ca;" horiz-adv-x="519" 
d="M258 56l106 253l-106 252l-103 -252zM300 -30h-82l-153 339l153 340h82l154 -340z" />
    <glyph glyph-name="uni0E10.alt1" unicode="&#xf700;" horiz-adv-x="524" 
d="M259 94q45 2 75 46q33 48 33 127q0 166 -133 166q-86 0 -162 -78l-49 83q91 91 211 91q69 0 117 -28q1 0 52 55h139l-113 -113q57 -65 57 -176q0 -119 -66 -193t-171 -74h-85l-44 183q-5 20 -24 20h-38v97h70q77 0 97 -75z" />
    <glyph glyph-name="uni0E34.alt1" unicode="&#xf701;" horiz-adv-x="0" 
d="M-192 579h-362v96h362v-96z" />
    <glyph glyph-name="uni0E35.alt1" unicode="&#xf702;" horiz-adv-x="0" 
d="M-192 579h-362v96h254v76h108v-172z" />
    <glyph glyph-name="uni0E36.alt1" unicode="&#xf703;" horiz-adv-x="0" 
d="M-253 652q28 0 28 28t-28 28q-29 0 -29 -28t29 -28zM-347 675q0 44 25 72q26 27 67 27q39 0 67 -27q27 -28 27 -67q0 -42 -28 -71q-29 -30 -72 -30h-293v96h207z" />
    <glyph glyph-name="uni0E37.alt1" unicode="&#xf704;" horiz-adv-x="0" 
d="M-192 579h-362v96h163v70h82v-70h31v70h86v-166z" />
    <glyph glyph-name="uni0E48.alt1" unicode="&#xf705;" horiz-adv-x="0" 
d="M-213 579h-103v160h103v-160z" />
    <glyph glyph-name="uni0E49.alt1" unicode="&#xf706;" horiz-adv-x="0" 
d="M-83 579h-213q-21 0 -35 14q-15 14 -15 35v23q0 13 -12 13h-52v82h92q50 0 50 -46v-19q0 -18 17 -18h168v-84z" />
    <glyph glyph-name="uni0E4A.alt1" unicode="&#xf707;" horiz-adv-x="0" 
d="M-247 579l-12 28q15 11 15 25q0 17 -14 17l-56 -49l-53 49q-15 0 -15 -15q0 -18 16 -30l-15 -26h-63q-19 34 -19 63q0 35 24 61q27 29 72 33l53 -60q50 60 50 61q83 -8 83 -71q0 -17 -6 -25q28 11 28 67q0 23 -12 47h92q5 -18 5 -43q0 -56 -38 -94q-37 -38 -89 -38h-46z
" />
    <glyph glyph-name="uni0E4B.alt1" unicode="&#xf708;" horiz-adv-x="0" 
d="M-180 627l-71 3l3 -51h-105l3 51l-71 -3v86l71 -3l-3 51h105l-3 -51l71 3v-86z" />
    <glyph glyph-name="uni0E4C.alt1" unicode="&#xf709;" horiz-adv-x="0" 
d="M-179 635h-96q-17 0 -17 -15v-41h-108v50q0 45 31 76t75 31h115v-101z" />
    <glyph glyph-name="uni0E48.alt2" unicode="&#xf70a;" horiz-adv-x="0" 
d="M-46 579h-104v160h104v-160z" />
    <glyph glyph-name="uni0E49.alt2" unicode="&#xf70b;" horiz-adv-x="0" 
d="M45 579h-213q-21 0 -35 14q-15 14 -15 35v23q0 13 -12 13h-52v82h92q50 0 50 -46v-19q0 -18 17 -18h168v-84z" />
    <glyph glyph-name="uni0E4A.alt2" unicode="&#xf70c;" horiz-adv-x="0" 
d="M-195 579l-12 28q15 11 15 25q0 17 -14 17l-56 -49l-53 49q-15 0 -15 -15q0 -18 16 -30l-15 -26h-63q-19 34 -19 63q0 35 24 61q27 29 72 33l53 -60q50 60 50 61q83 -8 83 -71q0 -17 -6 -25q28 11 28 67q0 23 -12 47h92q5 -18 5 -43q0 -56 -38 -94q-37 -38 -89 -38h-46z
" />
    <glyph glyph-name="uni0E4B.alt2" unicode="&#xf70d;" horiz-adv-x="0" 
d="M23 627l-71 3l3 -51h-105l3 51l-71 -3v86l71 -3l-3 51h105l-3 -51l71 3v-86z" />
    <glyph glyph-name="uni0E4C.alt2" unicode="&#xf70e;" horiz-adv-x="0" 
d="M-4 635h-96q-17 0 -17 -15v-41h-108v50q0 45 31 76t75 31h115v-101z" />
    <glyph glyph-name="uni0E0D.alt1" unicode="&#xf70f;" horiz-adv-x="824" 
d="M786 181q0 -188 -208 -188q-209 0 -209 196v138q0 102 -100 102q-78 0 -115 -56l56 -72q-42 -28 -42 -77v-116q0 -15 14 -15h38v-93h-74q-40 0 -69 29t-29 70v116q0 53 42 89q1 0 -59 66q20 63 84 106q68 46 154 46q96 0 158 -54t62 -135v-151q0 -96 90 -96q87 0 87 89
v336h120v-330z" />
    <glyph glyph-name="uni0E31.alt1" unicode="&#xf710;" horiz-adv-x="0" 
d="M29 574h-321q-39 0 -63 23q-24 22 -24 56v47h97v-24q0 -15 17 -15h294v-87z" />
    <glyph glyph-name="uni0E4D.alt1" unicode="&#xf711;" horiz-adv-x="0" 
d="M-190 654q0 -38 -27 -65t-65 -27t-65 27t-27 65t27 65t65 27t65 -27t27 -65zM-282 623q31 0 31 32q0 31 -31 31t-31 -31q0 -32 31 -32z" />
    <glyph glyph-name="uni0E47.alt1" unicode="&#xf712;" horiz-adv-x="0" 
d="M-173 575h-73q-45 0 -70 40q-22 -39 -88 -39q-47 0 -77 30t-30 75q0 43 31 74q37 36 101 36h88q40 0 40 33v12h88v-27q0 -39 -27 -66q-28 -29 -72 -29h-115q-39 0 -39 -30q0 -28 39 -28q41 0 62 25q20 -25 57 -25h85v-81z" />
    <glyph glyph-name="uni0E48.alt3" unicode="&#xf713;" horiz-adv-x="0" 
d="M-200 788h-92v140h92v-140z" />
    <glyph glyph-name="uni0E49.alt3" unicode="&#xf714;" horiz-adv-x="0" 
d="M-59 788h-195q-21 0 -35 14q-15 14 -15 35v20q0 13 -12 13h-52v72h79q50 0 50 -46v-14q0 -18 17 -18h163v-76z" />
    <glyph glyph-name="uni0E4A.alt3" unicode="&#xf715;" horiz-adv-x="0" 
d="M-173 788l-10 25q14 8 14 20q0 16 -13 16l-50 -42l-47 42q-13 0 -13 -14t14 -25l-13 -23h-55q-17 29 -17 55q0 30 21 53q23 24 63 28l47 -53l45 53q74 -8 74 -61q0 -14 -6 -21q25 9 25 57q0 23 -11 40h82q4 -18 4 -37q0 -47 -33 -80t-79 -33h-42z" />
    <glyph glyph-name="uni0E4B.alt3" unicode="&#xf716;" horiz-adv-x="0" 
d="M-147 828l-59 3l2 -43h-88l2 43l-59 -3v73l59 -3l-2 43h88l-2 -43l59 3v-73z" />
    <glyph glyph-name="uni0E4C.alt3" unicode="&#xf717;" horiz-adv-x="0" 
d="M-130 775h-96q-17 0 -17 -15v-37h-94v42q0 44 32 72q31 27 77 27h98v-89z" />
    <glyph glyph-name="uni0E38.alt1" unicode="&#xf718;" horiz-adv-x="0" 
d="M-38 -478h-99v116q0 11 -10 11h-49v93h92q29 0 48 -21q18 -21 18 -51v-148z" />
    <glyph glyph-name="uni0E39.alt1" unicode="&#xf719;" horiz-adv-x="0" 
d="M-42 -366q0 -56 -34 -88q-35 -33 -97 -33q-60 0 -93 33q-33 31 -33 84v15h-45v97h138v-112q0 -27 33 -27q34 0 34 31v108h97v-108z" />
    <glyph glyph-name="uni0E3A.alt1" unicode="&#xf71a;" horiz-adv-x="0" 
d="M-50 -366q-22 -21 -51 -21t-51 21t-22 49t22 50q22 21 51 21t51 -21q21 -21 21 -50q0 -28 -21 -49z" />
    <glyph glyph-name="uni0E0E.alt1" unicode="&#xf71b;" horiz-adv-x="550" 
d="M512 -200h-128q-45 42 -105 42q-82 0 -140 -49l-31 91q61 60 145 60q85 0 140 -63v446q0 48 -29 75t-77 27q-77 0 -114 -56l56 -72q-41 -27 -41 -77v-129q0 -37 -26 -66q-27 -29 -62 -29h-78v93h37q10 0 10 11v111q0 55 40 89q1 0 -59 66q20 64 84 106q67 46 153 46
q97 0 161 -54q64 -55 64 -137v-531z" />
    <glyph glyph-name="uni0E0F.alt1" unicode="&#xf71c;" horiz-adv-x="550" 
d="M512 -200h-103l-95 73q-10 -35 -46 -57q-34 -22 -72 -22q-66 0 -120 37l23 92q46 -36 97 -36q31 0 58 30q26 30 28 68l111 -76v418q0 48 -29 75t-77 27q-77 0 -114 -56l56 -72q-41 -27 -41 -77v-129q0 -37 -26 -66q-27 -29 -62 -29h-78v93h37q10 0 10 11v111q0 55 40 89
q1 0 -59 66q20 64 84 106q67 46 153 46q97 0 161 -54q64 -55 64 -137v-531z" />
    <glyph glyph-name="uni0E2C.alt1" unicode="&#xf71d;" horiz-adv-x="579" 
d="M541 0h-101l-150 227q-149 -227 -150 -227h-101v511h118v-273q0 -18 -8 -62h3q13 49 27 67l84 113h54l82 -113q14 -27 27 -67h3q-6 38 -6 62v86q0 19 -13 32q-12 13 -28 13h-23l-14 50l82 144h126l-90 -135q78 -27 78 -118v-310z" />
    <glyph glyph-name="apple" unicode="&#xf8ff;" horiz-adv-x="834" 
d="M682 189q0 -52 -37 -72l-203 -104v239q0 27 18 37l145 74q13 7 29 7q48 0 48 -54v-127zM416 0l-264 135v260q0 37 29 52l164 84q37 19 69 19q31 0 75 -21l115 -57q24 -12 24 -36q0 -29 -33 -45l-148 -75q-31 -16 -31 -61v-255z" />
    <glyph glyph-name="uni0E33.alt1" horiz-adv-x="442" 
d="M404 0h-120v327q0 98 -87 98q-82 0 -156 -72l-39 81q80 88 203 88q94 0 146 -54q53 -53 53 -148v-320zM-190 654q0 -38 -27 -65t-65 -27t-65 27t-27 65t27 65t65 27t65 -27t27 -65zM-282 623q31 0 31 32q0 31 -31 31t-31 -31q0 -32 31 -32z" />
    <glyph glyph-name="uni0E4E.alt1" horiz-adv-x="0" 
 />
  </font>
</defs>
</svg>
