<?xml version="1.0" standalone="no"?>
<!DOCTYPE svg PUBLIC "-//W3C//DTD SVG 1.1//EN" "http://www.w3.org/Graphics/SVG/1.1/DTD/svg11.dtd" >
<svg>
<metadata>
Created by FontForge 20120731 at Thu Nov 13 01:02:54 2014
 By Orthosie Webhosting
Copyright (c) Cadson Demak Co.,Ltd. All rights reserved.
This font is an exclusive license to Kelvin Wong
43/21 Citytownhome
Lardprao 80 Yaek 26
Lardprao Wangthonglang
Bangkok 10310 Thailand
</metadata>
<defs>
<font id="SukhumvitRegular" horiz-adv-x="484" >
  <font-face 
    font-family="SukhumvitRegular"
    font-weight="400"
    font-stretch="normal"
    units-per-em="1000"
    panose-1="2 0 5 6 0 0 0 2 0 4"
    ascent="800"
    descent="-200"
    x-height="444"
    cap-height="607"
    bbox="-489 -460 870 926"
    underline-thickness="20"
    underline-position="-113"
    unicode-range="U+0020-FB02"
  />
<missing-glyph horiz-adv-x="606" 
 />
    <glyph glyph-name="uni0E5A" unicode="&#xe2f;&#xe2f;" horiz-adv-x="687" 
d="M643 0h-85v381q-34 -70 -120 -77v-304h-85v381q-18 -38 -54.5 -57.5t-80.5 -19.5q-83 0 -130.5 45.5t-47.5 120.5v41h83v-34q0 -48 29.5 -77t78.5 -29q53 0 89 38t36 90v12h82v-140q52 1 87.5 38.5t35.5 89.5v12h82v-511z" />
    <glyph glyph-name="uni0E4F.liga" unicode="&#xe4f;&#x22;" horiz-adv-x="514" 
d="M260 5q-80 0 -137 57t-57 138q0 80 57 137t137 57t137 -57t57 -137q0 -81 -57 -138t-137 -57zM260 35q68 0 116 48.5t48 116.5t-48 116t-116 48t-116 -48t-48 -116t48 -116.5t116 -48.5zM260 87q-47 0 -80 33t-33 79q0 47 33 80t79 33q47 0 80 -33t33 -79q0 -47 -33 -80
t-79 -33zM214 436h-54v173h54v-173zM367 436h-55v173h55v-173zM260 116q34 0 58 24.5t24 59.5q0 34 -24.5 58t-58.5 24t-58.5 -24.5t-24.5 -58.5t24.5 -58.5t59.5 -24.5z" />
    <glyph glyph-name="uni0E24.liga" unicode="&#xe24;&#xe32;" horiz-adv-x="870" 
d="M826 -200h-85v533q0 58 -28.5 88t-81.5 30q-88 0 -152 -66q6 -23 6 -45v-540h-85v533q0 57 -33.5 89.5t-92.5 32.5q-50 0 -89 -21.5t-58 -57.5l56 -67q-38 -25 -38 -79v-144q0 -19 18 -19h36v-67h-68q-31 0 -51 22.5t-20 56.5v138q0 27 11 53.5t29 38.5l-57 67
q19 59 83.5 102.5t146.5 43.5q116 0 177 -79q81 79 189 79q88 0 137.5 -52t49.5 -144v-526z" />
    <glyph glyph-name="uni0E26.liga" unicode="&#xe26;&#xe32;" horiz-adv-x="880" 
d="M836 -200h-85v533q0 58 -28.5 88t-81.5 30q-85 0 -150 -63q8 -26 8 -51v-537h-85v533q0 57 -35.5 89.5t-94.5 32.5q-98 0 -141 -79l56 -67q-38 -25 -38 -79v-156q0 -31 -19.5 -52.5t-48.5 -21.5h-66v67h31q18 0 18 19v131q0 27 10.5 53.5t28.5 38.5l-57 67
q19 60 81.5 103t144.5 43q115 0 177 -78q82 78 188 78q88 0 137.5 -52t49.5 -144v-526z" />
    <glyph glyph-name="fi" unicode="fi" horiz-adv-x="580" 
d="M204 0h-81v378h-105v66h105v41q0 89 31.5 133.5t116.5 44.5q12 0 31 -2.5t24 -2.5l-3 -66q-15 5 -39 5q-48 0 -64 -26.5t-16 -78.5v-48h118v-66h-118v-378zM505 543h-92v92h92v-92zM500 0h-82v444h82v-444z" />
    <glyph glyph-name="fl" unicode="fl" horiz-adv-x="580" 
d="M204 0h-81v378h-105v66h105v41q0 89 31.5 133.5t116.5 44.5q12 0 31 -2.5t24 -2.5l-3 -66q-15 5 -39 5q-48 0 -64 -26.5t-16 -78.5v-48h118v-66h-118v-378zM500 0h-82v653h82v-653z" />
    <glyph glyph-name=".notdef" horiz-adv-x="606" 
 />
    <glyph glyph-name=".null" horiz-adv-x="0" 
 />
    <glyph glyph-name="nonmarkingreturn" horiz-adv-x="333" 
 />
    <glyph glyph-name="space" unicode=" " horiz-adv-x="288" 
 />
    <glyph glyph-name="exclam" unicode="!" horiz-adv-x="338" 
d="M218 0h-97v97h97v-97zM207 171h-75l-11 436h97z" />
    <glyph glyph-name="quotedbl" unicode="&#x22;" 
d="M215 394h-77v213h77v-213zM345 394h-76v213h76v-213z" />
    <glyph glyph-name="numbersign" unicode="#" 
d="M285 247l16 113h-103l-15 -113h102zM317 0h-66l25 181h-103l-25 -181h-66l25 181h-83v66h93l15 113h-83v66h93l25 181h66l-25 -181h103l25 181h66l-25 -181h82v-66h-92l-16 -113h83v-66h-92z" />
    <glyph glyph-name="dollar" unicode="$" 
d="M265 -92h-50v82h-11q-68 0 -132 25l11 83q45 -32 120 -32h12v212l-30 14q-120 56 -120 160q0 64 42.5 108t107.5 54v87h50v-83q63 -1 125 -22l-12 -80q-43 25 -104 25h-9v-189l51 -27q52 -28 77 -63t25 -92q0 -71 -41.5 -118t-111.5 -57v-87zM265 252v-176q27 8 44 33
t17 55q0 33 -15.5 52.5t-45.5 35.5zM215 378v156q-58 -20 -58 -79q0 -17 10 -32.5t20 -23.5t28 -21z" />
    <glyph glyph-name="percent" unicode="%" horiz-adv-x="870" 
d="M226 331q54 0 54 113t-54 113t-54 -113t54 -113zM278 -19h-63l377 645h62zM226 270q-69 0 -99.5 49t-30.5 125q0 80 28.5 127t101.5 47t101.5 -47t28.5 -127q0 -76 -30.5 -125t-99.5 -49zM644 51q54 0 54 113t-54 113t-54 -113t54 -113zM644 -10q-69 0 -99.5 49
t-30.5 125q0 80 28.5 127t101.5 47t101.5 -47t28.5 -127q0 -76 -30.5 -125t-99.5 -49z" />
    <glyph glyph-name="ampersand" unicode="&#x26;" horiz-adv-x="628" 
d="M281 371q33 15 62 44t29 62q0 75 -72 75q-32 0 -52.5 -21t-20.5 -58q0 -46 54 -102zM396 114l-146 171q-29 -19 -44 -32t-28.5 -36.5t-13.5 -51.5q0 -49 35.5 -79t84.5 -30q62 0 112 58zM600 0h-108l-50 59q-62 -69 -174 -69q-90 0 -143 46t-53 123q0 121 136 178
q-63 77 -63 138q0 70 45 106.5t114 36.5q64 0 107 -35t43 -103q0 -52 -39 -93.5t-94 -64.5l124 -141q31 51 37 147h82q-9 -116 -70 -208z" />
    <glyph glyph-name="quotesingle" unicode="'" horiz-adv-x="242" 
d="M159 394h-76v213h76v-213z" />
    <glyph glyph-name="parenleft" unicode="(" horiz-adv-x="290" 
d="M278 -122h-79q-69 107 -105.5 197t-36.5 193q0 102 36 191t106 199h79q-63 -110 -98.5 -202.5t-35.5 -187.5q0 -165 134 -390z" />
    <glyph glyph-name="parenright" unicode=")" horiz-adv-x="290" 
d="M90 -122h-78q42 76 66.5 126.5t46 124t21.5 139.5q0 96 -35.5 188t-98.5 202h78q69 -103 106 -195.5t37 -194.5t-37 -194.5t-106 -195.5z" />
    <glyph glyph-name="asterisk" unicode="*" 
d="M378 313l-66 -43l-70 120l-71 -120l-65 43l96 107l-139 29l24 74l131 -54l-14 138h80l-13 -138l127 54l23 -74l-137 -29z" />
    <glyph glyph-name="plus" unicode="+" horiz-adv-x="522" 
d="M299 0h-76v182h-182v76h182v182h76v-182h182v-76h-182v-182z" />
    <glyph glyph-name="comma" unicode="," horiz-adv-x="242" 
d="M96 -116h-79l55 213h98z" />
    <glyph glyph-name="hyphen" unicode="-" horiz-adv-x="290" 
d="M257 201h-224v66h224v-66z" />
    <glyph glyph-name="period" unicode="." horiz-adv-x="242" 
d="M170 0h-98v97h98v-97z" />
    <glyph glyph-name="slash" unicode="/" horiz-adv-x="242" 
d="M55 -10h-77l209 628h77z" />
    <glyph glyph-name="zero" unicode="0" 
d="M242 61q36 0 61 25.5t35.5 68.5t14 77t3.5 72q0 36 -4 71t-15 77t-35.5 68t-59.5 26t-60 -26t-35.5 -68t-14.5 -77t-4 -71q0 -243 114 -243zM242 -10q-49 0 -86.5 20t-59.5 51.5t-36 74.5t-19 83.5t-5 84.5q0 56 9 106t30 99.5t64 79t103 29.5t102.5 -29.5t64 -78.5
t30.5 -99.5t9 -106.5t-9 -106.5t-30.5 -100t-64 -78.5t-102.5 -29z" />
    <glyph glyph-name="one" unicode="1" 
d="M321 0h-87v507l-93 -80l-46 58l149 122h77v-607z" />
    <glyph glyph-name="two" unicode="2" 
d="M428 0h-384v93q87 78 110 100q42 39 62.5 60.5t51.5 58.5t45 71t14 67q0 42 -33.5 69t-82.5 27q-68 0 -140 -39l-8 75q80 36 159 36q85 0 141 -45.5t56 -127.5q0 -29 -9.5 -59.5t-31 -62.5t-40 -56.5t-52.5 -58t-51 -50t-54 -49t-44 -38.5h291v-71z" />
    <glyph glyph-name="three" unicode="3" 
d="M44 13l6 81q64 -33 133 -33q58 0 103 25t45 78q0 116 -152 116h-53v71h49q35 0 67 8.5t57.5 32.5t25.5 59q0 49 -33.5 72t-85.5 23q-71 0 -135 -33l-5 78q74 27 152 27q87 0 143.5 -42t56.5 -124q0 -54 -38 -91t-93 -47v-2q136 -27 136 -150q0 -172 -239 -172
q-65 0 -140 23z" />
    <glyph glyph-name="four" unicode="4" 
d="M386 0h-87v138h-282v72l245 397h124v-397h77v-72h-77v-138zM299 210v326l-191 -326h191z" />
    <glyph glyph-name="five" unicode="5" 
d="M70 10l3 81q55 -30 126 -30q58 0 100 32.5t42 87.5q0 62 -41.5 96t-105.5 34q-60 0 -117 -23l5 319h334v-71h-252l-6 -163q31 9 79 9q81 0 138.5 -54t57.5 -134q0 -96 -66.5 -150t-165.5 -54q-80 0 -131 20z" />
    <glyph glyph-name="six" unicode="6" 
d="M244 61q52 0 80 37.5t28 90.5q0 47 -26.5 84.5t-74.5 37.5q-53 0 -83.5 -35t-30.5 -87q0 -49 28.5 -88.5t78.5 -39.5zM417 599l-12 -78q-47 25 -108 25q-81 0 -124.5 -63t-45.5 -158l2 1q55 56 133 56q85 0 134 -54t49 -137q0 -92 -55 -146.5t-140 -54.5q-205 0 -205 291
q0 52 7 98.5t24.5 91t44.5 76.5t70.5 51.5t99.5 19.5q74 0 126 -19z" />
    <glyph glyph-name="seven" unicode="7" 
d="M203 0h-96l231 536h-295v71h384v-71z" />
    <glyph glyph-name="eight" unicode="8" 
d="M260 350q51 39 65.5 62.5t14.5 57.5q0 39 -31.5 57.5t-70.5 18.5q-36 0 -69.5 -23t-33.5 -63q0 -29 29 -53.5t96 -56.5zM358 157q0 25 -6 43t-22.5 32t-26.5 20t-39 18.5t-38 16.5q-9 -7 -28.5 -19t-29 -19.5t-21.5 -20t-17 -28t-5 -36.5q0 -47 37 -75t86 -28
q47 0 78 25.5t32 70.5zM162 319v2q-114 38 -114 151q0 60 53.5 103t142.5 43q86 0 137 -41.5t51 -95.5q0 -52 -24.5 -88t-84.5 -68q58 -21 93 -62.5t35 -98.5q0 -87 -59.5 -130.5t-151.5 -43.5q-83 0 -145 45t-62 124q0 58 35.5 99t93.5 61z" />
    <glyph glyph-name="nine" unicode="9" 
d="M233 297q53 0 83 34.5t30 86.5q0 49 -28.5 88.5t-78.5 39.5q-53 0 -80.5 -37t-27.5 -91q0 -47 27 -84t75 -37zM357 282l-2 -1q-56 -56 -133 -56q-85 0 -134 54t-49 138q0 92 55 146.5t140 54.5q204 0 204 -292q0 -66 -12 -122.5t-38.5 -106.5t-76.5 -78.5t-119 -28.5
q-31 0 -70.5 6t-54.5 13l12 77q47 -25 108 -25q80 0 124 63.5t46 157.5z" />
    <glyph glyph-name="colon" unicode=":" horiz-adv-x="242" 
d="M170 0h-98v97h98v-97zM170 346h-98v98h98v-98z" />
    <glyph glyph-name="semicolon" unicode=";" horiz-adv-x="242" 
d="M170 346h-98v98h98v-98zM96 -116h-79l55 213h98z" />
    <glyph glyph-name="less" unicode="&#x3c;" horiz-adv-x="522" 
d="M482 -7l-442 194v66l442 194v-76l-343 -151l343 -150v-77z" />
    <glyph glyph-name="equal" unicode="=" horiz-adv-x="522" 
d="M481 90h-440v77h440v-77zM481 273h-440v77h440v-77z" />
    <glyph glyph-name="greater" unicode="&#x3e;" horiz-adv-x="522" 
d="M482 187l-442 -194v77l343 150l-343 151v76l442 -194v-66z" />
    <glyph glyph-name="question" unicode="?" horiz-adv-x="435" 
d="M267 0h-97v97h97v-97zM259 171h-82v18q0 40 11.5 66t42.5 63q2 2 14 15.5t15 18t13 17t13.5 20t9 19t7.5 22.5t2 23q0 43 -30.5 65.5t-75.5 22.5q-81 0 -129 -35l-6 83q71 29 145 29q76 0 132 -42t56 -117q0 -40 -17.5 -74t-53.5 -75t-48 -60q-19 -28 -19 -64v-15z" />
    <glyph glyph-name="at" unicode="@" horiz-adv-x="696" 
d="M559 128h66q-43 -65 -111.5 -101.5t-147.5 -36.5q-140 0 -231 84t-91 230q0 139 92 226.5t226 87.5q118 0 204.5 -73.5t86.5 -185.5q0 -58 -22.5 -106.5t-56.5 -77t-67.5 -43.5t-60.5 -15q-45 0 -50 49h-2q-47 -49 -95 -49q-54 0 -91 41t-37 99q0 86 52 152t135 66
q63 0 99 -57l13 45h65l-58 -221q-7 -23 -7 -37q2 -21 15 -21q39 0 73 49t34 113q0 98 -66 154.5t-165 56.5q-109 0 -177.5 -73.5t-68.5 -181.5q0 -120 70.5 -186t184.5 -66q117 0 189 78zM318 189q47 0 79.5 46t32.5 96q0 31 -19.5 52t-47.5 21q-49 0 -82.5 -44t-33.5 -92
q0 -36 19 -57.5t52 -21.5z" />
    <glyph glyph-name="A" unicode="A" horiz-adv-x="628" 
d="M433 224l-121 301l-121 -301h242zM618 0h-95l-62 153h-297l-62 -153h-92l260 607h91z" />
    <glyph glyph-name="B" unicode="B" horiz-adv-x="532" 
d="M159 348h48q29 0 49 1.5t42 7t35 15.5t21.5 28.5t8.5 44.5q0 49 -33.5 70t-78.5 21h-92v-188zM159 71h65q69 0 109 21t40 78q0 33 -13.5 55.5t-37.5 33t-49 14.5t-57 4h-57v-206zM234 0h-162v607h165q213 0 213 -153q0 -111 -125 -144v-2q63 -6 101.5 -45t38.5 -101
q0 -47 -18 -80t-51.5 -50.5t-72 -24.5t-89.5 -7z" />
    <glyph glyph-name="C" unicode="C" horiz-adv-x="532" 
d="M499 96l6 -85q-52 -21 -139 -21q-145 0 -232.5 86t-87.5 230q0 140 90.5 226t230.5 86q77 0 137 -26l-7 -85q-58 34 -126 34q-104 0 -168.5 -67t-64.5 -170q0 -105 66.5 -171.5t162.5 -66.5q85 0 132 30z" />
    <glyph glyph-name="D" unicode="D" horiz-adv-x="628" 
d="M159 77h92q232 0 232 228q0 103 -63 164.5t-159 61.5h-102v-454zM251 0h-179v607h179q140 0 232 -80.5t92 -217.5q0 -151 -85.5 -230t-238.5 -79z" />
    <glyph glyph-name="E" unicode="E" 
d="M422 0h-340v607h340v-76h-253v-178h230v-76h-230v-200h253v-77z" />
    <glyph glyph-name="F" unicode="F" horiz-adv-x="435" 
d="M159 0h-87v607h323v-76h-236v-178h226v-76h-226v-277z" />
    <glyph glyph-name="G" unicode="G" horiz-adv-x="628" 
d="M465 77v184h-128v71h215v-315q-79 -27 -186 -27q-145 0 -232.5 86t-87.5 230q0 140 90.5 226t230.5 86q26 0 47 -1.5t41 -5.5t29.5 -6t32 -9t28.5 -9l-6 -88q-66 42 -168 42q-104 0 -168.5 -67.5t-64.5 -169.5q0 -105 66.5 -171.5t162.5 -66.5q50 0 98 11z" />
    <glyph glyph-name="H" unicode="H" horiz-adv-x="628" 
d="M546 0h-87v277h-290v-277h-87v607h87v-254h290v254h87v-607z" />
    <glyph glyph-name="I" unicode="I" horiz-adv-x="242" 
d="M164 0h-87v607h87v-607z" />
    <glyph glyph-name="J" unicode="J" horiz-adv-x="338" 
d="M18 0v75q26 -9 55 -9q56 0 77.5 29.5t21.5 88.5v423h87v-450q0 -167 -170 -167q-45 0 -71 10z" />
    <glyph glyph-name="K" unicode="K" horiz-adv-x="580" 
d="M566 0h-127l-270 298v-298h-87v607h87v-267l259 267h116l-286 -287z" />
    <glyph glyph-name="L" unicode="L" horiz-adv-x="435" 
d="M418 0h-341v607h87v-530h254v-77z" />
    <glyph glyph-name="M" unicode="M" horiz-adv-x="821" 
d="M743 0h-87v525h-2l-201 -525h-85l-201 525h-2v-525h-87v607h144l190 -504l187 504h144v-607z" />
    <glyph glyph-name="N" unicode="N" horiz-adv-x="628" 
d="M552 0h-112l-275 499h-1v-499h-87v607h118l268 -489h2v489h87v-607z" />
    <glyph glyph-name="O" unicode="O" horiz-adv-x="677" 
d="M338 -10q-137 0 -214.5 86t-77.5 228q0 138 78.5 226t213.5 88q136 0 214.5 -88t78.5 -226q0 -142 -77.5 -228t-215.5 -86zM338 66q98 0 149.5 69t51.5 169q0 99 -52.5 168t-148.5 69q-95 0 -147.5 -69t-52.5 -168q0 -64 20.5 -116t67 -87t112.5 -35z" />
    <glyph glyph-name="P" unicode="P" 
d="M159 0h-87v607h159q228 0 228 -182q0 -94 -61.5 -138t-153.5 -44h-85v-243zM159 319h86q48 0 85 26.5t37 80.5q0 52 -42.5 78.5t-91.5 26.5h-74v-212z" />
    <glyph glyph-name="Q" unicode="Q" horiz-adv-x="677" 
d="M608 -112h-108l-113 105q-16 -3 -49 -3q-137 0 -214.5 86t-77.5 228q0 138 78.5 226t213.5 88q136 0 214.5 -88t78.5 -226q0 -103 -43 -178.5t-121 -109.5zM338 66q98 0 149.5 69t51.5 169q0 99 -52.5 168t-148.5 69q-95 0 -147.5 -69t-52.5 -168q0 -64 20.5 -116t67 -87
t112.5 -35z" />
    <glyph glyph-name="R" unicode="R" horiz-adv-x="532" 
d="M159 346h74q63 0 97.5 25t34.5 70q0 43 -31.5 66.5t-90.5 23.5h-84v-185zM505 0h-99l-93 211q-12 28 -28.5 41.5t-30 15.5t-43.5 2h-52v-270h-87v607h149q41 0 71.5 -3t63 -13t53.5 -27.5t34.5 -48t13.5 -72.5q0 -55 -35.5 -92.5t-90.5 -45.5v-2q20 -8 32.5 -20.5
t27.5 -40.5z" />
    <glyph glyph-name="S" unicode="S" horiz-adv-x="435" 
d="M48 15l9 81q65 -30 126 -30q44 0 81.5 25.5t37.5 73.5q0 37 -27 63t-65 43.5t-76.5 37t-65.5 55.5t-27 88q0 78 55 122t140 44q69 0 129 -22l-12 -80q-65 25 -114 25q-43 0 -74.5 -19t-31.5 -62q0 -31 27 -54.5t65.5 -41t76.5 -39t65 -60.5t27 -94q0 -93 -61.5 -137
t-160.5 -44q-47 0 -124 25z" />
    <glyph glyph-name="T" unicode="T" 
d="M285 0h-87v531h-188v76h464v-76h-189v-531z" />
    <glyph glyph-name="U" unicode="U" horiz-adv-x="628" 
d="M463 263v344h87v-356q0 -128 -61 -194.5t-175 -66.5t-175 66.5t-61 194.5v356h87v-344q0 -197 149 -197t149 197z" />
    <glyph glyph-name="V" unicode="V" horiz-adv-x="580" 
d="M343 0h-109l-229 607h98l187 -530h1l193 530h91z" />
    <glyph glyph-name="W" unicode="W" horiz-adv-x="870" 
d="M681 0h-112l-132 531h-2l-133 -531h-117l-183 607h95l146 -520h1l130 520h124l131 -520h2l145 520h92z" />
    <glyph glyph-name="X" unicode="X" horiz-adv-x="580" 
d="M573 0h-109l-180 258l-173 -258h-104l224 316l-204 291h104l162 -233l161 233h99l-204 -289z" />
    <glyph glyph-name="Y" unicode="Y" horiz-adv-x="580" 
d="M334 0h-87v254l-237 353h101l181 -272l177 272h102l-237 -353v-254z" />
    <glyph glyph-name="Z" unicode="Z" 
d="M448 0h-420v78l315 453h-305v76h405v-78l-314 -452h319v-77z" />
    <glyph glyph-name="bracketleft" unicode="[" horiz-adv-x="290" 
d="M247 -122h-164v780h164v-61h-88v-658h88v-61z" />
    <glyph glyph-name="backslash" unicode="\" horiz-adv-x="242" 
d="M264 -10h-77l-209 628h77z" />
    <glyph glyph-name="bracketright" unicode="]" horiz-adv-x="290" 
d="M207 -122h-164v61h88v658h-88v61h164v-780z" />
    <glyph glyph-name="asciicircum" unicode="^" horiz-adv-x="522" 
d="M470 256h-78l-131 271l-130 -271h-79l173 351h72z" />
    <glyph glyph-name="underscore" unicode="_" horiz-adv-x="435" 
d="M435 -109h-435v44h435v-44z" />
    <glyph glyph-name="grave" unicode="`" horiz-adv-x="242" 
d="M178 505h-58l-114 126h95z" />
    <glyph glyph-name="a" unicode="a" 
d="M333 172v39q-8 0 -25.5 1t-26.5 1q-22 0 -43.5 -2.5t-49 -10.5t-44.5 -26.5t-17 -45.5q0 -33 25.5 -52.5t57.5 -19.5q59 0 91 32.5t32 83.5zM418 0h-76v57h-2q-18 -26 -52.5 -46.5t-84.5 -20.5q-163 0 -163 138q0 39 20 69t52 46t66 23.5t68 7.5h44q11 0 43 -2
q0 60 -25 88t-84 28q-76 0 -129 -45l-5 69q69 42 147 42q94 0 136 -45t42 -138v-184q0 -48 3 -87z" />
    <glyph glyph-name="b" unicode="b" horiz-adv-x="532" 
d="M282 56q61 0 92 52.5t31 115.5q0 67 -30 115.5t-92 48.5q-63 0 -97.5 -49.5t-34.5 -117.5q0 -64 33.5 -114.5t97.5 -50.5zM148 0h-78v653h81v-270h2q44 71 147 71q92 0 142 -64.5t50 -159.5q0 -65 -19 -117.5t-63.5 -87.5t-108.5 -35q-54 0 -94.5 22t-56.5 51h-2v-63z
" />
    <glyph glyph-name="c" unicode="c" horiz-adv-x="386" 
d="M356 81l6 -73q-37 -18 -103 -18q-98 0 -162 67t-64 165q0 102 62.5 167t163.5 65q56 0 99 -17l-7 -68q-49 19 -88 19q-65 0 -104 -49.5t-39 -116.5t37.5 -116.5t110.5 -49.5q49 0 88 25z" />
    <glyph glyph-name="d" unicode="d" horiz-adv-x="532" 
d="M250 56q64 0 97 50.5t33 114.5q0 68 -34.5 117.5t-96.5 49.5q-61 0 -91.5 -48.5t-30.5 -115.5q0 -62 31.5 -115t91.5 -53zM462 0h-78v63h-2q-18 -30 -57.5 -51.5t-93.5 -21.5q-95 0 -143 69.5t-48 170.5q0 95 50 159.5t141 64.5q103 0 147 -71h2v270h82v-653z" />
    <glyph glyph-name="e" unicode="e" 
d="M127 264h230q0 53 -30 88.5t-81 35.5q-56 0 -84 -36t-35 -88zM410 100v-82q-4 -1 -19.5 -6.5t-24 -8t-24.5 -6.5t-33.5 -5.5t-38.5 -1.5q-115 0 -172.5 64t-57.5 176q0 99 57.5 161.5t150.5 62.5q196 0 196 -250h-317q0 -64 43.5 -106t102.5 -42q38 0 77 14.5t60 29.5z
" />
    <glyph glyph-name="f" unicode="f" horiz-adv-x="338" 
d="M204 0h-81v378h-105v66h105v41q0 89 31.5 133.5t116.5 44.5q12 0 31 -2.5t24 -2.5l-3 -66q-15 5 -39 5q-48 0 -64 -26.5t-16 -78.5v-48h118v-66h-118v-378z" />
    <glyph glyph-name="g" unicode="g" horiz-adv-x="532" 
d="M251 66q56 0 92.5 44t36.5 107q0 73 -33.5 122t-95.5 49q-58 0 -91 -51t-33 -114q0 -65 34 -111t90 -46zM380 25v44h-2q-51 -69 -148 -69q-91 0 -140.5 63t-49.5 155q0 60 21 112t67.5 88t109.5 36q107 0 147 -76h1v66h76v-425q0 -212 -229 -212q-69 0 -159 30l9 76
q53 -23 85 -31.5t75 -8.5q65 0 101 41t36 111z" />
    <glyph glyph-name="h" unicode="h" horiz-adv-x="532" 
d="M462 0h-82v230q0 81 -21 118t-73 40q-67 0 -101 -49.5t-34 -133.5v-205h-81v653h81v-273h2q48 74 143 74q166 0 166 -190v-264z" />
    <glyph glyph-name="i" unicode="i" horiz-adv-x="242" 
d="M167 543h-92v92h92v-92zM162 0h-82v444h82v-444z" />
    <glyph glyph-name="j" unicode="j" horiz-adv-x="242" 
d="M167 543h-92v92h92v-92zM-14 -190l3 71q11 -3 33 -3q27 0 42.5 25.5t15.5 68.5v472h82v-460q0 -26 -1 -44t-8 -45.5t-19 -44.5t-37 -30t-60 -13q-15 0 -51 3z" />
    <glyph glyph-name="k" unicode="k" 
d="M467 0h-117l-199 228v-228h-81v653h81v-389l179 180h111l-206 -197z" />
    <glyph glyph-name="l" unicode="l" horiz-adv-x="242" 
d="M162 0h-82v653h82v-653z" />
    <glyph glyph-name="m" unicode="m" horiz-adv-x="773" 
d="M706 0h-82v264q0 124 -79 124q-59 0 -88 -47.5t-29 -116.5v-224h-82v264q0 124 -79 124q-59 0 -87.5 -47.5t-28.5 -116.5v-224h-82v444h76v-65h2q46 75 141 75q41 0 75.5 -21.5t50.5 -64.5q20 43 61 64.5t77 21.5q80 0 117 -45.5t37 -124.5v-284z" />
    <glyph glyph-name="n" unicode="n" horiz-adv-x="532" 
d="M462 0h-82v230q0 81 -21 118t-73 40q-67 0 -101 -49.5t-34 -133.5v-205h-81v444h79v-71h2q18 38 57.5 59.5t87.5 21.5q166 0 166 -190v-264z" />
    <glyph glyph-name="o" unicode="o" horiz-adv-x="532" 
d="M266 56q67 0 103 50t36 116q0 67 -38.5 116.5t-100.5 49.5t-100.5 -49.5t-38.5 -116.5t36 -116.5t103 -49.5zM266 -10q-98 0 -162 67t-64 165q0 102 62.5 167t163.5 65t163.5 -65t62.5 -167q0 -98 -64 -165t-162 -67z" />
    <glyph glyph-name="p" unicode="p" horiz-adv-x="532" 
d="M282 56q61 0 92 52.5t31 115.5q0 67 -30 115.5t-92 48.5q-63 0 -97.5 -49.5t-34.5 -117.5q0 -64 33.5 -114.5t97.5 -50.5zM151 -183h-81v627h78v-63h2q17 28 57.5 50.5t92.5 22.5q92 0 142 -64.5t50 -159.5q0 -65 -19 -117.5t-63.5 -87.5t-108.5 -35q-105 0 -148 71h-2
v-244z" />
    <glyph glyph-name="q" unicode="q" horiz-adv-x="532" 
d="M250 56q64 0 97 50.5t33 114.5q0 68 -34.5 117.5t-96.5 49.5q-61 0 -91.5 -48.5t-30.5 -115.5q0 -62 31.5 -115t91.5 -53zM462 -183h-82v241h-2q-19 -31 -58.5 -49.5t-88.5 -18.5q-95 0 -143 69.5t-48 170.5q0 95 50 159.5t141 64.5q54 0 93.5 -22t57.5 -52h2v64h78v-627
z" />
    <glyph glyph-name="r" unicode="r" horiz-adv-x="338" 
d="M151 0h-81v444h76v-69h2q16 35 48 57t68 22q28 0 54 -6v-73q-26 8 -46 8q-54 0 -87.5 -49t-33.5 -132v-202z" />
    <glyph glyph-name="s" unicode="s" horiz-adv-x="338" 
d="M32 14l5 73q47 -31 101 -31q33 0 58.5 15t25.5 48q0 22 -20 39.5t-48 30.5t-56 28t-48 40.5t-20 60.5q0 67 43 101.5t113 34.5q42 0 102 -17l-7 -72q-12 9 -41 16t-45 7q-33 0 -55.5 -14t-22.5 -40q0 -25 20 -42.5t48 -29t56 -26t48 -42t20 -66.5q0 -68 -45 -103
t-110 -35q-78 0 -122 24z" />
    <glyph glyph-name="t" unicode="t" horiz-adv-x="338" 
d="M312 71v-69q-33 -12 -69 -12q-137 0 -137 128v260h-100v66h100v102l82 26v-128h117v-66h-117v-243q0 -37 20 -58t49 -21q33 0 55 15z" />
    <glyph glyph-name="u" unicode="u" horiz-adv-x="532" 
d="M462 0h-79v70h-2q-18 -38 -57.5 -59t-87.5 -21q-166 0 -166 190v264h81v-230q0 -81 21 -118t73 -40q68 0 101.5 49t33.5 133v206h82v-444z" />
    <glyph glyph-name="v" unicode="v" horiz-adv-x="435" 
d="M266 0h-97l-159 444h89l120 -362h2l123 362h81z" />
    <glyph glyph-name="w" unicode="w" horiz-adv-x="725" 
d="M572 0h-95l-115 372h-2l-112 -372h-95l-143 444h90l102 -367h2l113 367h96l112 -367h1l108 367h80z" />
    <glyph glyph-name="x" unicode="x" horiz-adv-x="435" 
d="M426 0h-101l-109 174l-110 -174h-97l160 232l-145 212h102l97 -159l98 159h91l-142 -212z" />
    <glyph glyph-name="y" unicode="y" horiz-adv-x="435" 
d="M31 -187l6 67q16 -7 38 -7q46 0 71.5 44t25.5 66q-1 10 -15 47l-151 414h90l119 -367h2l121 367h83l-167 -464q-11 -29 -16 -42t-17 -38t-23 -38t-27.5 -27.5t-37.5 -21t-46 -6.5q-33 0 -56 6z" />
    <glyph glyph-name="z" unicode="z" horiz-adv-x="435" 
d="M398 0h-361v71l256 307h-243v66h338v-72l-256 -306h266v-66z" />
    <glyph glyph-name="braceleft" unicode="{" horiz-adv-x="290" 
d="M273 -122h-68q-35 0 -66.5 30t-31.5 80v158q0 42 -23 67t-52 25v60q28 0 51.5 24.5t23.5 62.5v163q0 50 31.5 80t66.5 30h68v-61h-46q-43 0 -43 -66v-158q0 -27 -9 -47.5t-23.5 -32t-25.5 -16.5t-22 -8v-2q10 -1 21.5 -6.5t26 -16.5t23.5 -33t9 -51v-155q0 -66 43 -66h46
v-61z" />
    <glyph glyph-name="bar" unicode="|" horiz-adv-x="193" 
d="M135 -218h-77v871h77v-871z" />
    <glyph glyph-name="braceright" unicode="}" horiz-adv-x="290" 
d="M84 -122h-67v61h46q43 0 43 66v158q0 50 26 74t54 30v2q-11 1 -22.5 6.5t-25.5 16.5t-23 33t-9 51v155q0 66 -43 66h-46v61h67q36 0 67.5 -30t31.5 -80v-158q0 -42 23 -67t52 -25v-60q-28 0 -51.5 -24.5t-23.5 -62.5v-163q0 -50 -31.5 -80t-67.5 -30z" />
    <glyph glyph-name="asciitilde" unicode="~" horiz-adv-x="522" 
d="M431 290l31 -61q-36 -74 -109 -74q-33 0 -99 29.5t-86 29.5q-7 0 -14 -1.5t-13.5 -6.5t-11 -7.5t-11 -11t-9 -11t-10 -13.5t-8.5 -12l-31 60q36 74 109 74q33 0 99 -29.5t86 -29.5q16 0 31.5 11.5t23.5 21.5t22 31z" />
    <glyph glyph-name="uni007F" horiz-adv-x="500" 
 />
    <glyph glyph-name="nbspace" unicode="&#xa0;" horiz-adv-x="288" 
 />
    <glyph glyph-name="exclamdown" unicode="&#xa1;" horiz-adv-x="338" 
d="M218 346h-97v98h97v-98zM218 -164h-97l11 437h75z" />
    <glyph glyph-name="cent" unicode="&#xa2;" 
d="M400 81l6 -73q-37 -18 -102 -18q-39 0 -69 10l-34 -116h-50l40 136q-54 30 -84 83.5t-30 118.5q0 102 63 167t164 65h5q4 0 7 -1l29 99h49l-30 -104q33 -8 39 -11l-7 -68q-26 11 -51 15l-91 -318q32 -10 58 -10q49 0 88 25zM212 95l85 292q-61 -4 -97 -52.5t-36 -112.5
q0 -79 48 -127z" />
    <glyph glyph-name="sterling" unicode="&#xa3;" 
d="M432 0h-381v77h80v226h-69v50h69v49q0 97 54.5 156.5t155.5 59.5q52 0 103 -17l-7 -81q-46 21 -87 21q-132 0 -132 -145v-43h140v-50h-140v-226h214v-77z" />
    <glyph glyph-name="currency" unicode="&#xa4;" 
d="M242 159q58 0 98.5 43.5t40.5 101.5q0 59 -40.5 101.5t-98.5 42.5t-98.5 -42.5t-40.5 -101.5q0 -61 40.5 -103t98.5 -42zM419 83l-47 49q-50 -44 -130 -44q-79 0 -129 44l-48 -49l-44 44l49 50q-44 50 -44 127q0 81 44 128l-49 47l44 46l48 -48q51 42 129 42
q76 0 130 -42l47 48l44 -46l-47 -47q42 -46 42 -128q0 -78 -42 -127l47 -50z" />
    <glyph glyph-name="yen" unicode="&#xa5;" 
d="M286 0h-87v141h-122v50h122v63l-7 14h-115v50h87l-159 289h97l142 -272l138 272h97l-158 -289h88v-50h-116l-7 -14v-63h123v-50h-123v-141z" />
    <glyph glyph-name="brokenbar" unicode="&#xa6;" horiz-adv-x="193" 
d="M135 -152h-77v304h77v-304zM135 283h-77v304h77v-304z" />
    <glyph glyph-name="section" unicode="&#xa7;" 
d="M312 172q32 38 32 66q0 32 -28.5 52.5t-75 36.5t-58.5 23q-32 -26 -32 -68q0 -24 20 -43.5t43 -29t56 -21t43 -16.5zM77 -86l8 80q58 -31 144 -31q41 0 72 21t31 59q0 25 -26.5 42t-65 29t-76.5 27.5t-64.5 47t-26.5 76.5q0 71 64 108q-60 35 -60 104q0 67 55.5 104
t126.5 37q60 0 126 -17l-8 -79q-59 24 -106 24q-43 0 -78 -14.5t-35 -51.5q0 -28 27 -47t65.5 -31.5t77 -27.5t65.5 -45t27 -75q0 -36 -14.5 -59.5t-47.5 -50.5q56 -34 56 -99q0 -76 -60.5 -114.5t-135.5 -38.5q-78 0 -141 22z" />
    <glyph glyph-name="dieresis" unicode="&#xa8;" horiz-adv-x="242" 
d="M233 512h-82v87h82v-87zM90 512h-81v87h81v-87z" />
    <glyph glyph-name="copyright" unicode="&#xa9;" horiz-adv-x="696" 
d="M348 50q99 0 168.5 72.5t69.5 181.5q0 108 -69.5 180.5t-168.5 72.5t-168.5 -72.5t-69.5 -180.5q0 -109 69.5 -181.5t168.5 -72.5zM348 -10q-130 0 -222 91.5t-92 222.5q0 129 92.5 221.5t221.5 92.5t221.5 -92.5t92.5 -221.5q0 -131 -92 -222.5t-222 -91.5zM443 248h63
q-10 -64 -51 -100t-99 -36q-80 0 -129.5 55t-49.5 137q0 84 47 136.5t129 52.5q60 0 102.5 -34.5t50.5 -95.5h-63q-7 32 -31 50.5t-58 18.5q-54 0 -82 -35t-28 -92q0 -58 30.5 -95t81.5 -37q36 0 59 19.5t28 55.5z" />
    <glyph glyph-name="ordfeminine" unicode="&#xaa;" horiz-adv-x="314" 
d="M219 440v24q-3 0 -14 0.5t-21 0.5q-93 0 -93 -47q0 -14 15.5 -22t36.5 -8q76 0 76 52zM293 345h-73v33h-2q-25 -40 -85 -40q-42 0 -77.5 19t-35.5 64q0 35 27.5 56.5t57 27.5t61.5 6h28q7 0 25 -2q0 58 -68 58q-53 0 -94 -28l-2 54q49 25 102 25q66 0 100 -23.5t34 -87.5
v-111q0 -13 0.5 -24.5t1 -17.5t0.5 -9z" />
    <glyph glyph-name="guillemotleft" unicode="&#xab;" 
d="M421 58h-76l-125 176l125 176h76l-113 -176zM245 58h-76l-125 176l125 176h76l-113 -176z" />
    <glyph glyph-name="logicalnot" unicode="&#xac;" horiz-adv-x="522" 
d="M481 90h-76v183h-364v77h440v-260z" />
    <glyph glyph-name="uni00AD" unicode="&#xad;" horiz-adv-x="290" 
d="M257 201h-224v66h224v-66z" />
    <glyph glyph-name="registered" unicode="&#xae;" horiz-adv-x="696" 
d="M293 331h58q23 0 37 2.5t25.5 15t11.5 35.5q0 48 -73 48h-59v-101zM493 127h-68l-92 153h-40v-153h-66v356h132q67 0 99.5 -24.5t32.5 -80.5q0 -87 -93 -95zM348 50q99 0 168.5 72.5t69.5 181.5q0 108 -69.5 180.5t-168.5 72.5t-168.5 -72.5t-69.5 -180.5
q0 -109 69.5 -181.5t168.5 -72.5zM348 -10q-130 0 -222 91.5t-92 222.5q0 129 92.5 221.5t221.5 92.5t221.5 -92.5t92.5 -221.5q0 -131 -92 -222.5t-222 -91.5z" />
    <glyph glyph-name="overscore" unicode="&#xaf;" horiz-adv-x="242" 
d="M250 535h-258v51h258v-51z" />
    <glyph glyph-name="degree" unicode="&#xb0;" horiz-adv-x="348" 
d="M299 493q0 -52 -36.5 -88t-88.5 -36t-88 36t-36 88t36 88.5t88 36.5t88.5 -36.5t36.5 -88.5zM243 493q0 29 -20.5 49t-48.5 20t-48.5 -20t-20.5 -49t20.5 -49t48.5 -20t48.5 20t20.5 49z" />
    <glyph glyph-name="plusminus" unicode="&#xb1;" horiz-adv-x="522" 
d="M481 0h-440v77h440v-77zM481 236h-182v-128h-76v128h-182v76h182v128h76v-128h182v-76z" />
    <glyph glyph-name="twosuperior" unicode="&#xb2;" horiz-adv-x="314" 
d="M287 245h-260v66q122 95 157 148q20 29 20 50q0 24 -21.5 36t-47.5 12q-49 0 -91 -25l-5 64q50 22 109 22q56 0 94.5 -26.5t38.5 -79.5q0 -47 -63.5 -115.5t-103.5 -88.5v-2h173v-61z" />
    <glyph glyph-name="threesuperior" unicode="&#xb3;" horiz-adv-x="314" 
d="M28 254l9 66q6 -6 31.5 -12.5t49.5 -6.5q33 0 63 10.5t30 35.5q0 27 -27.5 42.5t-59.5 15.5h-43v61h40q29 0 57.5 13t28.5 37q0 21 -24.5 31t-52.5 10q-32 0 -85 -19l-3 62q54 18 107 18q56 0 95.5 -25t39.5 -74q0 -33 -26 -55t-61 -27v-2q41 -6 65.5 -28.5t24.5 -62.5
q0 -104 -161 -104q-48 0 -98 14z" />
    <glyph glyph-name="acute" unicode="&#xb4;" horiz-adv-x="242" 
d="M122 505h-58l77 126h95z" />
    <glyph glyph-name="mu" unicode="&#xb5;" horiz-adv-x="532" 
d="M462 0h-79v70h-2q-18 -38 -57.5 -59t-87.5 -21q-54 0 -85 17v-190h-81v627h81v-230q0 -81 21 -118t73 -40q68 0 101.5 49t33.5 133v206h82v-444z" />
    <glyph glyph-name="paragraph" unicode="&#xb6;" horiz-adv-x="522" 
d="M458 -97h-76v643h-100v-643h-77v387q-85 0 -136.5 43t-51.5 112q0 162 206 162h235v-704z" />
    <glyph glyph-name="middot" unicode="&#xb7;" horiz-adv-x="242" 
d="M122 212q-21 0 -36.5 16t-15.5 36q0 21 15.5 36t36.5 15t35.5 -15t14.5 -36t-14.5 -36.5t-35.5 -15.5z" />
    <glyph glyph-name="cedilla" unicode="&#xb8;" horiz-adv-x="242" 
d="M88 -175l16 30q31 -13 56 -13q49 0 49 40q0 16 -12 25t-28 9q-15 0 -36 -7l-15 16l56 75h41l-40 -52l2 -2q9 4 26 4q30 0 51 -17t21 -46q0 -40 -34.5 -60t-79.5 -20q-41 0 -73 18z" />
    <glyph glyph-name="onesuperior" unicode="&#xb9;" horiz-adv-x="314" 
d="M211 245h-77v301l-61 -47l-29 40l96 73h71v-367z" />
    <glyph glyph-name="ordmasculine" unicode="&#xba;" horiz-adv-x="345" 
d="M172 388q79 0 79 90q0 39 -20 64t-59 25t-58.5 -25t-19.5 -64q0 -90 78 -90zM322 478q0 -59 -42 -99.5t-108 -40.5t-107.5 40.5t-41.5 99.5q0 61 41 100.5t108 39.5q68 0 109 -39.5t41 -100.5z" />
    <glyph glyph-name="guillemotright" unicode="&#xbb;" 
d="M139 58h-76l113 176l-113 176h76l125 -176zM315 58h-77l113 176l-113 176h77l124 -176z" />
    <glyph glyph-name="onequarter" unicode="&#xbc;" horiz-adv-x="726" 
d="M652 0h-77v72h-184v53l160 242h101v-234h45v-61h-45v-72zM575 133v173h-2l-111 -173h113zM196 245h-77v301l-61 -47l-29 40l96 73h71v-367zM187 -19h-63l377 645h63z" />
    <glyph glyph-name="onehalf" unicode="&#xbd;" horiz-adv-x="726" 
d="M697 0h-260v66q2 2 40.5 33.5t63 53.5t49 55t24.5 56q0 24 -22 35.5t-47 11.5q-49 0 -91 -25l-5 65q51 21 109 21q56 0 94.5 -25.5t38.5 -79.5q0 -46 -64 -115.5t-103 -88.5v-2h173v-61zM196 245h-77v301l-61 -47l-29 40l96 73h71v-367zM160 -19h-63l377 645h63z" />
    <glyph glyph-name="threequarters" unicode="&#xbe;" horiz-adv-x="726" 
d="M652 0h-77v72h-184v53l160 242h101v-234h45v-61h-45v-72zM575 133v173h-2l-111 -173h113zM28 254l9 66q6 -6 31.5 -12.5t49.5 -6.5q33 0 63 10.5t30 35.5q0 27 -27.5 42.5t-59.5 15.5h-43v61h40q29 0 57.5 13t28.5 37q0 21 -24.5 31t-52.5 10q-32 0 -85 -19l-3 62
q54 18 107 18q56 0 95.5 -25t39.5 -74q0 -33 -26 -55t-61 -27v-2q41 -6 65.5 -28.5t24.5 -62.5q0 -104 -161 -104q-48 0 -98 14zM224 -19h-62l377 645h62z" />
    <glyph glyph-name="questiondown" unicode="&#xbf;" horiz-adv-x="435" 
d="M265 346h-97v98h97v-98zM365 -63l6 -82q-71 -29 -145 -29q-76 0 -132 42t-56 116q0 41 21.5 79.5t47.5 64.5t47.5 61t21.5 69v15h82v-18q0 -41 -20 -78t-43.5 -60.5t-43.5 -57.5t-20 -69q0 -43 30 -65t75 -22q80 0 129 34z" />
    <glyph glyph-name="Agrave" unicode="&#xc0;" horiz-adv-x="628" 
d="M433 224l-121 301l-121 -301h242zM618 0h-95l-62 153h-297l-62 -153h-92l260 607h91zM400 651h-58l-114 126h95z" />
    <glyph glyph-name="Aacute" unicode="&#xc1;" horiz-adv-x="628" 
d="M433 224l-121 301l-121 -301h242zM618 0h-95l-62 153h-297l-62 -153h-92l260 607h91zM286 651h-58l77 126h95z" />
    <glyph glyph-name="Acircumflex" unicode="&#xc2;" horiz-adv-x="628" 
d="M433 224l-121 301l-121 -301h242zM618 0h-95l-62 153h-297l-62 -153h-92l260 607h91zM440 651h-70l-57 86l-56 -86h-69l86 126h79z" />
    <glyph glyph-name="Atilde" unicode="&#xc3;" horiz-adv-x="628" 
d="M433 224l-121 301l-121 -301h242zM618 0h-95l-62 153h-297l-62 -153h-92l260 607h91zM422 755h40q-13 -97 -82 -97q-25 0 -73.5 20t-65.5 20q-29 0 -35 -40h-40q13 97 82 97q24 0 70.5 -20t63.5 -20q34 0 40 40z" />
    <glyph glyph-name="Adieresis" unicode="&#xc4;" horiz-adv-x="628" 
d="M433 224l-121 301l-121 -301h242zM618 0h-95l-62 153h-297l-62 -153h-92l260 607h91zM426 658h-82v87h82v-87zM283 658h-81v87h81v-87z" />
    <glyph glyph-name="Aring" unicode="&#xc5;" horiz-adv-x="628" 
d="M433 224l-121 301l-121 -301h242zM618 0h-95l-62 153h-297l-62 -153h-92l260 607h91zM368 713q0 21 -16 37t-38 16t-38 -16t-16 -37q0 -22 16 -38t38 -16q21 0 37.5 16.5t16.5 37.5zM314 624q-37 0 -63 26t-26 63q0 36 26 62t63 26q36 0 62.5 -26t26.5 -62
q0 -37 -26.5 -63t-62.5 -26z" />
    <glyph glyph-name="AE" unicode="&#xc6;" horiz-adv-x="821" 
d="M444 224l-19 322h-2l-192 -322h213zM760 0h-302l-10 153h-258l-92 -153h-96l367 607h382v-76h-241l11 -178h214v-76h-210l13 -200h222v-77z" />
    <glyph glyph-name="Ccedilla" unicode="&#xc7;" horiz-adv-x="532" 
d="M499 96l6 -85q-59 -23 -129 -23q-18 0 -30 3l-33 -43l3 -3q12 5 25 5q31 0 51.5 -17t20.5 -46q0 -40 -34.5 -60t-79.5 -20q-39 0 -73 18l16 30q32 -13 56 -13q49 0 49 40q0 16 -11.5 25t-28.5 9q-15 0 -36 -7l-14 16l50 69q-120 18 -190.5 101.5t-70.5 210.5
q0 140 90.5 226t230.5 86q77 0 137 -26l-7 -85q-58 34 -126 34q-104 0 -168.5 -67t-64.5 -170q0 -105 66.5 -171.5t162.5 -66.5q85 0 132 30z" />
    <glyph glyph-name="Egrave" unicode="&#xc8;" 
d="M422 0h-340v607h340v-76h-253v-178h230v-76h-230v-200h253v-77zM328 651h-58l-114 126h95z" />
    <glyph glyph-name="Eacute" unicode="&#xc9;" 
d="M422 0h-340v607h340v-76h-253v-178h230v-76h-230v-200h253v-77zM214 651h-58l77 126h95z" />
    <glyph glyph-name="Ecircumflex" unicode="&#xca;" 
d="M422 0h-340v607h340v-76h-253v-178h230v-76h-230v-200h253v-77zM368 651h-70l-57 86l-56 -86h-69l86 126h79z" />
    <glyph glyph-name="Edieresis" unicode="&#xcb;" 
d="M422 0h-340v607h340v-76h-253v-178h230v-76h-230v-200h253v-77zM354 658h-82v87h82v-87zM211 658h-81v87h81v-87z" />
    <glyph glyph-name="Igrave" unicode="&#xcc;" horiz-adv-x="242" 
d="M164 0h-87v607h87v-607zM207 651h-58l-114 126h95z" />
    <glyph glyph-name="Iacute" unicode="&#xcd;" horiz-adv-x="242" 
d="M164 0h-87v607h87v-607zM93 651h-58l77 126h95z" />
    <glyph glyph-name="Icircumflex" unicode="&#xce;" horiz-adv-x="242" 
d="M164 0h-87v607h87v-607zM247 651h-70l-57 86l-56 -86h-69l86 126h79z" />
    <glyph glyph-name="Idieresis" unicode="&#xcf;" horiz-adv-x="242" 
d="M164 0h-87v607h87v-607zM233 658h-82v87h82v-87zM90 658h-81v87h81v-87z" />
    <glyph glyph-name="Eth" unicode="&#xd0;" horiz-adv-x="628" 
d="M251 0h-179v298h-59v55h59v254h179q140 0 232 -80.5t92 -217.5q0 -151 -85.5 -230t-238.5 -79zM159 77h92q232 0 232 228q0 99 -62 162.5t-162 63.5h-100v-178h159v-55h-159v-221z" />
    <glyph glyph-name="Ntilde" unicode="&#xd1;" horiz-adv-x="628" 
d="M552 0h-112l-275 499h-1v-499h-87v607h118l268 -489h2v489h87v-607zM422 755h40q-13 -97 -82 -97q-25 0 -73.5 20t-65.5 20q-29 0 -35 -40h-40q13 97 82 97q24 0 70.5 -20t63.5 -20q34 0 40 40z" />
    <glyph glyph-name="Ograve" unicode="&#xd2;" horiz-adv-x="677" 
d="M338 -10q-137 0 -214.5 86t-77.5 228q0 138 78.5 226t213.5 88q136 0 214.5 -88t78.5 -226q0 -142 -77.5 -228t-215.5 -86zM338 66q98 0 149.5 69t51.5 169q0 99 -52.5 168t-148.5 69q-95 0 -147.5 -69t-52.5 -168q0 -64 20.5 -116t67 -87t112.5 -35zM424 651h-58
l-114 126h95z" />
    <glyph glyph-name="Oacute" unicode="&#xd3;" horiz-adv-x="677" 
d="M338 -10q-137 0 -214.5 86t-77.5 228q0 138 78.5 226t213.5 88q136 0 214.5 -88t78.5 -226q0 -142 -77.5 -228t-215.5 -86zM338 66q98 0 149.5 69t51.5 169q0 99 -52.5 168t-148.5 69q-95 0 -147.5 -69t-52.5 -168q0 -64 20.5 -116t67 -87t112.5 -35zM310 651h-58l77 126
h95z" />
    <glyph glyph-name="Ocircumflex" unicode="&#xd4;" horiz-adv-x="677" 
d="M338 -10q-137 0 -214.5 86t-77.5 228q0 138 78.5 226t213.5 88q136 0 214.5 -88t78.5 -226q0 -142 -77.5 -228t-215.5 -86zM338 66q98 0 149.5 69t51.5 169q0 99 -52.5 168t-148.5 69q-95 0 -147.5 -69t-52.5 -168q0 -64 20.5 -116t67 -87t112.5 -35zM464 651h-70l-57 86
l-56 -86h-69l86 126h79z" />
    <glyph glyph-name="Otilde" unicode="&#xd5;" horiz-adv-x="677" 
d="M338 -10q-137 0 -214.5 86t-77.5 228q0 138 78.5 226t213.5 88q136 0 214.5 -88t78.5 -226q0 -142 -77.5 -228t-215.5 -86zM338 66q98 0 149.5 69t51.5 169q0 99 -52.5 168t-148.5 69q-95 0 -147.5 -69t-52.5 -168q0 -64 20.5 -116t67 -87t112.5 -35zM446 755h40
q-13 -97 -82 -97q-25 0 -73.5 20t-65.5 20q-29 0 -35 -40h-40q13 97 82 97q24 0 70.5 -20t63.5 -20q34 0 40 40z" />
    <glyph glyph-name="Odieresis" unicode="&#xd6;" horiz-adv-x="677" 
d="M338 -10q-137 0 -214.5 86t-77.5 228q0 138 78.5 226t213.5 88q136 0 214.5 -88t78.5 -226q0 -142 -77.5 -228t-215.5 -86zM338 66q98 0 149.5 69t51.5 169q0 99 -52.5 168t-148.5 69q-95 0 -147.5 -69t-52.5 -168q0 -64 20.5 -116t67 -87t112.5 -35zM450 658h-82v87h82
v-87zM307 658h-81v87h81v-87z" />
    <glyph glyph-name="multiply" unicode="&#xd7;" horiz-adv-x="522" 
d="M409 18l-148 149l-148 -149l-54 54l148 148l-148 148l54 54l148 -149l148 149l54 -54l-149 -148l149 -148z" />
    <glyph glyph-name="Oslash" unicode="&#xd8;" horiz-adv-x="677" 
d="M490 467l-276 -357q51 -44 124 -44q98 0 149.5 69t51.5 169q0 96 -49 163zM115 -18l-33 22l49 65q-85 85 -85 235q0 138 78.5 226t213.5 88q99 0 176 -54l46 60l32 -25l-47 -61q86 -91 86 -234q0 -142 -77.5 -228t-215.5 -86q-105 0 -176 53zM186 139l277 359
q-51 43 -121 43q-97 0 -150.5 -68t-53.5 -169t48 -165z" />
    <glyph glyph-name="Ugrave" unicode="&#xd9;" horiz-adv-x="628" 
d="M463 263v344h87v-356q0 -128 -61 -194.5t-175 -66.5t-175 66.5t-61 194.5v356h87v-344q0 -197 149 -197t149 197zM400 651h-58l-114 126h95z" />
    <glyph glyph-name="Uacute" unicode="&#xda;" horiz-adv-x="628" 
d="M463 263v344h87v-356q0 -128 -61 -194.5t-175 -66.5t-175 66.5t-61 194.5v356h87v-344q0 -197 149 -197t149 197zM286 651h-58l77 126h95z" />
    <glyph glyph-name="Ucircumflex" unicode="&#xdb;" horiz-adv-x="628" 
d="M463 263v344h87v-356q0 -128 -61 -194.5t-175 -66.5t-175 66.5t-61 194.5v356h87v-344q0 -197 149 -197t149 197zM440 651h-70l-57 86l-56 -86h-69l86 126h79z" />
    <glyph glyph-name="Udieresis" unicode="&#xdc;" horiz-adv-x="628" 
d="M463 263v344h87v-356q0 -128 -61 -194.5t-175 -66.5t-175 66.5t-61 194.5v356h87v-344q0 -197 149 -197t149 197zM426 658h-82v87h82v-87zM283 658h-81v87h81v-87z" />
    <glyph glyph-name="Yacute" unicode="&#xdd;" horiz-adv-x="580" 
d="M334 0h-87v254l-237 353h101l181 -272l177 272h102l-237 -353v-254zM262 651h-58l77 126h95z" />
    <glyph glyph-name="Thorn" unicode="&#xde;" 
d="M159 231h86q49 0 85.5 25.5t36.5 81.5q0 35 -23 60t-52 34.5t-59 9.5h-74v-211zM159 0h-87v607h87v-88h72q103 0 165.5 -43t62.5 -139q0 -94 -61.5 -138.5t-153.5 -44.5h-85v-154z" />
    <glyph glyph-name="germandbls" unicode="&#xdf;" horiz-adv-x="532" 
d="M211 7v69q33 -15 68 -15q52 0 86.5 33t34.5 91q0 70 -42.5 98t-120.5 28v66q67 0 101 25t34 88q0 44 -26.5 75.5t-70.5 31.5q-66 0 -95 -50.5t-29 -121.5v-425h-81v412q0 124 49.5 187.5t163.5 63.5q69 0 122.5 -45t53.5 -126q0 -109 -101 -141v-2q60 -8 94.5 -54
t34.5 -106q0 -84 -51.5 -139t-140.5 -55q-45 0 -84 12z" />
    <glyph glyph-name="agrave" unicode="&#xe0;" 
d="M333 172v39q-8 0 -25.5 1t-26.5 1q-22 0 -43.5 -2.5t-49 -10.5t-44.5 -26.5t-17 -45.5q0 -33 25.5 -52.5t57.5 -19.5q59 0 91 32.5t32 83.5zM418 0h-76v57h-2q-18 -26 -52.5 -46.5t-84.5 -20.5q-163 0 -163 138q0 39 20 69t52 46t66 23.5t68 7.5h44q11 0 43 -2
q0 60 -25 88t-84 28q-76 0 -129 -45l-5 69q69 42 147 42q94 0 136 -45t42 -138v-184q0 -48 3 -87zM328 505h-58l-114 126h95z" />
    <glyph glyph-name="aacute" unicode="&#xe1;" 
d="M333 172v39q-8 0 -25.5 1t-26.5 1q-22 0 -43.5 -2.5t-49 -10.5t-44.5 -26.5t-17 -45.5q0 -33 25.5 -52.5t57.5 -19.5q59 0 91 32.5t32 83.5zM418 0h-76v57h-2q-18 -26 -52.5 -46.5t-84.5 -20.5q-163 0 -163 138q0 39 20 69t52 46t66 23.5t68 7.5h44q11 0 43 -2
q0 60 -25 88t-84 28q-76 0 -129 -45l-5 69q69 42 147 42q94 0 136 -45t42 -138v-184q0 -48 3 -87zM214 505h-58l77 126h95z" />
    <glyph glyph-name="acircumflex" unicode="&#xe2;" 
d="M333 172v39q-8 0 -25.5 1t-26.5 1q-22 0 -43.5 -2.5t-49 -10.5t-44.5 -26.5t-17 -45.5q0 -33 25.5 -52.5t57.5 -19.5q59 0 91 32.5t32 83.5zM418 0h-76v57h-2q-18 -26 -52.5 -46.5t-84.5 -20.5q-163 0 -163 138q0 39 20 69t52 46t66 23.5t68 7.5h44q11 0 43 -2
q0 60 -25 88t-84 28q-76 0 -129 -45l-5 69q69 42 147 42q94 0 136 -45t42 -138v-184q0 -48 3 -87zM368 505h-70l-57 86l-56 -86h-69l86 126h79z" />
    <glyph glyph-name="atilde" unicode="&#xe3;" 
d="M333 172v39q-8 0 -25.5 1t-26.5 1q-22 0 -43.5 -2.5t-49 -10.5t-44.5 -26.5t-17 -45.5q0 -33 25.5 -52.5t57.5 -19.5q59 0 91 32.5t32 83.5zM418 0h-76v57h-2q-18 -26 -52.5 -46.5t-84.5 -20.5q-163 0 -163 138q0 39 20 69t52 46t66 23.5t68 7.5h44q11 0 43 -2
q0 60 -25 88t-84 28q-76 0 -129 -45l-5 69q69 42 147 42q94 0 136 -45t42 -138v-184q0 -48 3 -87zM350 607h40q-13 -97 -82 -97q-25 0 -73.5 20t-65.5 20q-29 0 -35 -40h-40q13 97 82 97q24 0 70.5 -20t63.5 -20q34 0 40 40z" />
    <glyph glyph-name="adieresis" unicode="&#xe4;" 
d="M333 172v39q-8 0 -25.5 1t-26.5 1q-22 0 -43.5 -2.5t-49 -10.5t-44.5 -26.5t-17 -45.5q0 -33 25.5 -52.5t57.5 -19.5q59 0 91 32.5t32 83.5zM418 0h-76v57h-2q-18 -26 -52.5 -46.5t-84.5 -20.5q-163 0 -163 138q0 39 20 69t52 46t66 23.5t68 7.5h44q11 0 43 -2
q0 60 -25 88t-84 28q-76 0 -129 -45l-5 69q69 42 147 42q94 0 136 -45t42 -138v-184q0 -48 3 -87zM354 512h-82v87h82v-87zM211 512h-81v87h81v-87z" />
    <glyph glyph-name="aring" unicode="&#xe5;" 
d="M333 172v39q-8 0 -25.5 1t-26.5 1q-22 0 -43.5 -2.5t-49 -10.5t-44.5 -26.5t-17 -45.5q0 -33 25.5 -52.5t57.5 -19.5q59 0 91 32.5t32 83.5zM418 0h-76v57h-2q-18 -26 -52.5 -46.5t-84.5 -20.5q-163 0 -163 138q0 39 20 69t52 46t66 23.5t68 7.5h44q11 0 43 -2
q0 60 -25 88t-84 28q-76 0 -129 -45l-5 69q69 42 147 42q94 0 136 -45t42 -138v-184q0 -48 3 -87zM296 579q0 21 -16 37t-38 16t-38 -16t-16 -37q0 -22 16 -38t38 -16q21 0 37.5 16.5t16.5 37.5zM242 490q-37 0 -63 26t-26 63q0 36 26 62t63 26q36 0 62.5 -26t26.5 -62
q0 -37 -26.5 -63t-62.5 -26z" />
    <glyph glyph-name="ae" unicode="&#xe6;" horiz-adv-x="773" 
d="M424 264h227q0 47 -30.5 85.5t-78.5 38.5q-53 0 -85.5 -35t-32.5 -89zM342 211q-3 0 -29 1t-49 1q-141 0 -141 -84q0 -35 25 -54t62 -19q57 0 94.5 45.5t37.5 109.5zM692 102v-83q-67 -29 -127 -29q-66 0 -118.5 24t-73.5 79h-2q-11 -49 -59 -76t-105 -27q-67 0 -119 38
t-52 103q0 43 21.5 73.5t57.5 44.5t68.5 19.5t66.5 5.5q27 0 57 -2t35 -2q0 60 -35 89t-90 29q-62 0 -124 -45l-4 69q65 42 147 42q48 0 90.5 -19t62.5 -58q43 77 154 77q54 0 93 -20.5t60.5 -56.5t31.5 -79t10 -94h-314q0 -63 41 -105.5t104 -42.5q64 0 123 46z" />
    <glyph glyph-name="ccedilla" unicode="&#xe7;" horiz-adv-x="386" 
d="M137 -175l15 30q32 -13 57 -13q49 0 49 40q0 16 -12 25t-28 9q-15 0 -36 -7l-15 16l51 69q-82 14 -133.5 78t-51.5 150q0 102 62.5 167t163.5 65q56 0 99 -17l-7 -68q-49 19 -88 19q-65 0 -104 -49.5t-39 -116.5t37.5 -116.5t110.5 -49.5q49 0 88 25l6 -73
q-37 -18 -106 -18l-32 -42l1 -2q11 4 26 4q31 0 52 -17t21 -46q0 -40 -34.5 -60t-79.5 -20q-42 0 -73 18z" />
    <glyph glyph-name="egrave" unicode="&#xe8;" 
d="M127 264h230q0 53 -30 88.5t-81 35.5q-56 0 -84 -36t-35 -88zM410 100v-82q-4 -1 -19.5 -6.5t-24 -8t-24.5 -6.5t-33.5 -5.5t-38.5 -1.5q-115 0 -172.5 64t-57.5 176q0 99 57.5 161.5t150.5 62.5q196 0 196 -250h-317q0 -64 43.5 -106t102.5 -42q38 0 77 14.5t60 29.5z
M328 505h-58l-114 126h95z" />
    <glyph glyph-name="eacute" unicode="&#xe9;" 
d="M127 264h230q0 53 -30 88.5t-81 35.5q-56 0 -84 -36t-35 -88zM410 100v-82q-4 -1 -19.5 -6.5t-24 -8t-24.5 -6.5t-33.5 -5.5t-38.5 -1.5q-115 0 -172.5 64t-57.5 176q0 99 57.5 161.5t150.5 62.5q196 0 196 -250h-317q0 -64 43.5 -106t102.5 -42q38 0 77 14.5t60 29.5z
M214 505h-58l77 126h95z" />
    <glyph glyph-name="ecircumflex" unicode="&#xea;" 
d="M127 264h230q0 53 -30 88.5t-81 35.5q-56 0 -84 -36t-35 -88zM410 100v-82q-4 -1 -19.5 -6.5t-24 -8t-24.5 -6.5t-33.5 -5.5t-38.5 -1.5q-115 0 -172.5 64t-57.5 176q0 99 57.5 161.5t150.5 62.5q196 0 196 -250h-317q0 -64 43.5 -106t102.5 -42q38 0 77 14.5t60 29.5z
M368 505h-70l-57 86l-56 -86h-69l86 126h79z" />
    <glyph glyph-name="edieresis" unicode="&#xeb;" 
d="M127 264h230q0 53 -30 88.5t-81 35.5q-56 0 -84 -36t-35 -88zM410 100v-82q-4 -1 -19.5 -6.5t-24 -8t-24.5 -6.5t-33.5 -5.5t-38.5 -1.5q-115 0 -172.5 64t-57.5 176q0 99 57.5 161.5t150.5 62.5q196 0 196 -250h-317q0 -64 43.5 -106t102.5 -42q38 0 77 14.5t60 29.5z
M354 512h-82v87h82v-87zM211 512h-81v87h81v-87z" />
    <glyph glyph-name="igrave" unicode="&#xec;" horiz-adv-x="242" 
d="M162 0h-82v444h82v-444zM207 505h-58l-114 126h95z" />
    <glyph glyph-name="iacute" unicode="&#xed;" horiz-adv-x="242" 
d="M162 0h-82v444h82v-444zM93 505h-58l77 126h95z" />
    <glyph glyph-name="icircumflex" unicode="&#xee;" horiz-adv-x="242" 
d="M162 0h-82v444h82v-444zM247 505h-70l-57 86l-56 -86h-69l86 126h79z" />
    <glyph glyph-name="idieresis" unicode="&#xef;" horiz-adv-x="242" 
d="M162 0h-82v444h82v-444zM233 512h-82v87h82v-87zM90 512h-81v87h81v-87z" />
    <glyph glyph-name="eth" unicode="&#xf0;" horiz-adv-x="532" 
d="M339 435h2q-39 54 -95 94l-112 -60l-40 46l96 51q-39 25 -109 51l63 46q69 -26 119 -57l106 57l40 -46l-91 -49q78 -60 126 -148.5t48 -197.5q0 -98 -64 -165t-162 -67t-162 67t-64 165q0 102 62.5 167t163.5 65q44 0 73 -19zM266 56q67 0 103 50t36 116
q0 67 -38.5 116.5t-100.5 49.5t-100.5 -49.5t-38.5 -116.5t36 -116.5t103 -49.5z" />
    <glyph glyph-name="ntilde" unicode="&#xf1;" horiz-adv-x="532" 
d="M462 0h-82v230q0 81 -21 118t-73 40q-67 0 -101 -49.5t-34 -133.5v-205h-81v444h79v-71h2q18 38 57.5 59.5t87.5 21.5q166 0 166 -190v-264zM374 607h40q-13 -97 -82 -97q-25 0 -73.5 20t-65.5 20q-29 0 -35 -40h-40q13 97 82 97q24 0 70.5 -20t63.5 -20q34 0 40 40z" />
    <glyph glyph-name="ograve" unicode="&#xf2;" horiz-adv-x="532" 
d="M266 56q67 0 103 50t36 116q0 67 -38.5 116.5t-100.5 49.5t-100.5 -49.5t-38.5 -116.5t36 -116.5t103 -49.5zM266 -10q-98 0 -162 67t-64 165q0 102 62.5 167t163.5 65t163.5 -65t62.5 -167q0 -98 -64 -165t-162 -67zM352 505h-58l-114 126h95z" />
    <glyph glyph-name="oacute" unicode="&#xf3;" horiz-adv-x="532" 
d="M266 56q67 0 103 50t36 116q0 67 -38.5 116.5t-100.5 49.5t-100.5 -49.5t-38.5 -116.5t36 -116.5t103 -49.5zM266 -10q-98 0 -162 67t-64 165q0 102 62.5 167t163.5 65t163.5 -65t62.5 -167q0 -98 -64 -165t-162 -67zM238 505h-58l77 126h95z" />
    <glyph glyph-name="ocircumflex" unicode="&#xf4;" horiz-adv-x="532" 
d="M266 56q67 0 103 50t36 116q0 67 -38.5 116.5t-100.5 49.5t-100.5 -49.5t-38.5 -116.5t36 -116.5t103 -49.5zM266 -10q-98 0 -162 67t-64 165q0 102 62.5 167t163.5 65t163.5 -65t62.5 -167q0 -98 -64 -165t-162 -67zM392 505h-70l-57 86l-56 -86h-69l86 126h79z" />
    <glyph glyph-name="otilde" unicode="&#xf5;" horiz-adv-x="532" 
d="M266 56q67 0 103 50t36 116q0 67 -38.5 116.5t-100.5 49.5t-100.5 -49.5t-38.5 -116.5t36 -116.5t103 -49.5zM266 -10q-98 0 -162 67t-64 165q0 102 62.5 167t163.5 65t163.5 -65t62.5 -167q0 -98 -64 -165t-162 -67zM374 607h40q-13 -97 -82 -97q-25 0 -73.5 20
t-65.5 20q-29 0 -35 -40h-40q13 97 82 97q24 0 70.5 -20t63.5 -20q34 0 40 40z" />
    <glyph glyph-name="odieresis" unicode="&#xf6;" horiz-adv-x="532" 
d="M266 56q67 0 103 50t36 116q0 67 -38.5 116.5t-100.5 49.5t-100.5 -49.5t-38.5 -116.5t36 -116.5t103 -49.5zM266 -10q-98 0 -162 67t-64 165q0 102 62.5 167t163.5 65t163.5 -65t62.5 -167q0 -98 -64 -165t-162 -67zM378 512h-82v87h82v-87zM235 512h-81v87h81v-87z" />
    <glyph glyph-name="divide" unicode="&#xf7;" horiz-adv-x="522" 
d="M263 -27q-28 0 -48 20t-20 47q0 28 19.5 47t47.5 19q26 0 46 -19.5t20 -46.5q0 -26 -20 -46.5t-45 -20.5zM263 334q-28 0 -48 19.5t-20 46.5q0 28 19.5 47.5t47.5 19.5q26 0 46 -20t20 -47q0 -25 -20 -45.5t-45 -20.5zM481 182h-440v76h440v-76z" />
    <glyph glyph-name="oslash" unicode="&#xf8;" horiz-adv-x="532" 
d="M82 -27l-26 22l49 62q-65 68 -65 165q0 102 62.5 167t163.5 65q80 0 133 -40l46 57l27 -22l-47 -57q67 -62 67 -170q0 -98 -64 -165t-162 -67q-78 0 -135 43zM373 329l-196 -239q37 -34 89 -34q67 0 103 50t36 116q0 60 -32 107zM156 117l195 238q-36 33 -85 33
q-62 0 -100.5 -49.5t-38.5 -116.5q0 -60 29 -105z" />
    <glyph glyph-name="ugrave" unicode="&#xf9;" horiz-adv-x="532" 
d="M462 0h-79v70h-2q-18 -38 -57.5 -59t-87.5 -21q-166 0 -166 190v264h81v-230q0 -81 21 -118t73 -40q68 0 101.5 49t33.5 133v206h82v-444zM352 505h-58l-114 126h95z" />
    <glyph glyph-name="uacute" unicode="&#xfa;" horiz-adv-x="532" 
d="M462 0h-79v70h-2q-18 -38 -57.5 -59t-87.5 -21q-166 0 -166 190v264h81v-230q0 -81 21 -118t73 -40q68 0 101.5 49t33.5 133v206h82v-444zM238 505h-58l77 126h95z" />
    <glyph glyph-name="ucircumflex" unicode="&#xfb;" horiz-adv-x="532" 
d="M462 0h-79v70h-2q-18 -38 -57.5 -59t-87.5 -21q-166 0 -166 190v264h81v-230q0 -81 21 -118t73 -40q68 0 101.5 49t33.5 133v206h82v-444zM392 505h-70l-57 86l-56 -86h-69l86 126h79z" />
    <glyph glyph-name="udieresis" unicode="&#xfc;" horiz-adv-x="532" 
d="M462 0h-79v70h-2q-18 -38 -57.5 -59t-87.5 -21q-166 0 -166 190v264h81v-230q0 -81 21 -118t73 -40q68 0 101.5 49t33.5 133v206h82v-444zM378 512h-82v87h82v-87zM235 512h-81v87h81v-87z" />
    <glyph glyph-name="yacute" unicode="&#xfd;" horiz-adv-x="435" 
d="M31 -187l6 67q16 -7 38 -7q46 0 71.5 44t25.5 66q-1 10 -15 47l-151 414h90l119 -367h2l121 367h83l-167 -464q-11 -29 -16 -42t-17 -38t-23 -38t-27.5 -27.5t-37.5 -21t-46 -6.5q-33 0 -56 6zM189 505h-58l77 126h95z" />
    <glyph glyph-name="thorn" unicode="&#xfe;" horiz-adv-x="532" 
d="M282 56q61 0 92 52.5t31 115.5q0 67 -30 115.5t-92 48.5q-63 0 -97.5 -49.5t-34.5 -117.5q0 -64 33.5 -114.5t97.5 -50.5zM151 -183h-81v836h81v-270h2q44 71 147 71q92 0 142 -64.5t50 -159.5q0 -65 -19 -117.5t-63.5 -87.5t-108.5 -35q-105 0 -148 71h-2v-244z" />
    <glyph glyph-name="ydieresis" unicode="&#xff;" horiz-adv-x="435" 
d="M31 -187l6 67q16 -7 38 -7q46 0 71.5 44t25.5 66q-1 10 -15 47l-151 414h90l119 -367h2l121 367h83l-167 -464q-11 -29 -16 -42t-17 -38t-23 -38t-27.5 -27.5t-37.5 -21t-46 -6.5q-33 0 -56 6zM329 512h-82v87h82v-87zM186 512h-81v87h81v-87z" />
    <glyph glyph-name="dotlessi" unicode="&#x131;" horiz-adv-x="242" 
d="M162 0h-82v444h82v-444z" />
    <glyph glyph-name="Lslash" unicode="&#x141;" horiz-adv-x="435" 
d="M418 0h-341v205l-56 -33v63l56 33v339h87v-289l170 100v-62l-170 -100v-179h254v-77z" />
    <glyph glyph-name="lslash" unicode="&#x142;" horiz-adv-x="242" 
d="M162 0h-82v296l-56 -45v62l56 45v295h82v-231l56 44v-61l-56 -45v-360z" />
    <glyph glyph-name="OE" unicode="&#x152;" horiz-adv-x="821" 
d="M767 0h-252q-23 0 -68 -2.5t-68 -2.5q-148 0 -240.5 84.5t-92.5 231.5q0 137 92.5 219t242.5 82q22 0 64.5 -2.5t62.5 -2.5h253v-76h-245v-178h228v-76h-228v-200h251v-77zM429 77v454q-7 0 -25 2.5t-28 2.5q-112 0 -175 -58.5t-63 -166.5q0 -112 66 -176t173 -64
q32 0 52 6z" />
    <glyph glyph-name="oe" unicode="&#x153;" horiz-adv-x="821" 
d="M472 264h227q0 47 -30.5 85.5t-78.5 38.5q-54 0 -86 -35t-32 -89zM257 56q60 0 96.5 50.5t36.5 115.5q0 62 -35 114t-98 52q-65 0 -99.5 -51.5t-34.5 -114.5q0 -71 33 -118.5t101 -47.5zM740 102v-83q-67 -29 -128 -29q-140 0 -182 95q-22 -48 -71.5 -71.5t-102.5 -23.5
q-102 0 -161 64.5t-59 167.5q0 94 60.5 163t159.5 69q130 0 176 -87q41 87 159 87q54 0 93 -20.5t60.5 -56.5t31.5 -79t10 -94h-314q0 -63 41 -105.5t104 -42.5q64 0 123 46z" />
    <glyph glyph-name="Scaron" unicode="&#x160;" horiz-adv-x="435" 
d="M48 15l9 81q65 -30 126 -30q44 0 81.5 25.5t37.5 73.5q0 37 -27 63t-65 43.5t-76.5 37t-65.5 55.5t-27 88q0 78 55 122t140 44q69 0 129 -22l-12 -80q-65 25 -114 25q-43 0 -74.5 -19t-31.5 -62q0 -31 27 -54.5t65.5 -41t76.5 -39t65 -60.5t27 -94q0 -93 -61.5 -137
t-160.5 -44q-47 0 -124 25zM258 651h-79l-87 126h69l58 -86l56 86h69z" />
    <glyph glyph-name="scaron" unicode="&#x161;" horiz-adv-x="338" 
d="M32 14l5 73q47 -31 101 -31q33 0 58.5 15t25.5 48q0 22 -20 39.5t-48 30.5t-56 28t-48 40.5t-20 60.5q0 67 43 101.5t113 34.5q42 0 102 -17l-7 -72q-12 9 -41 16t-45 7q-33 0 -55.5 -14t-22.5 -40q0 -25 20 -42.5t48 -29t56 -26t48 -42t20 -66.5q0 -68 -45 -103
t-110 -35q-78 0 -122 24zM209 505h-79l-87 126h69l58 -86l56 86h69z" />
    <glyph glyph-name="Ydieresis" unicode="&#x178;" horiz-adv-x="580" 
d="M334 0h-87v254l-237 353h101l181 -272l177 272h102l-237 -353v-254zM402 658h-82v87h82v-87zM259 658h-81v87h81v-87z" />
    <glyph glyph-name="Zcaron" unicode="&#x17d;" 
d="M448 0h-420v78l315 453h-305v76h405v-78l-314 -452h319v-77zM282 651h-79l-87 126h69l58 -86l56 86h69z" />
    <glyph glyph-name="zcaron" unicode="&#x17e;" horiz-adv-x="435" 
d="M398 0h-361v71l256 307h-243v66h338v-72l-256 -306h266v-66zM257 505h-79l-87 126h69l58 -86l56 86h69z" />
    <glyph glyph-name="florin" unicode="&#x192;" 
d="M29 -189l14 71q11 -4 26 -4q26 0 42 15t22 32t11 45l62 329h-97l11 61h98l18 95q15 77 48 120t108 43q11 0 32.5 -3.5t30.5 -3.5l-12 -70q-22 5 -36 5q-43 0 -59.5 -23t-25.5 -72l-18 -91h109l-12 -61h-110l-60 -320q-9 -45 -16.5 -70t-24.5 -52t-45.5 -38.5t-71.5 -11.5
q-28 0 -44 4z" />
    <glyph glyph-name="circumflex" unicode="&#x2c6;" horiz-adv-x="242" 
d="M247 505h-70l-57 86l-56 -86h-69l86 126h79z" />
    <glyph glyph-name="caron" unicode="&#x2c7;" horiz-adv-x="242" 
d="M161 505h-79l-87 126h69l58 -86l56 86h69z" />
    <glyph glyph-name="breve" unicode="&#x2d8;" horiz-adv-x="242" 
d="M212 628h43q-6 -56 -41.5 -87t-92.5 -31t-92.5 31t-41.5 87h43q13 -68 91 -68t91 68z" />
    <glyph glyph-name="dotaccent" unicode="&#x2d9;" horiz-adv-x="242" 
d="M162 512h-82v87h82v-87z" />
    <glyph glyph-name="ring" unicode="&#x2da;" horiz-adv-x="242" 
d="M175 579q0 21 -16 37t-38 16t-38 -16t-16 -37q0 -22 16 -38t38 -16q21 0 37.5 16.5t16.5 37.5zM121 490q-37 0 -63 26t-26 63q0 36 26 62t63 26q36 0 62.5 -26t26.5 -62q0 -37 -26.5 -63t-62.5 -26z" />
    <glyph glyph-name="ogonek" unicode="&#x2db;" horiz-adv-x="242" 
d="M203 -123l27 -7q-37 -53 -99 -53q-12 0 -21 1.5t-22.5 7.5t-21 22t-7.5 41q0 11 5.5 24.5t29.5 38.5t64 48h42q-75 -59 -75 -108q0 -40 29 -40q30 0 49 25z" />
    <glyph glyph-name="tilde" unicode="&#x2dc;" horiz-adv-x="242" 
d="M229 607h40q-13 -97 -82 -97q-25 0 -73.5 20t-65.5 20q-29 0 -35 -40h-40q13 97 82 97q24 0 70.5 -20t63.5 -20q34 0 40 40z" />
    <glyph glyph-name="hungarumlaut" unicode="&#x2dd;" horiz-adv-x="242" 
d="M201 505h-58l77 126h95zM44 505h-59l78 126h94z" />
    <glyph glyph-name="Omega" unicode="&#x3a9;" horiz-adv-x="651" 
d="M599 0h-223v159q74 15 113.5 67.5t39.5 130.5q0 89 -59.5 148.5t-149.5 59.5q-89 0 -149.5 -59.5t-60.5 -148.5q0 -77 40.5 -131.5t113.5 -66.5v-159h-223v58h168v63q-79 21 -123.5 87.5t-44.5 150.5q0 116 81.5 192t197.5 76q117 0 198 -75t81 -191q0 -85 -44 -151.5
t-123 -88.5v-63h167v-58z" />
    <glyph glyph-name="pi" unicode="&#x3c0;" horiz-adv-x="496" 
d="M476 59v-49q-33 -15 -60 -15q-26 0 -41.5 7.5t-22.5 24t-9 31.5t-2 41v258h-214v-357h-65v357h-60v60h470v-60h-66v-260q0 -23 6.5 -35t26.5 -12q17 0 37 9z" />
    <glyph glyph-name="uni0E00" unicode="&#xe00;" horiz-adv-x="195" 
 />
    <glyph glyph-name="uni0E01" unicode="&#xe01;" horiz-adv-x="523" 
d="M479 0h-85v333q0 57 -35.5 89.5t-94.5 32.5q-98 0 -141 -79l56 -67q-39 -26 -39 -79v-230h-85v217q0 27 11 53.5t29 38.5l-57 67q19 60 81.5 103t144.5 43q92 0 153.5 -53t61.5 -132v-337z" />
    <glyph glyph-name="uni0E02" unicode="&#xe02;" horiz-adv-x="482" 
d="M353 179v332h85v-331q0 -187 -194 -187q-97 0 -148.5 47t-51.5 124v81q0 24 15 47t33.5 38.5t33.5 34t15 34.5v15q0 23 -22 23h-74v74h93q42 0 65 -23t23 -60v-28q0 -26 -15 -49.5t-33.5 -37.5t-33.5 -32.5t-15 -35.5v-68q0 -117 115 -117q55 0 82 26.5t27 92.5z" />
    <glyph glyph-name="uni0E03" unicode="&#xe03;" horiz-adv-x="489" 
d="M360 179v332h85v-331q0 -187 -194 -187q-97 0 -149 47t-52 124v81q0 24 16.5 47.5t36 39.5t36 36t16.5 36v22q0 22 -25 22q-26 0 -37 -31l-68 25v72l65 -30q23 32 68 32q35 0 55 -23t20 -60v-32q0 -26 -15.5 -49.5t-33.5 -37.5t-33.5 -33t-15.5 -36v-68q0 -117 116 -117
q55 0 82 26.5t27 92.5z" />
    <glyph glyph-name="uni0E04" unicode="&#xe04;" horiz-adv-x="524" 
d="M480 0h-85v338q0 56 -34.5 86.5t-98.5 30.5q-62 0 -97.5 -30.5t-35.5 -86.5v-112q8 20 31 35t53 15h81v-75h-84q-38 0 -59.5 -24.5t-21.5 -61.5v-115h-85v337q0 83 59 134t159 51q99 0 158.5 -51t59.5 -134v-337z" />
    <glyph glyph-name="uni0E05" unicode="&#xe05;" horiz-adv-x="536" 
d="M492 0h-85v357q0 69 -50 87l-89 -47l-89 47q-50 -17 -50 -87v-131q8 20 31 35t53 15h81v-75h-84q-38 0 -59.5 -24.5t-21.5 -61.5v-115h-85v352q0 67 34.5 110.5t95.5 57.5l94 -54l94 54q61 -14 95.5 -57.5t34.5 -110.5v-352z" />
    <glyph glyph-name="uni0E06" unicode="&#xe06;" horiz-adv-x="543" 
d="M414 191v320h85v-319q0 -95 -48.5 -147t-137.5 -52q-101 0 -152 72v-65h-86v245q0 24 16.5 47.5t36 39.5t36 36t16.5 36v22q0 22 -25 22q-26 0 -37 -31l-68 25v72l65 -30q23 32 68 32q35 0 55 -23t20 -60v-32q0 -26 -15.5 -49.5t-33.5 -37.5t-33.5 -33t-15.5 -36v-76
q13 -44 51 -76.5t78 -32.5q125 0 125 131z" />
    <glyph glyph-name="uni0E07" unicode="&#xe07;" horiz-adv-x="509" 
d="M240 0h-88l-140 511h89l120 -442h28q56 0 96 57t40 146q0 173 -107 173q-26 0 -53 -11l-3 74q31 10 65 10q82 0 133 -66t51 -180q0 -124 -65.5 -198t-165.5 -74z" />
    <glyph glyph-name="uni0E08" unicode="&#xe08;" horiz-adv-x="508" 
d="M245 0h-72l-44 186q-8 32 -35 32h-28v75h48q65 0 86 -66l39 -159h13q57 0 95 52t38 143q0 100 -38 144.5t-118 44.5q-47 0 -90.5 -21.5t-70.5 -52.5l-36 62q84 82 197 82q115 0 178 -67.5t63 -191.5q0 -117 -62.5 -190t-162.5 -73z" />
    <glyph glyph-name="uni0E09" unicode="&#xe09;" horiz-adv-x="523" 
d="M479 0h-85v64q-19 -31 -57.5 -51t-87.5 -20q-84 0 -130 41t-46 112v52q0 20 -17 20h-26v75h56q31 0 50.5 -21.5t19.5 -53.5v-61q0 -97 97 -97q47 0 87 32.5t54 79.5v116q0 78 -39 121t-111 43q-48 0 -96.5 -22t-79.5 -52l-36 62q84 82 211 82q112 0 174 -60t62 -164v-298
z" />
    <glyph glyph-name="uni0E0A" unicode="&#xe0a;" horiz-adv-x="485" 
d="M439 252v-72q0 -187 -195 -187q-97 0 -148.5 47t-51.5 124v81q0 24 15 47t33.5 38.5t33.5 34t15 34.5v15q0 23 -22 23h-74v74h93q42 0 65 -23t23 -60v-28q0 -26 -15 -49.5t-33.5 -37.5t-33.5 -32.5t-15 -35.5v-68q0 -117 115 -117q55 0 82.5 27t27.5 92v88q0 26 -17 44
t-41 18h-13l-11 33l85 149h92l-92 -144q37 -8 59.5 -39t22.5 -76z" />
    <glyph glyph-name="uni0E0B" unicode="&#xe0b;" horiz-adv-x="492" 
d="M446 252v-72q0 -187 -195 -187q-97 0 -149 47t-52 124v81q0 24 16.5 47.5t36 39.5t36 36t16.5 36v22q0 22 -25 22q-26 0 -37 -31l-68 25v72l65 -30q23 32 68 32q35 0 55 -23t20 -60v-32q0 -26 -15.5 -49.5t-33.5 -37.5t-33.5 -33t-15.5 -36v-68q0 -117 116 -117
q55 0 82.5 27t27.5 92v88q0 26 -17 44t-41 18h-13l-11 33l85 149h92l-92 -144q37 -8 59.5 -39t22.5 -76z" />
    <glyph glyph-name="uni0E0C" unicode="&#xe0c;" horiz-adv-x="828" 
d="M699 183v328h85v-328q0 -93 -43 -141.5t-123 -48.5q-95 0 -144 69v-62h-85v333q0 58 -32.5 90t-91.5 32q-100 0 -143 -79l56 -67q-38 -25 -38 -79v-144q0 -19 18 -19h36v-67h-68q-31 0 -51 22.5t-20 56.5v138q0 27 11 53.5t29 38.5l-57 67q19 60 81.5 103t144.5 43
q92 0 151 -52t59 -130v-172q10 -47 46.5 -77.5t78.5 -30.5q53 0 76.5 29t23.5 94z" />
    <glyph glyph-name="uni0E0D" unicode="&#xe0d;" horiz-adv-x="828" 
d="M699 40v40q-15 -30 -52 -52t-81 -22q-82 0 -129.5 46t-47.5 125v156q0 58 -32.5 90t-91.5 32q-100 0 -143 -79l56 -67q-38 -25 -38 -79v-144q0 -19 18 -19h36v-67h-68q-31 0 -51 22.5t-20 56.5v138q0 27 11 53.5t29 38.5l-57 67q19 60 81.5 103t144.5 43q92 0 151 -52
t59 -130v-151q0 -51 28.5 -82t74.5 -31q42 0 78 31.5t44 72.5v331h85v-452q0 -97 -57 -152.5t-158 -55.5q-74 0 -135 26l10 70q63 -26 123 -26q61 0 96.5 31t35.5 88z" />
    <glyph glyph-name="uni0E0E" unicode="&#xe0e;" horiz-adv-x="543" 
d="M499 -200h-104q-54 50 -119 50q-75 0 -136 -50l-21 65q62 55 147 55q38 0 79.5 -17.5t68.5 -41.5v472q0 57 -35.5 89.5t-94.5 32.5q-98 0 -141 -79l56 -67q-38 -25 -38 -79v-156q0 -31 -19.5 -52.5t-48.5 -21.5h-66v67h31q18 0 18 19v131q0 27 10.5 53.5t28.5 38.5
l-57 67q19 60 81.5 103t144.5 43q92 0 153.5 -53t61.5 -132v-537z" />
    <glyph glyph-name="uni0E0F" unicode="&#xe0f;" horiz-adv-x="543" 
d="M499 -200h-81l-109 65q-14 -31 -46 -51t-68 -20q-65 0 -109 29l16 66q44 -28 89 -28q38 0 66.5 25t36.5 64l120 -72v455q0 57 -35.5 89.5t-94.5 32.5q-98 0 -141 -79l56 -67q-38 -25 -38 -79v-156q0 -31 -19.5 -52.5t-48.5 -21.5h-66v67h31q18 0 18 19v131
q0 27 10.5 53.5t28.5 38.5l-57 67q19 60 81.5 103t144.5 43q92 0 153.5 -53t61.5 -132v-537z" />
    <glyph glyph-name="uni0E10" unicode="&#xe10;" horiz-adv-x="516" 
d="M244 0h-72l-44 186q-8 32 -35 32h-28v75h48q65 0 86 -66l39 -159h13q57 0 95 52t38 143q0 100 -38 144.5t-118 44.5q-96 0 -161 -75l-36 63q84 82 197 82q83 0 128 -29l57 62h98l-102 -107q60 -57 60 -185q0 -117 -62.5 -190t-162.5 -73zM440 -200h-120q-62 0 -96 44
q-11 -18 -39.5 -31t-59.5 -13h-60v70h64q58 0 95 44q39 -44 92 -44h41v70h83v-140z" />
    <glyph glyph-name="uni0E11" unicode="&#xe11;" horiz-adv-x="548" 
d="M504 0h-85v353q0 47 -20.5 71.5t-51.5 24.5q-72 0 -127 -81.5t-55 -149.5v-218h-85v213q0 46 16.5 85.5t33 66.5t16.5 42v12q0 29 -24 29q-26 0 -37 -31l-64 25v72l61 -30q23 32 68 32q30 0 47.5 -20t17.5 -52q21 29 56.5 52t75.5 23q75 0 116 -44t41 -131v-344z" />
    <glyph glyph-name="uni0E12" unicode="&#xe12;" horiz-adv-x="877" 
d="M748 192v319h85v-320q0 -95 -41 -146.5t-123 -51.5q-89 0 -141 65v-58h-88v362q0 78 -63 90l-61 -58q-64 58 -65 58q-54 -12 -85.5 -64.5t-31.5 -131.5q0 -90 44.5 -138.5t91.5 -48.5q39 0 67 11v-70q-27 -13 -75 -13q-83 0 -148 70.5t-65 188.5q0 115 56.5 187t152.5 82
l57 -58q59 58 60 58q69 -9 109.5 -54.5t40.5 -113.5v-200q19 -45 53 -70.5t72 -25.5q54 0 76 32t22 99z" />
    <glyph glyph-name="uni0E13" unicode="&#xe13;" horiz-adv-x="830" 
d="M786 0h-86v63q-26 -37 -58 -53.5t-81 -16.5q-85 0 -128.5 52.5t-43.5 149.5v138q0 58 -32.5 90t-91.5 32q-100 0 -143 -79l56 -67q-38 -25 -38 -79v-144q0 -19 18 -19h36v-67h-68q-31 0 -51 22.5t-20 56.5v138q0 27 11 53.5t29 38.5l-57 67q19 60 81.5 103t144.5 43
q92 0 151 -52t59 -130v-145q0 -135 113 -135q40 0 70.5 31t43.5 81v339h85v-511z" />
    <glyph glyph-name="uni0E14" unicode="&#xe14;" horiz-adv-x="563" 
d="M519 0h-85v309q0 64 -41 103t-108 39q-74 0 -118 -53.5t-44 -147.5q0 -95 39 -138t87 -43q39 0 67 11v-70q-27 -13 -75 -13q-84 0 -144 65t-60 188q0 117 68 194.5t180 77.5q108 0 171 -61.5t63 -152.5v-308z" />
    <glyph glyph-name="uni0E15" unicode="&#xe15;" horiz-adv-x="578" 
d="M534 0h-85v362q0 78 -63 90l-70 -68q-76 68 -77 68q-54 -12 -85.5 -64.5t-31.5 -131.5q0 -90 44.5 -138.5t91.5 -48.5q39 0 67 11v-70q-27 -13 -75 -13q-83 0 -148 70.5t-65 188.5q0 115 56.5 187t152.5 82l70 -67q67 67 68 67q69 -9 109.5 -54.5t40.5 -113.5v-357z" />
    <glyph glyph-name="uni0E16" unicode="&#xe16;" horiz-adv-x="524" 
d="M480 0h-85v333q0 57 -33.5 89.5t-92.5 32.5q-50 0 -89 -21.5t-58 -57.5l56 -67q-38 -25 -38 -79v-144q0 -19 18 -19h36v-67h-68q-31 0 -51 22.5t-20 56.5v138q0 27 11 53.5t29 38.5l-57 67q19 59 83.5 102.5t146.5 43.5q92 0 152 -52t60 -130v-340z" />
    <glyph glyph-name="uni0E17" unicode="&#xe17;" horiz-adv-x="521" 
d="M477 0h-85v334q0 117 -109 117q-106 0 -154 -107v-344h-85v511h85v-71q58 82 167 82q87 0 134 -49t47 -141v-332z" />
    <glyph glyph-name="uni0E18" unicode="&#xe18;" horiz-adv-x="490" 
d="M457 190v-29q0 -89 -49.5 -128.5t-160.5 -39.5q-109 0 -159.5 42.5t-50.5 132.5v40h81v-40q0 -56 31 -82t98 -26q70 0 98.5 23t28.5 78v29q0 23 -14 39t-38 17l-166 13q-54 5 -86.5 39t-32.5 87q0 61 53 99t144 38q113 0 195 -42l-12 -74q-31 20 -81.5 33t-91.5 13
q-128 0 -128 -66q0 -25 14 -40t33 -17l183 -17q48 -5 79.5 -38.5t31.5 -83.5z" />
    <glyph glyph-name="uni0E19" unicode="&#xe19;" horiz-adv-x="519" 
d="M475 0h-86v63q-50 -70 -155 -70q-87 0 -138.5 53.5t-51.5 148.5v316h85v-302q0 -149 131 -149q41 0 79.5 32t50.5 80v339h85v-511z" />
    <glyph glyph-name="uni0E1A" unicode="&#xe1a;" horiz-adv-x="530" 
d="M401 188v323h85v-323q0 -93 -59.5 -144t-161.5 -51t-161.5 51t-59.5 144v323h85v-323q0 -59 37.5 -93.5t98.5 -34.5t98.5 34.5t37.5 93.5z" />
    <glyph glyph-name="uni0E1B" unicode="&#xe1b;" horiz-adv-x="530" 
d="M401 188v498h85v-498q0 -93 -59.5 -144t-161.5 -51t-161.5 51t-59.5 144v323h85v-323q0 -59 37.5 -93.5t98.5 -34.5t98.5 34.5t37.5 93.5z" />
    <glyph glyph-name="uni0E1C" unicode="&#xe1c;" horiz-adv-x="572" 
d="M528 0h-73l-169 276l-169 -276h-73v428q0 35 23.5 59t59.5 24h47v-74h-20q-27 0 -27 -27v-212l-4 -75l14 42l134 223h30l135 -225l13 -50q-4 44 -4 89v309h83v-511z" />
    <glyph glyph-name="uni0E1D" unicode="&#xe1d;" horiz-adv-x="572" 
d="M528 0h-73l-169 276l-169 -276h-73v428q0 35 23.5 59t59.5 24h47v-74h-20q-27 0 -27 -27v-212l-4 -75l14 42l134 223h30l135 -225l13 -50q-4 44 -4 89v484h83v-686z" />
    <glyph glyph-name="uni0E1E" unicode="&#xe1e;" horiz-adv-x="610" 
d="M491 0h-77l-109 310l-109 -310h-77l-102 511h88l60 -350l2 -38q3 31 6 38l114 325h36l114 -325l6 -38q0 29 2 38l60 350h88z" />
    <glyph glyph-name="uni0E1F" unicode="&#xe1f;" horiz-adv-x="615" 
d="M491 0h-77l-109 310l-109 -310h-77l-102 511h88l60 -350l2 -38q3 31 6 38l114 325h36l114 -325l6 -38q0 29 2 38l91 525h88z" />
    <glyph glyph-name="uni0E20" unicode="&#xe20;" horiz-adv-x="543" 
d="M499 0h-85v333q0 57 -35.5 89.5t-94.5 32.5q-98 0 -141 -79l56 -67q-38 -25 -38 -79v-156q0 -31 -19.5 -52.5t-48.5 -21.5h-66v67h31q18 0 18 19v131q0 27 10.5 53.5t28.5 38.5l-57 67q19 60 81.5 103t144.5 43q92 0 153.5 -53t61.5 -132v-337z" />
    <glyph glyph-name="uni0E21" unicode="&#xe21;" horiz-adv-x="520" 
d="M391 192v319h85v-320q0 -93 -49.5 -145.5t-137.5 -52.5q-100 0 -157 72v-65h-88v511h85v-347q20 -41 62 -72t79 -31q121 0 121 131z" />
    <glyph glyph-name="uni0E22" unicode="&#xe22;" horiz-adv-x="511" 
d="M382 192v319h85v-308q0 -101 -50.5 -155.5t-152.5 -54.5q-108 0 -164 42t-56 121q0 45 22.5 78t61.5 47q-37 10 -60.5 39.5t-23.5 77.5q0 51 33 83.5t84 32.5q42 0 75 -11l-9 -71q-22 9 -47 9t-40 -15t-15 -42q0 -31 23.5 -49t54.5 -18h86l7 -70h-82q-39 0 -64 -23.5
t-25 -62.5q0 -49 37 -75t98 -26q122 0 122 132z" />
    <glyph glyph-name="uni0E23" unicode="&#xe23;" horiz-adv-x="445" 
d="M44 33l11 76q32 -18 76 -32t73 -14q65 0 94.5 22t29.5 57q0 31 -30 51.5t-73 33t-85.5 28t-72.5 48t-30 80.5q0 60 48.5 99.5t125.5 39.5q107 0 171 -45l-13 -72q-29 21 -71 34t-77 13q-101 0 -101 -68q0 -27 30 -45.5t73 -31.5t86.5 -29t73.5 -48.5t30 -79.5
q0 -72 -50 -114.5t-147 -42.5q-104 0 -172 40z" />
    <glyph glyph-name="uni0E24" unicode="&#xe24;" horiz-adv-x="524" 
d="M480 -200h-85v533q0 57 -33.5 89.5t-92.5 32.5q-50 0 -89 -21.5t-58 -57.5l56 -67q-38 -25 -38 -79v-144q0 -19 18 -19h36v-67h-68q-31 0 -51 22.5t-20 56.5v138q0 27 11 53.5t29 38.5l-57 67q19 59 83.5 102.5t146.5 43.5q92 0 152 -52t60 -130v-540z" />
    <glyph glyph-name="uni0E25" unicode="&#xe25;" horiz-adv-x="505" 
d="M461 0h-85v238h-128q-63 0 -99.5 -26.5t-36.5 -69.5q0 -35 22.5 -56.5t63.5 -21.5q33 0 63 10l3 -71q-38 -10 -74 -10q-72 0 -116 43t-44 106q0 75 58.5 121t168.5 46h119v31q0 113 -132 113q-48 0 -94 -21.5t-77 -51.5l-35 60q84 82 210 82q103 0 158 -52t55 -147v-323z
" />
    <glyph glyph-name="uni0E26" unicode="&#xe26;" horiz-adv-x="543" 
d="M499 -200h-85v533q0 57 -35.5 89.5t-94.5 32.5q-98 0 -141 -79l56 -67q-38 -25 -38 -79v-156q0 -31 -19.5 -52.5t-48.5 -21.5h-66v67h31q18 0 18 19v131q0 27 10.5 53.5t28.5 38.5l-57 67q19 60 81.5 103t144.5 43q92 0 153.5 -53t61.5 -132v-537z" />
    <glyph glyph-name="uni0E27" unicode="&#xe27;" horiz-adv-x="481" 
d="M30 40l19 69q32 -19 74.5 -32t74.5 -13q159 0 159 193q0 92 -42.5 142t-107.5 50q-83 0 -160 -53l-18 72q89 55 193 55q98 0 159 -72t61 -195t-64.5 -193.5t-171.5 -70.5t-176 48z" />
    <glyph glyph-name="uni0E28" unicode="&#xe28;" horiz-adv-x="526" 
d="M480 0h-85v338q0 56 -34.5 86.5t-98.5 30.5q-62 0 -97.5 -30.5t-35.5 -86.5v-112q8 20 31 35t53 15h81v-75h-84q-38 0 -59.5 -24.5t-21.5 -61.5v-115h-85v337q0 83 59 134t159 51q66 0 114 -27l49 60h91l-81 -101q45 -44 45 -117v-337z" />
    <glyph glyph-name="uni0E29" unicode="&#xe29;" horiz-adv-x="560" 
d="M541 256h-53v-68q0 -93 -60 -144t-162 -51t-162 51t-60 144v323h85v-323q0 -64 37 -96t100 -32t100 32t37 96v68h-111v75h111v180h85v-180h72z" />
    <glyph glyph-name="uni0E2A" unicode="&#xe2a;" horiz-adv-x="519" 
d="M461 0h-85v238h-128q-63 0 -99.5 -26.5t-36.5 -69.5q0 -35 22.5 -56.5t63.5 -21.5q33 0 63 10l3 -71q-38 -10 -74 -10q-72 0 -116 43t-44 106q0 75 58.5 121t168.5 46h119v31q0 113 -132 113q-48 0 -94 -21.5t-77 -51.5l-35 60q84 82 210 82q72 0 123 -31l52 64h91
l-91 -108q38 -44 38 -124v-323z" />
    <glyph glyph-name="uni0E2B" unicode="&#xe2b;" horiz-adv-x="498" 
d="M488 0h-92l-75 232q-11 32 -34 55t-51 30l-107 -94v-223h-85v511h85v-198l225 198h115l-177 -148q42 -16 72.5 -50t43.5 -75z" />
    <glyph glyph-name="uni0E2C" unicode="&#xe2c;" horiz-adv-x="572" 
d="M528 0h-73l-169 276l-169 -276h-73v511h83v-313l-4 -75l14 42l134 223h30l135 -225l13 -50q-4 44 -4 89v208q0 31 -19.5 49.5t-51.5 18.5h-18l-11 33l98 175h92l-99 -170q92 -19 92 -126v-390z" />
    <glyph glyph-name="uni0E2D" unicode="&#xe2d;" horiz-adv-x="515" 
d="M215 225h-77q-18 0 -18 -19v-42q0 -102 131 -102q74 0 108.5 46t34.5 150q0 192 -147 192q-48 0 -93.5 -21t-76.5 -51l-36 62q84 82 206 82q113 0 172.5 -71t59.5 -196q0 -129 -57.5 -195.5t-168.5 -66.5q-107 0 -160 46.5t-53 127.5v50q0 38 24 60t63 22h88v-74z" />
    <glyph glyph-name="uni0E2E" unicode="&#xe2e;" horiz-adv-x="515" 
d="M215 225h-77q-18 0 -18 -19v-42q0 -102 131 -102q74 0 108.5 46t34.5 150q0 192 -147 192q-48 0 -93.5 -21t-76.5 -51l-36 62q84 82 206 82q67 0 117 -26l48 59h93l-85 -106q59 -70 59 -194q0 -129 -57.5 -195.5t-168.5 -66.5q-107 0 -160 46.5t-53 127.5v50q0 38 24 60
t63 22h88v-74z" />
    <glyph glyph-name="uni0E2F" unicode="&#xe2f;" horiz-adv-x="482" 
d="M438 0h-85v381q-18 -38 -54.5 -57.5t-80.5 -19.5q-83 0 -130.5 45.5t-47.5 120.5v41h83v-34q0 -48 29.5 -77t78.5 -29q53 0 89 38t36 90v12h82v-511z" />
    <glyph glyph-name="uni0E30" unicode="&#xe30;" horiz-adv-x="259" 
d="M219 330h-113q-26 0 -46 18.5t-20 45.5v54h85v-36q0 -15 17 -15h77v-67zM219 73h-113q-26 0 -46 18.5t-20 45.5v54h85v-36q0 -15 17 -15h77v-67z" />
    <glyph glyph-name="uni0E31" unicode="&#xe31;" horiz-adv-x="0" 
d="M36 579h-238q-30 0 -51 20.5t-21 51.5v49h85v-40q0 -15 17 -15h208v-66z" />
    <glyph glyph-name="uni0E32" unicode="&#xe32;" horiz-adv-x="434" 
d="M390 0h-85v333q0 58 -28.5 88t-81.5 30q-90 0 -154 -68l-28 59q82 80 190 80q88 0 137.5 -52t49.5 -144v-326z" />
    <glyph glyph-name="uni0E33" unicode="&#xe33;" horiz-adv-x="434" 
d="M390 0h-85v333q0 58 -28.5 88t-81.5 30q-90 0 -154 -68l-28 59q82 80 190 80q88 0 137.5 -52t49.5 -144v-326zM-89 566q-37 0 -62.5 25.5t-25.5 62.5t25.5 62.5t62.5 25.5t62.5 -25.5t25.5 -62.5t-25.5 -62.5t-62.5 -25.5zM-89 618q15 0 25.5 10.5t10.5 26.5
q0 15 -10.5 25.5t-25.5 10.5t-25.5 -10.5t-10.5 -25.5q0 -16 10.5 -26.5t25.5 -10.5z" />
    <glyph glyph-name="uni0E34" unicode="&#xe34;" horiz-adv-x="0" 
d="M-44 579h-391v72h391v-72z" />
    <glyph glyph-name="uni0E35" unicode="&#xe35;" horiz-adv-x="0" 
d="M-44 579h-391v72h312v70h79v-142z" />
    <glyph glyph-name="uni0E36" unicode="&#xe36;" horiz-adv-x="0" 
d="M-95 579h-340v72h266q-2 8 -2 15q0 33 23.5 56t58.5 23t59.5 -23t24.5 -56q0 -36 -25.5 -61.5t-64.5 -25.5zM-57 666q0 13 -8.5 21.5t-21.5 8.5t-21.5 -8.5t-8.5 -21.5t8.5 -21.5t21.5 -8.5t21.5 8.5t8.5 21.5z" />
    <glyph glyph-name="uni0E37" unicode="&#xe37;" horiz-adv-x="0" 
d="M-44 579h-391v72h211v64h67v-64h42v64h71v-136z" />
    <glyph glyph-name="uni0E38" unicode="&#xe38;" horiz-adv-x="0" 
d="M-44 -251h-75v117q0 13 -12 13h-51v63h83q24 0 39.5 -16.5t15.5 -39.5v-137z" />
    <glyph glyph-name="uni0E39" unicode="&#xe39;" horiz-adv-x="0" 
d="M-117 -152v94h73v-94q0 -50 -32.5 -79t-91.5 -29q-55 0 -86.5 28.5t-31.5 75.5v36h-48v62h116v-98q0 -49 50 -49q51 0 51 53z" />
    <glyph glyph-name="uni0E3A" unicode="&#xe3a;" horiz-adv-x="0" 
d="M-32 -107q0 -22 -16.5 -38t-39.5 -16t-39.5 16t-16.5 38t16.5 38.5t39.5 16.5t39.5 -16t16.5 -39z" />
    <glyph glyph-name="uni0E3F" unicode="&#xe3f;" horiz-adv-x="532" 
d="M265 -92h-50v92h-143v607h143v94h50v-94q185 -12 185 -153q0 -113 -125 -144v-2q63 -5 101.5 -44t38.5 -102q0 -152 -200 -161v-93zM265 535v-185q47 6 72.5 27t25.5 68q0 45 -28.5 66t-69.5 24zM215 348v188h-56v-188h48h8zM265 274v-201q108 11 108 97q0 91 -108 104z
M215 71v206h-56v-206h56z" />
    <glyph glyph-name="uni0E40" unicode="&#xe40;" horiz-adv-x="189" 
d="M140 0h-85v511h85v-511z" />
    <glyph glyph-name="uni0E41" unicode="&#xe41;" horiz-adv-x="376" 
d="M325 0h-85v511h85v-511zM140 0h-85v511h85v-511z" />
    <glyph glyph-name="uni0E42" unicode="&#xe42;" horiz-adv-x="251" 
d="M180 0h-85v580q0 120 -86 161l-3 4q-2 4 -5 9l-3 5q32 47 84 75t110 28q90 0 163 -42l-6 -73q-75 45 -141 45q-76 0 -121 -35q38 -22 65.5 -73.5t27.5 -111.5v-572z" />
    <glyph glyph-name="uni0E43" unicode="&#xe43;" horiz-adv-x="234" 
d="M174 0h-85v555q0 35 16 65.5t34.5 48.5t34.5 39.5t16 41.5q0 51 -69 51q-31 0 -61 -18.5t-50 -50.5l-43 49q54 84 155 84q72 0 111 -30t39 -76q0 -28 -15.5 -53t-33.5 -42.5t-33.5 -51t-15.5 -76.5v-536z" />
    <glyph glyph-name="uni0E44" unicode="&#xe44;" horiz-adv-x="252" 
d="M190 0h-85v604q0 57 21 103.5t53 65.5h-234v61h326v-56q-44 -19 -62.5 -55t-18.5 -97v-626z" />
    <glyph glyph-name="uni0E45" unicode="&#xe45;" horiz-adv-x="434" 
d="M390 -200h-85v533q0 58 -28.5 88t-81.5 30q-90 0 -154 -68l-28 59q82 80 190 80q88 0 137.5 -52t49.5 -144v-526z" />
    <glyph glyph-name="uni0E46" unicode="&#xe46;" horiz-adv-x="498" 
d="M447 -200h-85v580q0 71 -46 80l-72 -56l-76 56q-57 -14 -57 -62q0 -26 15 -40.5t41 -14.5q15 0 26 4l5 -55q-16 -6 -43 -6q-45 0 -77.5 31t-32.5 81q0 52 35.5 83.5t89.5 40.5l74 -56l73 56q61 -4 95.5 -46.5t34.5 -101.5v-574z" />
    <glyph glyph-name="uni0E47" unicode="&#xe47;" horiz-adv-x="0" 
d="M-82 575h-75q-41 0 -68 44q-22 -44 -88 -44q-40 0 -65 25.5t-25 65.5t29 66.5t86 26.5h99q40 0 40 33v24h77v-27q0 -38 -27 -64t-72 -26h-115q-39 0 -39 -30q0 -28 37 -28q45 0 64 25q23 -25 57 -25h85v-66z" />
    <glyph glyph-name="uni0E48" unicode="&#xe48;" horiz-adv-x="0" 
d="M-44 767h-79v113h79v-113z" />
    <glyph glyph-name="uni0E49" unicode="&#xe49;" horiz-adv-x="0" 
d="M34 767h-174q-20 0 -33 11.5t-13 29.5v15q0 15 -17 15h-47v64h80q51 0 51 -42v-13q0 -15 17 -15h136v-65z" />
    <glyph glyph-name="uni0E4A" unicode="&#xe4a;" horiz-adv-x="0" 
d="M-36 767h-40l-8 15q9 9 9 23q0 12 -8 20t-20 10l-44 -40l-46 38q-23 -8 -23 -28q0 -7 7 -23l-9 -16h-57q-8 21 -8 47q0 29 22 52t60 27l54 -51l48 52q79 -3 79 -85q32 15 32 73l-6 45h72q4 -15 5 -40q0 -50 -35 -84.5t-84 -34.5z" />
    <glyph glyph-name="uni0E4B" unicode="&#xe4b;" horiz-adv-x="0" 
d="M13 812l-65 2l2 -47h-77l2 47l-65 -2v54l65 -2l-2 48h77l-2 -48l65 2v-54z" />
    <glyph glyph-name="uni0E4C" unicode="&#xe4c;" horiz-adv-x="0" 
d="M12 742h-67q-33 0 -33 -30v-18h-86v36q0 33 24 55.5t58 22.5h104v-66z" />
    <glyph glyph-name="uni0E4D" unicode="&#xe4d;" horiz-adv-x="0" 
d="M-89 566q-37 0 -62.5 25.5t-25.5 62.5t25.5 62.5t62.5 25.5t62.5 -25.5t25.5 -62.5t-25.5 -62.5t-62.5 -25.5zM-89 618q15 0 25.5 10.5t10.5 26.5q0 15 -10.5 25.5t-25.5 10.5t-25.5 -10.5t-10.5 -25.5q0 -16 10.5 -26.5t25.5 -10.5z" />
    <glyph glyph-name="uni0E4E" unicode="&#xe4e;" horiz-adv-x="0" 
 />
    <glyph glyph-name="uni0E4F" unicode="&#xe4f;" horiz-adv-x="514" 
d="M260 5q-80 0 -137 57t-57 138q0 80 57 137t137 57t137 -57t57 -137q0 -81 -57 -138t-137 -57zM260 35q68 0 116 48.5t48 116.5t-48 116t-116 48t-116 -48t-48 -116t48 -116.5t116 -48.5zM260 87q-47 0 -80 33t-33 79q0 47 33 80t79 33q47 0 80 -33t33 -79q0 -47 -33 -80
t-79 -33zM260 116q34 0 58 24.5t24 59.5q0 34 -24.5 58t-58.5 24t-58.5 -24.5t-24.5 -58.5t24.5 -58.5t59.5 -24.5z" />
    <glyph glyph-name="uni0E50" unicode="&#xe50;" horiz-adv-x="527" 
d="M493 199q0 -100 -64 -153t-165 -53q-102 0 -166 53t-64 153t64 153t166 53q101 0 165 -53t64 -153zM412 199q0 64 -43 101.5t-105 37.5q-63 0 -106 -37.5t-43 -101.5t43 -101.5t106 -37.5q62 0 105 37.5t43 101.5z" />
    <glyph glyph-name="uni0E51" unicode="&#xe51;" horiz-adv-x="519" 
d="M219 -91l8 66h32q61 0 104 51t43 143q0 75 -41 119t-113 44q-63 0 -104 -35.5t-41 -92.5q0 -53 28.5 -80.5t68.5 -27.5q45 0 77 17l5 -67q-37 -20 -82 -20q-74 0 -124.5 47t-50.5 131q0 88 62.5 142t161.5 54q108 0 170.5 -62.5t62.5 -169.5q0 -119 -67 -189t-180 -70
h-20z" />
    <glyph glyph-name="uni0E52" unicode="&#xe52;" horiz-adv-x="585" 
d="M374 0h-164q-76 0 -122 48t-46 121v323h80v-323q0 -46 26.5 -72.5t65.5 -26.5h160q36 0 62.5 29t26.5 71v76q0 72 -58 76l-57 -55l-62 55q-45 -6 -45 -54q0 -50 58 -61l-23 -60q-110 20 -110 121q0 52 31.5 86t85.5 41l65 -64l57 64q61 -3 99.5 -43.5t38.5 -107.5v-74
q0 -69 -50 -119.5t-119 -50.5z" />
    <glyph glyph-name="uni0E53" unicode="&#xe53;" horiz-adv-x="536" 
d="M492 0h-80v239q0 37 -16.5 56.5t-42.5 21.5l-76 -90l-87 87q-76 -33 -76 -122q0 -63 35.5 -99t83.5 -36q42 0 72 17l7 -64q-37 -17 -88 -17q-79 0 -134.5 56.5t-55.5 143.5q0 78 43 129.5t113 72.5l87 -85l72 85q63 -5 103 -47t40 -111v-237z" />
    <glyph glyph-name="uni0E54" unicode="&#xe54;" horiz-adv-x="531" 
d="M485 0h-46q-77 0 -113 32q-35 -39 -107 -39q-85 0 -135 51.5t-50 137.5q0 97 64 154t161 57h75q88 0 88 80v19h84v-20q0 -67 -41 -107t-112 -40h-93q-67 0 -105.5 -36.5t-38.5 -104.5q0 -62 29.5 -93t77.5 -31q41 0 70 19q-20 23 -20 65q0 50 31 79t76 29h63l-14 -68h-35
q-19 0 -31.5 -13.5t-12.5 -33.5q0 -70 97 -70h48z" />
    <glyph glyph-name="uni0E55" unicode="&#xe55;" horiz-adv-x="531" 
d="M268 402q13 0 23 10t10 24q0 13 -10 23t-23 10q-14 0 -24 -9.5t-10 -23.5t10 -24t24 -10zM485 0h-46q-77 0 -113 32q-35 -39 -107 -39q-85 0 -135 51.5t-50 137.5t49 141.5t130 64.5q-24 16 -24 48q0 34 22 54.5t56 20.5t57 -21t23 -54q0 -11 -7 -25t-14 -18h12
q46 0 65 20.5t19 59.5v19h84v-20q0 -66 -39.5 -105.5t-113.5 -39.5h-100q-66 0 -101.5 -37t-35.5 -106q0 -62 29.5 -93t77.5 -31q41 0 70 19q-20 23 -20 65q0 50 31 79t76 29h63l-14 -68h-35q-19 0 -31.5 -13.5t-12.5 -33.5q0 -70 97 -70h48z" />
    <glyph glyph-name="uni0E56" unicode="&#xe56;" horiz-adv-x="526" 
d="M143 223l61 -43q-22 -17 -22 -48q0 -30 27.5 -52.5t70.5 -22.5q63 0 100 40.5t37 101.5q0 63 -39 104t-107 41q-88 0 -144 -77h-56l-50 225h79l30 -147q53 65 152 65q94 0 154 -60.5t60 -150.5q0 -87 -54 -146.5t-150 -59.5q-86 0 -137.5 42t-51.5 108q0 23 11.5 45.5
t28.5 34.5z" />
    <glyph glyph-name="uni0E57" unicode="&#xe57;" horiz-adv-x="683" 
d="M497 0h-93v239q0 37 -16.5 56.5t-42.5 21.5l-75 -93l-80 90q-76 -33 -76 -122q0 -63 35.5 -99t83.5 -36q42 0 72 17l7 -64q-37 -17 -88 -17q-79 0 -134.5 56.5t-55.5 143.5q0 78 43 129.5t113 72.5l80 -91l71 91q63 -5 103 -47t40 -111v-177h14q28 0 44.5 21.5t16.5 58.5
v352h80v-341q0 -66 -40 -108.5t-102 -42.5z" />
    <glyph glyph-name="uni0E58" unicode="&#xe58;" horiz-adv-x="513" 
d="M347 -4l-77 76l-67 -76q-70 0 -116.5 36t-46.5 99v91q0 71 51 121t133 50h74q50 0 70 20t20 60v19h81v-20q0 -68 -41 -108.5t-114 -40.5h-85q-52 0 -79.5 -28.5t-27.5 -76.5v-85q0 -28 17.5 -47.5t50.5 -19.5l80 86l85 -87q23 6 37.5 27t14.5 48q0 30 -20.5 50t-48.5 22
l25 56q51 -4 84 -41.5t33 -88.5q0 -57 -41 -99.5t-92 -42.5z" />
    <glyph glyph-name="uni0E59" unicode="&#xe59;" horiz-adv-x="534" 
d="M433 0h-82l-99 284q-17 48 -64 48q-35 0 -56 -35.5t-21 -95.5q0 -64 22.5 -104t51.5 -40q31 0 56 20l16 -57q-33 -27 -77 -27q-61 0 -103.5 58.5t-42.5 149.5q0 89 42.5 144t107.5 55q70 0 101 -52q5 22 25.5 37t47.5 15q43 0 67 -32l23 124h75l-40 -201h-60
q-14 46 -56 46q-16 0 -26 -12t-10 -29z" />
    <glyph glyph-name="uni0E5B" unicode="&#xe5b;" horiz-adv-x="830" 
d="M643 117l-203 -104v239q0 27 18 37l145 74q13 7 29 7q21 0 34.5 -14t13.5 -40v-127q0 -29 -8 -45t-29 -27zM414 0l-264 135v260q0 37 29 52l164 84q37 19 69 19q31 0 75 -21l115 -57q24 -12 24 -36q0 -29 -33 -45l-148 -75q-31 -16 -31 -61v-255z" />
    <glyph glyph-name="endash" unicode="&#x2013;" horiz-adv-x="435" 
d="M435 204h-435v60h435v-60z" />
    <glyph glyph-name="emdash" unicode="&#x2014;" horiz-adv-x="870" 
d="M870 204h-870v60h870v-60z" />
    <glyph glyph-name="quoteleft" unicode="&#x2018;" horiz-adv-x="242" 
d="M142 394h-97l74 213h78z" />
    <glyph glyph-name="quoteright" unicode="&#x2019;" horiz-adv-x="242" 
d="M120 394h-75l54 213h98z" />
    <glyph glyph-name="quotesinglbase" unicode="&#x201a;" horiz-adv-x="242" 
d="M123 -116h-78l55 213h97z" />
    <glyph glyph-name="quotedblleft" unicode="&#x201c;" 
d="M345 394h-96l73 213h78zM181 394h-97l74 213h77z" />
    <glyph glyph-name="quotedblright" unicode="&#x201d;" 
d="M326 394h-77l55 213h96zM161 394h-77l54 213h97z" />
    <glyph glyph-name="quotedblbase" unicode="&#x201e;" 
d="M326 -116h-77l55 213h96zM161 -116h-77l54 213h97z" />
    <glyph glyph-name="dagger" unicode="&#x2020;" 
d="M280 0h-76v394h-146v61h146v152h76v-152h145v-61h-145v-394z" />
    <glyph glyph-name="daggerdbl" unicode="&#x2021;" 
d="M425 141h-145v-141h-76v141h-146v61h146v203h-146v61h146v141h76v-141h145v-61h-145v-203h145v-61z" />
    <glyph glyph-name="bullet" unicode="&#x2022;" horiz-adv-x="435" 
d="M218 151q-63 0 -107.5 44.5t-44.5 108.5q0 63 44.5 107t107.5 44t107.5 -44t44.5 -107q0 -64 -44.5 -108.5t-107.5 -44.5z" />
    <glyph glyph-name="ellipsis" unicode="&#x2026;" horiz-adv-x="870" 
d="M773 0h-97v97h97v-97zM484 0h-98v97h98v-97zM194 0h-97v97h97v-97z" />
    <glyph glyph-name="perthousand" unicode="&#x2030;" horiz-adv-x="870" 
d="M131 -19h-63l377 645h62zM133 331q54 0 54 113t-54 113t-54 -113t54 -113zM133 270q-69 0 -99.5 49t-30.5 125q0 80 28.5 127t101.5 47t101.5 -47t28.5 -127q0 -76 -30.5 -125t-99.5 -49zM442 50q54 0 54 113t-54 113t-54 -113t54 -113zM442 -11q-69 0 -99.5 49
t-30.5 125q0 80 28.5 127t101.5 47t101.5 -47t28.5 -127q0 -76 -30.5 -125t-99.5 -49zM737 50q54 0 54 113t-54 113t-54 -113t54 -113zM737 -11q-69 0 -99.5 49t-30.5 125q0 80 28.5 127t101.5 47t101.5 -47t28.5 -127q0 -76 -30.5 -125t-99.5 -49z" />
    <glyph glyph-name="guilsinglleft" unicode="&#x2039;" horiz-adv-x="242" 
d="M218 58h-76l-125 176l125 176h76l-113 -176z" />
    <glyph glyph-name="guilsinglright" unicode="&#x203a;" horiz-adv-x="242" 
d="M100 58h-77l114 176l-114 176h77l124 -176z" />
    <glyph glyph-name="fraction" unicode="&#x2044;" horiz-adv-x="145" 
d="M-84 -19h-63l377 645h62z" />
    <glyph glyph-name="Euro" unicode="&#x20ac;" 
d="M489 84l5 -75q-46 -19 -121 -19q-111 0 -187 61t-98 169h-83l12 47h65q-2 24 -2 37q0 12 2 36h-77l12 47h72q23 105 99.5 168t184.5 63q76 0 133 -23l-17 -72q-43 23 -108 23q-74 0 -125 -43t-72 -116h277l-11 -47h-276q-2 -12 -2 -36q0 -25 2 -37h260l-10 -47h-240
q21 -73 71.5 -115t124.5 -42q64 0 109 21z" />
    <glyph glyph-name="trademark" unicode="&#x2122;" horiz-adv-x="861" 
d="M814 245h-66v277h-2l-101 -277h-54l-102 277h-2v-277h-66v362h103l95 -244l93 244h102v-362zM224 245h-66v301h-111v61h289v-61h-112v-301z" />
    <glyph glyph-name="partialdiff" unicode="&#x2202;" horiz-adv-x="445" 
d="M338 244q-54 74 -128 74q-55 0 -86 -40t-31 -95q0 -56 30.5 -98.5t84.5 -42.5q45 0 76 35.5t42.5 79t11.5 87.5zM93 532l-36 43q58 52 133 52q49 0 87.5 -19t62.5 -50t40 -72.5t22 -83.5t6 -87q0 -58 -8 -108.5t-28 -102.5t-62.5 -83t-103.5 -31q-80 0 -128.5 57
t-48.5 138q0 80 47 133t126 53q84 0 140 -66q0 7 0.5 20t0.5 20q0 52 -13 100.5t-48.5 87.5t-89.5 39q-45 0 -99 -40z" />
    <glyph glyph-name="Delta" unicode="&#x2206;" horiz-adv-x="586" 
d="M479 63l-189 483l-186 -483h375zM576 0h-565l243 619h72z" />
    <glyph glyph-name="product" unicode="&#x220f;" horiz-adv-x="626" 
d="M566 -186h-68v807h-371v-807h-68v870h507v-870z" />
    <glyph glyph-name="summation" unicode="&#x2211;" horiz-adv-x="535" 
d="M512 -186h-490v55l280 383l-268 376v56h468v-63h-380l262 -369l-278 -376h406v-62z" />
    <glyph glyph-name="minus" unicode="&#x2212;" horiz-adv-x="522" 
d="M481 182h-440v76h440v-76z" />
    <glyph glyph-name="radical" unicode="&#x221a;" horiz-adv-x="438" 
d="M264 -186h-66l-141 290l-40 -19l-25 52l98 46l131 -276l160 777h66z" />
    <glyph glyph-name="infinity" unicode="&#x221e;" horiz-adv-x="660" 
d="M293 218q-79 79 -130 79q-32 0 -51 -23t-19 -55q0 -34 19.5 -54.5t52.5 -20.5q54 0 128 74zM368 218q29 -26 40.5 -36.5t38.5 -24t52 -13.5q32 0 50 21.5t18 53.5q0 35 -18.5 57t-52.5 22q-48 0 -128 -80zM331 180q-7 -6 -28.5 -25.5t-32 -27t-29.5 -19.5t-37.5 -17
t-39.5 -5q-57 0 -92 37.5t-35 95.5t34 97t92 39q15 0 28.5 -2.5t28 -9.5t23.5 -11.5t24.5 -17.5t20.5 -17.5t22.5 -21t20.5 -19.5l13.5 13.5l14.5 14.5t14 13.5t15.5 14t15 11.5t17 11.5t17 9t18.5 7.5t18.5 4t20.5 2q58 0 93.5 -38.5t35.5 -96.5t-35.5 -97.5t-92.5 -39.5
q-76 0 -165 95z" />
    <glyph glyph-name="integral" unicode="&#x222b;" horiz-adv-x="482" 
d="M187 -14v19v431q0 8 -0.5 34.5t-0.5 40.5t2 40t6 41t12 35t19.5 30.5t30 18.5t41.5 8q26 0 47 -12t21 -37q0 -15 -10 -24t-26 -9t-30 18.5t-19 18.5q-7 0 -12.5 -6t-8.5 -16t-4.5 -21.5t-1.5 -25v-23.5t0.5 -19.5t0.5 -10.5l1 -34v-445q0 -109 -16 -153q-25 -70 -94 -70
q-22 0 -41 11.5t-19 33.5q0 12 10 21.5t22 9.5q17 0 29 -18t17 -18q6 0 10.5 6.5t7 18t4.5 23.5t2 27t0.5 25t0.5 21z" />
    <glyph glyph-name="approxequal" unicode="&#x2248;" horiz-adv-x="516" 
d="M444 204h43q-4 -55 -32 -91t-80 -36q-39 0 -124.5 31.5t-112.5 31.5q-26 0 -43.5 -20.5t-21.5 -47.5h-45q7 55 34 92t78 37q40 0 122 -31t116 -31q52 0 66 65zM445 361h43q-7 -55 -34 -91t-79 -36q-39 0 -124 31t-112 31q-26 0 -44 -20t-22 -47h-44q4 52 32.5 90.5
t79.5 38.5q38 0 121.5 -31t116.5 -31q51 0 66 65z" />
    <glyph glyph-name="notequal" unicode="&#x2260;" horiz-adv-x="522" 
d="M481 99h-250l-66 -127l-54 28l51 99h-123v63h155l59 110h-214v62h247l67 129l54 -28l-54 -101h128v-62h-160l-58 -110h218v-63z" />
    <glyph glyph-name="lessequal" unicode="&#x2264;" horiz-adv-x="522" 
d="M483 -26h-442v63h442v-63zM483 71l-442 160v66l442 162v-67l-355 -128l355 -126v-67z" />
    <glyph glyph-name="greaterequal" unicode="&#x2265;" horiz-adv-x="522" 
d="M483 -26h-442v63h442v-63zM483 231l-442 -160v67l355 126l-355 128v67l442 -162v-66z" />
    <glyph glyph-name="lozenge" unicode="&#x25ca;" horiz-adv-x="516" 
d="M258 36l114 274l-114 274l-114 -274zM289 -30h-63l-149 340l149 340h63l149 -340z" />
    <glyph glyph-name="uni0E10.alt1" unicode="&#xf700;" horiz-adv-x="516" 
d="M244 0h-72l-44 186q-8 32 -35 32h-28v75h48q65 0 86 -66l39 -159h13q57 0 95 52t38 143q0 100 -38 144.5t-118 44.5q-96 0 -161 -75l-36 63q84 82 197 82q83 0 128 -29l57 62h98l-102 -107q60 -57 60 -185q0 -117 -62.5 -190t-162.5 -73z" />
    <glyph glyph-name="uni0E34.alt1" unicode="&#xf701;" horiz-adv-x="0" 
d="M-161 579h-328v72h328v-72z" />
    <glyph glyph-name="uni0E35.alt1" unicode="&#xf702;" horiz-adv-x="0" 
d="M-161 579h-328v72h248v70h80v-142z" />
    <glyph glyph-name="uni0E36.alt1" unicode="&#xf703;" horiz-adv-x="0" 
d="M-224 579h-265v72h191q-2 8 -2 15q0 33 23.5 56t58.5 23t59.5 -23t24.5 -56q0 -36 -25.5 -61.5t-64.5 -25.5zM-186 666q0 13 -8.5 21.5t-21.5 8.5t-21.5 -8.5t-8.5 -21.5t8.5 -21.5t21.5 -8.5t21.5 8.5t8.5 21.5z" />
    <glyph glyph-name="uni0E37.alt1" unicode="&#xf704;" horiz-adv-x="0" 
d="M-161 579h-328v72h148v64h67v-64h42v64h71v-136z" />
    <glyph glyph-name="uni0E48.alt1" unicode="&#xf705;" horiz-adv-x="0" 
d="M-202 579h-70v143h70v-143z" />
    <glyph glyph-name="uni0E49.alt1" unicode="&#xf706;" horiz-adv-x="0" 
d="M-85 579h-195q-20 0 -35 13t-15 31v17q0 15 -17 15h-47v64h77q24 0 39 -12.5t15 -33.5v-14q0 -15 17 -15h161v-65z" />
    <glyph glyph-name="uni0E4A.alt1" unicode="&#xf707;" horiz-adv-x="0" 
d="M-189 580h-40l-8 15q9 9 9 23q0 26 -28 30l-53 -42l-52 40q-23 -8 -23 -28q0 -7 7 -23l-9 -16h-57q-8 21 -8 47q0 29 22 52t60 27l60 -50l57 51q79 -3 79 -85q32 15 32 73l-6 45h72q4 -15 5 -40q0 -50 -35 -84.5t-84 -34.5z" />
    <glyph glyph-name="uni0E4B.alt1" unicode="&#xf708;" horiz-adv-x="0" 
d="M-154 627l-71 2l2 -50h-87l2 50l-71 -2v57l71 -2l-2 50h87l-2 -50l71 2v-57z" />
    <glyph glyph-name="uni0E4C.alt1" unicode="&#xf709;" horiz-adv-x="0" 
d="M-163 639h-79q-33 0 -33 -30v-30h-86v48q0 33 24 55.5t58 22.5h116v-66z" />
    <glyph glyph-name="uni0E48.alt2" unicode="&#xf70a;" horiz-adv-x="0" 
d="M-45 579h-79v140h79v-140z" />
    <glyph glyph-name="uni0E49.alt2" unicode="&#xf70b;" horiz-adv-x="0" 
d="M35 579h-199q-20 0 -33 11.5t-13 29.5v20q0 15 -17 15h-47v64h80q51 0 51 -42v-18q0 -15 17 -15h161v-65z" />
    <glyph glyph-name="uni0E4A.alt2" unicode="&#xf70c;" horiz-adv-x="0" 
d="M-141 580h-40l-8 15q9 9 9 23q0 26 -28 30l-53 -42l-52 40q-23 -8 -23 -28q0 -7 7 -23l-9 -16h-57q-8 21 -8 47q0 29 22 52t60 27l60 -49l57 50q79 -3 79 -85q32 15 32 73l-6 45h72q4 -15 5 -40q0 -50 -35 -84.5t-84 -34.5z" />
    <glyph glyph-name="uni0E4B.alt2" unicode="&#xf70d;" horiz-adv-x="0" 
d="M30 627l-71 2l2 -50h-87l2 50l-71 -2v57l71 -2l-2 50h87l-2 -50l71 2v-57z" />
    <glyph glyph-name="uni0E4C.alt2" unicode="&#xf70e;" horiz-adv-x="0" 
d="M-14 639h-79q-33 0 -33 -30v-30h-86v48q0 33 24 55.5t58 22.5h116v-66z" />
    <glyph glyph-name="uni0E0D.alt1" unicode="&#xf70f;" horiz-adv-x="827" 
d="M698 167v344h85v-338q0 -85 -49 -133t-148 -48t-148.5 49.5t-49.5 139.5v152q0 58 -31 90t-89 32q-50 0 -89 -21.5t-58 -57.5l56 -67q-38 -25 -38 -79v-144q0 -19 18 -19h36v-67h-68q-31 0 -51 22.5t-20 56.5v138q0 27 11 53.5t29 38.5l-57 67q19 59 83.5 102.5
t146.5 43.5q91 0 148.5 -52t57.5 -130v-165q0 -53 29 -84t85 -31q111 0 111 107z" />
    <glyph glyph-name="uni0E31.alt1" unicode="&#xf710;" horiz-adv-x="0" 
d="M11 579h-306q-30 0 -51 20.5t-21 51.5v49h85v-40q0 -15 17 -15h276v-66z" />
    <glyph glyph-name="uni0E4D.alt1" unicode="&#xf711;" horiz-adv-x="0" 
d="M-235 566q-37 0 -62.5 25.5t-25.5 62.5t25.5 62.5t62.5 25.5t62.5 -25.5t25.5 -62.5t-25.5 -62.5t-62.5 -25.5zM-235 618q15 0 25.5 10.5t10.5 26.5q0 15 -10.5 25.5t-25.5 10.5t-25.5 -10.5t-10.5 -25.5q0 -16 10.5 -26.5t25.5 -10.5z" />
    <glyph glyph-name="uni0E47.alt1" unicode="&#xf712;" horiz-adv-x="0" 
d="M-168 575h-75q-41 0 -68 44q-22 -44 -88 -44q-40 0 -65 25.5t-25 65.5t29 66.5t86 26.5h99q40 0 40 33v24h77v-27q0 -38 -27 -64t-72 -26h-115q-39 0 -39 -30q0 -28 37 -28q45 0 64 25q23 -25 57 -25h85v-66z" />
    <glyph glyph-name="uni0E48.alt3" unicode="&#xf713;" horiz-adv-x="0" 
d="M-163 767h-75v105h75v-105z" />
    <glyph glyph-name="uni0E49.alt3" unicode="&#xf714;" horiz-adv-x="0" 
d="M-67 767h-174q-20 0 -33 11.5t-13 29.5v15q0 15 -17 15h-47v64h80q51 0 51 -42v-13q0 -15 17 -15h136v-65z" />
    <glyph glyph-name="uni0E4A.alt3" unicode="&#xf715;" horiz-adv-x="0" 
d="M-120 767h-40l-8 15q9 9 9 23q0 12 -8 20t-20 10l-44 -40l-46 38q-23 -8 -23 -28q0 -7 7 -23l-9 -16h-57q-8 21 -8 47q0 29 22 52t60 27l54 -51l48 52q79 -3 79 -85q32 15 32 73l-6 45h72q4 -15 5 -40q0 -50 -35 -84.5t-84 -34.5z" />
    <glyph glyph-name="uni0E4B.alt3" unicode="&#xf716;" horiz-adv-x="0" 
d="M-105 812l-65 2l2 -47h-77l2 47l-65 -2v54l65 -2l-2 48h77l-2 -48l65 2v-54z" />
    <glyph glyph-name="uni0E4C.alt3" unicode="&#xf717;" horiz-adv-x="0" 
d="M-119 742h-59q-33 0 -33 -30v-18h-86v36q0 33 24 55.5t58 22.5h96v-66z" />
    <glyph glyph-name="uni0E38.alt1" unicode="&#xf718;" horiz-adv-x="0" 
d="M-44 -451h-75v117q0 13 -12 13h-51v63h83q24 0 39.5 -16.5t15.5 -39.5v-137z" />
    <glyph glyph-name="uni0E39.alt1" unicode="&#xf719;" horiz-adv-x="0" 
d="M-117 -352v94h73v-94q0 -50 -32.5 -79t-91.5 -29q-55 0 -86.5 28.5t-31.5 75.5v36h-48v62h116v-98q0 -49 50 -49q51 0 51 53z" />
    <glyph glyph-name="uni0E3A.alt1" unicode="&#xf71a;" horiz-adv-x="0" 
d="M-38 -311q0 -22 -16.5 -38t-39.5 -16t-39.5 16t-16.5 38t16.5 38.5t39.5 16.5t39.5 -16t16.5 -39z" />
    <glyph glyph-name="uni0E0E.alt1" unicode="&#xf71b;" horiz-adv-x="543" 
d="M499 -200h-104q-54 50 -119 50q-75 0 -136 -50l-21 65q62 55 147 55q38 0 79.5 -17.5t68.5 -41.5v472q0 57 -35.5 89.5t-94.5 32.5q-98 0 -141 -79l56 -67q-38 -25 -38 -79v-156q0 -31 -19.5 -52.5t-48.5 -21.5h-66v67h31q18 0 18 19v131q0 27 10.5 53.5t28.5 38.5
l-57 67q19 60 81.5 103t144.5 43q92 0 153.5 -53t61.5 -132v-537z" />
    <glyph glyph-name="uni0E0F.alt1" unicode="&#xf71c;" horiz-adv-x="543" 
d="M499 -200h-81l-109 65q-14 -31 -46 -51t-68 -20q-65 0 -109 29l16 66q44 -28 89 -28q38 0 66.5 25t36.5 64l120 -72v455q0 57 -35.5 89.5t-94.5 32.5q-98 0 -141 -79l56 -67q-38 -25 -38 -79v-156q0 -31 -19.5 -52.5t-48.5 -21.5h-66v67h31q18 0 18 19v131
q0 27 10.5 53.5t28.5 38.5l-57 67q19 60 81.5 103t144.5 43q92 0 153.5 -53t61.5 -132v-537z" />
    <glyph glyph-name="uni0E2C.alt1" unicode="&#xf71d;" horiz-adv-x="572" 
d="M528 0h-73l-169 249l-169 -249h-73v511h83v-323l-4 -75l14 42l134 186h30l135 -188l13 -50q-4 44 -4 89v125q0 31 -18 49.5t-50 18.5h-18l-11 33l107 150h85l-101 -145q89 -18 89 -126v-297z" />
    <glyph glyph-name="apple" unicode="&#xf8ff;" horiz-adv-x="830" 
d="M643 117l-203 -104v239q0 27 18 37l145 74q13 7 29 7q21 0 34.5 -14t13.5 -40v-127q0 -29 -8 -45t-29 -27zM414 0l-264 135v260q0 37 29 52l164 84q37 19 69 19q31 0 75 -21l115 -57q24 -12 24 -36q0 -29 -33 -45l-148 -75q-31 -16 -31 -61v-255z" />
    <glyph glyph-name="CR" horiz-adv-x="195" 
 />
    <glyph glyph-name="uni0E33.alt1" horiz-adv-x="444" 
d="M400 0h-85v333q0 58 -28.5 88t-81.5 30q-90 0 -154 -68l-28 59q82 80 190 80q88 0 137.5 -52t49.5 -144v-326zM-235 566q-37 0 -62.5 25.5t-25.5 62.5t25.5 62.5t62.5 25.5t62.5 -25.5t25.5 -62.5t-25.5 -62.5t-62.5 -25.5zM-235 618q15 0 25.5 10.5t10.5 26.5
q0 15 -10.5 25.5t-25.5 10.5t-25.5 -10.5t-10.5 -25.5q0 -16 10.5 -26.5t25.5 -10.5z" />
    <glyph glyph-name="uni0E4E.alt1" horiz-adv-x="0" 
 />
  </font>
</defs>
</svg>
